<?xml version="1.0" encoding="us-ascii" standalone="no"?><svg xmlns="http://www.w3.org/2000/svg" xmlns:xlink="http://www.w3.org/1999/xlink" contentStyleType="text/css" height="527px" preserveAspectRatio="none" style="width:470px;height:527px;background:#FFFFFF;" version="1.1" viewBox="0 0 470 527" width="470px" zoomAndPan="magnify"><defs/><g><!--cluster Auction Site--><g id="cluster_Auction Site"><rect fill="none" height="514" rx="2.5" ry="2.5" style="stroke:#181818;stroke-width:1.0;" width="213" x="93" y="7"/><text fill="#000000" font-family="sans-serif" font-size="14" font-weight="bold" lengthAdjust="spacing" textLength="95" x="152" y="21.9951">Auction Site</text></g><g id="elem_LoginUC1"><ellipse cx="199.5612" cy="128.2122" fill="#F1F1F1" rx="76.5612" ry="17.7122" style="stroke:#181818;stroke-width:0.5;"/><text fill="#000000" font-family="sans-serif" font-size="14" lengthAdjust="spacing" textLength="110" x="141.5612" y="131.9598">Login to System</text></g><g id="elem_EditListUC2"><ellipse cx="199.5612" cy="342.2122" fill="#F1F1F1" rx="76.5612" ry="17.7122" style="stroke:#181818;stroke-width:0.5;"/><text fill="#000000" font-family="sans-serif" font-size="14" lengthAdjust="spacing" textLength="110" x="141.5612" y="345.9598">Edit User Listing</text></g><g id="elem_RemoveListUC3"><ellipse cx="199.6728" cy="200.8346" fill="#F1F1F1" rx="89.6728" ry="20.3346" style="stroke:#181818;stroke-width:0.5;"/><text fill="#000000" font-family="sans-serif" font-size="14" lengthAdjust="spacing" textLength="141" x="129.1728" y="203.6812">Remove User Listing</text></g><g id="elem_ViewStatUC4"><ellipse cx="199.4293" cy="487.7859" fill="#F1F1F1" rx="71.9293" ry="16.7859" style="stroke:#181818;stroke-width:0.5;"/><text fill="#000000" font-family="sans-serif" font-size="14" lengthAdjust="spacing" textLength="98" x="147.4293" y="491.5334">View Statistics</text></g><g id="elem_RxNotUC5"><ellipse cx="199.5567" cy="415.0113" fill="#F1F1F1" rx="90.5567" ry="20.5113" style="stroke:#181818;stroke-width:0.5;"/><text fill="#000000" font-family="sans-serif" font-size="14" lengthAdjust="spacing" textLength="143" x="128.0567" y="417.858">Receive Notifications</text></g><g id="elem_ViewListUC6"><ellipse cx="199.74" cy="273.048" fill="#F1F1F1" rx="68.24" ry="16.048" style="stroke:#181818;stroke-width:0.5;"/><text fill="#000000" font-family="sans-serif" font-size="14" lengthAdjust="spacing" textLength="88" x="152.74" y="276.7956">View Listings</text></g><g id="elem_RmvUserUC7"><ellipse cx="199.5634" cy="58.9127" fill="#F1F1F1" rx="70.0634" ry="16.4127" style="stroke:#181818;stroke-width:0.5;"/><text fill="#000000" font-family="sans-serif" font-size="14" lengthAdjust="spacing" textLength="93" x="150.0634" y="62.6602">Remove User</text></g><!--entity DB of Users--><g id="elem_DB of Users"><rect fill="#F1F1F1" height="36.2969" rx="2.5" ry="2.5" style="stroke:#181818;stroke-width:0.5;" width="102" x="356" y="76"/><text fill="#000000" font-family="sans-serif" font-size="14" lengthAdjust="spacing" textLength="82" x="366" y="98.9951">DB of Users</text></g><!--entity DB of Listings--><g id="elem_DB of Listings"><rect fill="#F1F1F1" height="36.2969" rx="2.5" ry="2.5" style="stroke:#181818;stroke-width:0.5;" width="114" x="350" y="324"/><text fill="#000000" font-family="sans-serif" font-size="14" lengthAdjust="spacing" textLength="94" x="360" y="346.9951">DB of Listings</text></g><!--entity DB of Bids--><g id="elem_DB of Bids"><rect fill="#F1F1F1" height="36.2969" rx="2.5" ry="2.5" style="stroke:#181818;stroke-width:0.5;" width="92" x="361" y="397"/><text fill="#000000" font-family="sans-serif" font-size="14" lengthAdjust="spacing" textLength="72" x="371" y="419.9951">DB of Bids</text></g><!--entity A--><g id="elem_A"><ellipse cx="27.5" cy="243.5" fill="#F1F1F1" rx="8" ry="8" style="stroke:#181818;stroke-width:0.5;"/><path d="M27.5,251.5 L27.5,278.5 M14.5,259.5 L40.5,259.5 M27.5,278.5 L14.5,293.5 M27.5,278.5 L40.5,293.5 " fill="none" style="stroke:#181818;stroke-width:0.5;"/><text fill="#000000" font-family="sans-serif" font-size="14" lengthAdjust="spacing" textLength="43" x="6" y="307.9951">Admin</text></g><!--link A to LoginUC1--><g id="link_A_LoginUC1"><path d="M39.55,234.99 C48.29,211.19 62.79,181.62 85,163 C99.38,150.94 117.88,143.04 135.75,137.85 " fill="none" id="A-LoginUC1" style="stroke:#181818;stroke-width:1.0;"/></g><!--link A to EditListUC2--><g id="link_A_EditListUC2"><path d="M49.11,286.52 C59.57,293 72.65,300.51 85,306 C105.31,315.02 128.58,322.81 148.74,328.82 " fill="none" id="A-EditListUC2" style="stroke:#181818;stroke-width:1.0;"/></g><!--link A to RemoveListUC3--><g id="link_A_RemoveListUC3"><path d="M49.1,259.11 C59.55,252.46 72.63,244.71 85,239 C103.3,230.55 124.03,223.05 142.72,216.99 " fill="none" id="A-RemoveListUC3" style="stroke:#181818;stroke-width:1.0;"/></g><!--link A to ViewStatUC4--><g id="link_A_ViewStatUC4"><path d="M30.39,311.35 C34.44,351.9 46.92,415.11 85,453 C98.67,466.6 117.49,474.93 135.88,480.03 " fill="none" id="A-ViewStatUC4" style="stroke:#181818;stroke-width:1.0;"/></g><!--link A to RxNotUC5--><g id="link_A_RxNotUC5"><path d="M41.11,311.05 C50.18,333.08 64.46,359.76 85,377 C98.13,388.02 114.59,395.88 130.86,401.48 " fill="none" id="A-RxNotUC5" style="stroke:#181818;stroke-width:1.0;"/></g><!--link A to ViewListUC6--><g id="link_A_ViewListUC6"><path d="M49.01,273 C69.41,273 101.83,273 131.27,273 " fill="none" id="A-ViewListUC6" style="stroke:#181818;stroke-width:1.0;"/></g><!--link A to RmvUserUC7--><g id="link_A_RmvUserUC7"><path d="M30.3,234.96 C34.26,194.38 46.65,130.85 85,93 C98.83,79.35 117.92,71.14 136.5,66.22 " fill="none" id="A-RmvUserUC7" style="stroke:#181818;stroke-width:1.0;"/></g><!--link ViewListUC6 to DB of Listings--><g id="link_ViewListUC6_DB of Listings"><path d="M243.85,285.19 C265.11,291.36 291.02,299.2 314,307 C329.21,312.16 345.66,318.25 360.38,323.9 " fill="none" id="ViewListUC6-DB of Listings" style="stroke:#181818;stroke-width:1.0;"/></g><!--link RemoveListUC3 to DB of Listings--><g id="link_RemoveListUC3_DB of Listings"><path d="M262.96,215.52 C280.34,221.22 298.64,228.88 314,239 C348.64,261.82 378.48,300.83 394.18,323.73 " fill="none" id="RemoveListUC3-DB of Listings" style="stroke:#181818;stroke-width:1.0;"/></g><!--link EditListUC2 to DB of Listings--><g id="link_EditListUC2_DB of Listings"><path d="M276.15,342 C300.52,342 327.09,342 349.81,342 " fill="none" id="EditListUC2-DB of Listings" style="stroke:#181818;stroke-width:1.0;"/></g><!--link EditListUC2 to DB of Bids--><g id="link_EditListUC2_DB of Bids"><path d="M248.04,355.59 C268.48,361.71 292.56,369.29 314,377 C330.75,383.03 348.91,390.36 364.64,396.96 " fill="none" id="EditListUC2-DB of Bids" style="stroke:#181818;stroke-width:1.0;"/></g><!--link RxNotUC5 to DB of Listings--><g id="link_RxNotUC5_DB of Listings"><path d="M252.07,398.22 C271.54,391.76 293.85,384.2 314,377 C328.8,371.71 344.85,365.7 359.33,360.17 " fill="none" id="RxNotUC5-DB of Listings" style="stroke:#181818;stroke-width:1.0;"/></g><!--link RxNotUC5 to DB of Bids--><g id="link_RxNotUC5_DB of Bids"><path d="M290.04,415 C314.48,415 339.94,415 360.76,415 " fill="none" id="RxNotUC5-DB of Bids" style="stroke:#181818;stroke-width:1.0;"/></g><!--link LoginUC1 to DB of Users--><g id="link_LoginUC1_DB of Users"><path d="M261.88,117.84 C291.92,112.87 327.62,106.97 355.98,102.28 " fill="none" id="LoginUC1-DB of Users" style="stroke:#181818;stroke-width:1.0;"/></g><!--link RmvUserUC7 to DB of Users--><g id="link_RmvUserUC7_DB of Users"><path d="M256.65,68.56 C287.67,73.85 325.87,80.35 355.88,85.46 " fill="none" id="RmvUserUC7-DB of Users" style="stroke:#181818;stroke-width:1.0;"/></g><!--link ViewStatUC4 to DB of Bids--><g id="link_ViewStatUC4_DB of Bids"><path d="M246.11,474.99 C266.95,468.77 291.88,460.96 314,453 C330.75,446.97 348.91,439.64 364.64,433.04 " fill="none" id="ViewStatUC4-DB of Bids" style="stroke:#181818;stroke-width:1.0;"/></g><!--link ViewStatUC4 to DB of Listings--><g id="link_ViewStatUC4_DB of Listings"><path d="M261.06,479.01 C279.66,473.85 299.13,465.75 314,453 C341.77,429.2 325.89,406.5 350,379 C356.3,371.82 364.31,365.44 372.29,360.09 " fill="none" id="ViewStatUC4-DB of Listings" style="stroke:#181818;stroke-width:1.0;"/></g><!--SRC=[bL6xReGm4EptArRqL-HTSoJTASKXfxUC8IiTMC9xZoZAluUrGp21AzBXcTdPsU5WQqPss5FppbXHRmsJwq0RTZtcLKiTQeyvW32wQmuMi_mOH5WIsmm_0V7ehT5-e7Qk6IO6m_B3isqp6GwOAcvItKj5ZChR7dVacRecA0MLjofkK_7Ujkvab_A8nu6xTE2Dx1bBrYnYuuDOC85KSJ_tDfO6yrV7L9FHSbWSs5y6J1KF2-EV29DjJF1u9N8qQq_ohOedWAzPcSzRT7KGUkbobPqsNX5igV9Pv237pMRgFBpINWCmRov0QJzHCzx_IuztHZgvA265-fiQPkjM5Kd2V_3XR1Y3hgzUad5gR2WXua-0wR8bbxIqS5pdfYZm3G00]--></g></svg>