<?xml version="1.0" encoding="us-ascii" standalone="no"?><svg xmlns="http://www.w3.org/2000/svg" xmlns:xlink="http://www.w3.org/1999/xlink" contentStyleType="text/css" height="381px" preserveAspectRatio="none" style="width:492px;height:381px;background:#FFFFFF;" version="1.1" viewBox="0 0 492 381" width="492px" zoomAndPan="magnify"><defs/><g><!--cluster Auction Site--><g id="cluster_Auction Site"><rect fill="none" height="368" rx="2.5" ry="2.5" style="stroke:#181818;stroke-width:1.0;" width="213" x="95" y="7"/><text fill="#000000" font-family="sans-serif" font-size="14" font-weight="bold" lengthAdjust="spacing" textLength="95" x="154" y="21.9951">Auction Site</text></g><g id="elem_PostBidUC1"><ellipse cx="201.5597" cy="56.782" fill="#F1F1F1" rx="61.5597" ry="14.782" style="stroke:#181818;stroke-width:0.5;"/><text fill="#000000" font-family="sans-serif" font-size="14" lengthAdjust="spacing" textLength="69" x="164.0597" y="60.5295">Post a Bid</text></g><g id="elem_ViewListUC2"><ellipse cx="201.6952" cy="199.839" fill="#F1F1F1" rx="69.6952" ry="16.339" style="stroke:#181818;stroke-width:0.5;"/><text fill="#000000" font-family="sans-serif" font-size="14" lengthAdjust="spacing" textLength="92" x="152.6952" y="203.5866">View a Listing</text></g><g id="elem_RemoveListUC3"><ellipse cx="201.3735" cy="269.7747" fill="#F1F1F1" rx="79.3735" ry="18.2747" style="stroke:#181818;stroke-width:0.5;"/><text fill="#000000" font-family="sans-serif" font-size="14" lengthAdjust="spacing" textLength="117" x="140.9676" y="273.2248">Remove a Listing</text></g><g id="elem_RxNotUC4"><ellipse cx="201.5567" cy="128.0113" fill="#F1F1F1" rx="90.5567" ry="20.5113" style="stroke:#181818;stroke-width:0.5;"/><text fill="#000000" font-family="sans-serif" font-size="14" lengthAdjust="spacing" textLength="143" x="130.0567" y="130.858">Receive Notifications</text></g><g id="elem_LoginUC5"><ellipse cx="201.5612" cy="341.2122" fill="#F1F1F1" rx="76.5612" ry="17.7122" style="stroke:#181818;stroke-width:0.5;"/><text fill="#000000" font-family="sans-serif" font-size="14" lengthAdjust="spacing" textLength="110" x="143.5612" y="344.9598">Login to System</text></g><!--entity DB of Users--><g id="elem_DB of Users"><rect fill="#F1F1F1" height="36.2969" rx="2.5" ry="2.5" style="stroke:#181818;stroke-width:0.5;" width="102" x="368" y="288"/><text fill="#000000" font-family="sans-serif" font-size="14" lengthAdjust="spacing" textLength="82" x="378" y="310.9951">DB of Users</text></g><!--entity DB of Listings--><g id="elem_DB of Listings"><rect fill="#F1F1F1" height="36.2969" rx="2.5" ry="2.5" style="stroke:#181818;stroke-width:0.5;" width="114" x="362" y="182"/><text fill="#000000" font-family="sans-serif" font-size="14" lengthAdjust="spacing" textLength="94" x="372" y="204.9951">DB of Listings</text></g><!--entity DB of Bids--><g id="elem_DB of Bids"><rect fill="#F1F1F1" height="36.2969" rx="2.5" ry="2.5" style="stroke:#181818;stroke-width:0.5;" width="92" x="373" y="110"/><text fill="#000000" font-family="sans-serif" font-size="14" lengthAdjust="spacing" textLength="72" x="383" y="132.9951">DB of Bids</text></g><!--entity Financial System--><g id="elem_Financial System"><rect fill="#F1F1F1" height="36.2969" rx="2.5" ry="2.5" style="stroke:#181818;stroke-width:0.5;" width="134" x="352" y="39"/><text fill="#000000" font-family="sans-serif" font-size="14" lengthAdjust="spacing" textLength="114" x="362" y="61.9951">Financial System</text></g><!--entity B--><g id="elem_B"><ellipse cx="28.5" cy="170.5" fill="#F1F1F1" rx="8" ry="8" style="stroke:#181818;stroke-width:0.5;"/><path d="M28.5,178.5 L28.5,205.5 M15.5,186.5 L41.5,186.5 M28.5,205.5 L15.5,220.5 M28.5,205.5 L41.5,220.5 " fill="none" style="stroke:#181818;stroke-width:0.5;"/><text fill="#000000" font-family="sans-serif" font-size="14" lengthAdjust="spacing" textLength="45" x="6" y="234.9951">Bidder</text></g><!--link B to PostBidUC1--><g id="link_B_PostBidUC1"><path d="M40.81,161.86 C49.73,138.01 64.49,108.43 87,90 C103.67,76.35 125.76,68.35 146.02,63.65 " fill="none" id="B-PostBidUC1" style="stroke:#181818;stroke-width:1.0;"/></g><!--link B to ViewListUC2--><g id="link_B_ViewListUC2"><path d="M51.16,200 C71.47,200 102.95,200 131.78,200 " fill="none" id="B-ViewListUC2" style="stroke:#181818;stroke-width:1.0;"/></g><!--link B to RemoveListUC3--><g id="link_B_RemoveListUC3"><path d="M51.26,214.46 C61.76,221.01 74.72,228.51 87,234 C106.53,242.74 128.82,250.29 148.45,256.19 " fill="none" id="B-RemoveListUC3" style="stroke:#181818;stroke-width:1.0;"/></g><!--link B to RxNotUC4--><g id="link_B_RxNotUC4"><path d="M51.03,185.8 C61.59,179.22 74.66,171.64 87,166 C105.33,157.62 126.07,150.14 144.75,144.07 " fill="none" id="B-RxNotUC4" style="stroke:#181818;stroke-width:1.0;"/></g><!--link B to LoginUC5--><g id="link_B_LoginUC5"><path d="M41.86,238.19 C51,260.85 65.62,288.48 87,306 C101.59,317.96 120.26,325.84 138.21,331.03 " fill="none" id="B-LoginUC5" style="stroke:#181818;stroke-width:1.0;"/></g><!--link PostBidUC1 to DB of Bids--><g id="link_PostBidUC1_DB of Bids"><path d="M243.17,68.04 C264.9,74.14 292.04,82.07 316,90 C334.75,96.21 355.18,103.68 372.81,110.35 " fill="none" id="PostBidUC1-DB of Bids" style="stroke:#181818;stroke-width:1.0;"/></g><!--link PostBidUC1 to Financial System--><g id="link_PostBidUC1_Financial System"><path d="M263.1,57 C290.74,57 323.53,57 351.81,57 " fill="none" id="PostBidUC1-Financial System" style="stroke:#181818;stroke-width:1.0;"/></g><!--link ViewListUC2 to DB of Listings--><g id="link_ViewListUC2_DB of Listings"><path d="M271.28,200 C300.47,200 334.08,200 361.75,200 " fill="none" id="ViewListUC2-DB of Listings" style="stroke:#181818;stroke-width:1.0;"/></g><!--link RemoveListUC3 to DB of Users--><g id="link_RemoveListUC3_DB of Users"><path d="M266.57,280.7 C298.96,286.11 337.67,292.58 367.85,297.62 " fill="none" id="RemoveListUC3-DB of Users" style="stroke:#181818;stroke-width:1.0;"/></g><!--link RxNotUC4 to DB of Listings--><g id="link_RxNotUC4_DB of Listings"><path d="M253.03,144.88 C286.37,156.02 330,170.6 364.02,181.97 " fill="none" id="RxNotUC4-DB of Listings" style="stroke:#181818;stroke-width:1.0;"/></g><!--link RxNotUC4 to DB of Bids--><g id="link_RxNotUC4_DB of Bids"><path d="M292.02,128 C319.89,128 349.43,128 372.9,128 " fill="none" id="RxNotUC4-DB of Bids" style="stroke:#181818;stroke-width:1.0;"/></g><!--link LoginUC5 to DB of Users--><g id="link_LoginUC5_DB of Users"><path d="M264.25,330.97 C297.09,325.64 336.94,319.17 367.84,314.15 " fill="none" id="LoginUC5-DB of Users" style="stroke:#181818;stroke-width:1.0;"/></g><!--SRC=[TP39RiCm34Jl_0h2znowVK3jegSWA1geTq6cNGAE18XA5nJzzsgfKpbER-RC6td8YOQ0mQ7dyJLWpvvCO6T1c-0yjjptv54BjW39qdQS29lxOwPmpu4Q_0B4ev3H4gqd9m5rIZOfbyRuhRgh6dfXUe_GbYMm7JEOf3Ihxhecd-dWtkYCBMAXRvQq8OxupWKUsEXKKaha8sggkwtfhHlPfkNtdnBeaBcigUuElXSBFxJe1bH2NjA-5ztVXly3yGxIPA-o7jbgQrXFSuiIXXOtc_fwUQwFb8Nb9OeqRvgdqpu0Vuybe-vqRgqwGVNZAdpQ61OzAg9S3EPEbxDhixIQkw_V-m40]--></g></svg>