<?xml version="1.0" encoding="us-ascii" standalone="no"?><svg xmlns="http://www.w3.org/2000/svg" xmlns:xlink="http://www.w3.org/1999/xlink" contentStyleType="text/css" height="1294px" preserveAspectRatio="none" style="width:831px;height:1294px;background:#FFFFFF;" version="1.1" viewBox="0 0 831 1294" width="831px" zoomAndPan="magnify"><defs/><g><!--class User--><g id="elem_User"><rect codeLine="24" fill="#F1F1F1" height="145.7813" id="User" rx="2.5" ry="2.5" style="stroke:#181818;stroke-width:0.5;" width="189" x="459.5" y="968"/><ellipse cx="533.75" cy="984" fill="#ADD1B2" rx="11" ry="11" style="stroke:#181818;stroke-width:1.0;"/><path d="M536.7188,989.6406 Q536.1406,989.9375 535.5,990.0781 Q534.8594,990.2344 534.1563,990.2344 Q531.6563,990.2344 530.3281,988.5938 Q529.0156,986.9375 529.0156,983.8125 Q529.0156,980.6875 530.3281,979.0313 Q531.6563,977.375 534.1563,977.375 Q534.8594,977.375 535.5,977.5313 Q536.1563,977.6875 536.7188,977.9844 L536.7188,980.7031 Q536.0938,980.125 535.5,979.8594 Q534.9063,979.5781 534.2813,979.5781 Q532.9375,979.5781 532.25,980.6563 Q531.5625,981.7188 531.5625,983.8125 Q531.5625,985.9063 532.25,986.9844 Q532.9375,988.0469 534.2813,988.0469 Q534.9063,988.0469 535.5,987.7813 Q536.0938,987.5 536.7188,986.9219 L536.7188,989.6406 Z " fill="#000000"/><text fill="#000000" font-family="sans-serif" font-size="14" lengthAdjust="spacing" textLength="32" x="554.25" y="988.8467">User</text><line style="stroke:#181818;stroke-width:0.5;" x1="460.5" x2="647.5" y1="1000" y2="1000"/><ellipse cx="470.5" cy="1013.6484" fill="none" rx="3" ry="3" style="stroke:#038048;stroke-width:1.0;"/><text fill="#000000" font-family="sans-serif" font-size="14" lengthAdjust="spacing" textLength="61" x="479.5" y="1016.9951">id: String</text><ellipse cx="470.5" cy="1029.9453" fill="none" rx="3" ry="3" style="stroke:#038048;stroke-width:1.0;"/><text fill="#000000" font-family="sans-serif" font-size="14" lengthAdjust="spacing" textLength="88" x="479.5" y="1033.292">name: String</text><ellipse cx="470.5" cy="1046.2422" fill="none" rx="3" ry="3" style="stroke:#038048;stroke-width:1.0;"/><text fill="#000000" font-family="sans-serif" font-size="14" lengthAdjust="spacing" textLength="85" x="479.5" y="1049.5889">email: String</text><ellipse cx="470.5" cy="1062.5391" fill="none" rx="3" ry="3" style="stroke:#038048;stroke-width:1.0;"/><text fill="#000000" font-family="sans-serif" font-size="14" lengthAdjust="spacing" textLength="163" x="479.5" y="1065.8857">emailVerified: DateTime</text><ellipse cx="470.5" cy="1078.8359" fill="none" rx="3" ry="3" style="stroke:#038048;stroke-width:1.0;"/><text fill="#000000" font-family="sans-serif" font-size="14" lengthAdjust="spacing" textLength="91" x="479.5" y="1082.1826">image: String</text><ellipse cx="470.5" cy="1095.1328" fill="none" rx="3" ry="3" style="stroke:#038048;stroke-width:1.0;"/><text fill="#000000" font-family="sans-serif" font-size="14" lengthAdjust="spacing" textLength="153" x="479.5" y="1098.4795">userGroupIds: String[]</text><line style="stroke:#181818;stroke-width:0.5;" x1="460.5" x2="647.5" y1="1105.7813" y2="1105.7813"/></g><!--class Listing--><g id="elem_Listing"><rect codeLine="33" fill="#F1F1F1" height="162.0781" id="Listing" rx="2.5" ry="2.5" style="stroke:#181818;stroke-width:0.5;" width="152" x="280" y="721"/><ellipse cx="329.75" cy="737" fill="#ADD1B2" rx="11" ry="11" style="stroke:#181818;stroke-width:1.0;"/><path d="M332.7188,742.6406 Q332.1406,742.9375 331.5,743.0781 Q330.8594,743.2344 330.1563,743.2344 Q327.6563,743.2344 326.3281,741.5938 Q325.0156,739.9375 325.0156,736.8125 Q325.0156,733.6875 326.3281,732.0313 Q327.6563,730.375 330.1563,730.375 Q330.8594,730.375 331.5,730.5313 Q332.1563,730.6875 332.7188,730.9844 L332.7188,733.7031 Q332.0938,733.125 331.5,732.8594 Q330.9063,732.5781 330.2813,732.5781 Q328.9375,732.5781 328.25,733.6563 Q327.5625,734.7188 327.5625,736.8125 Q327.5625,738.9063 328.25,739.9844 Q328.9375,741.0469 330.2813,741.0469 Q330.9063,741.0469 331.5,740.7813 Q332.0938,740.5 332.7188,739.9219 L332.7188,742.6406 Z " fill="#000000"/><text fill="#000000" font-family="sans-serif" font-size="14" lengthAdjust="spacing" textLength="44" x="350.25" y="741.8467">Listing</text><line style="stroke:#181818;stroke-width:0.5;" x1="281" x2="431" y1="753" y2="753"/><ellipse cx="291" cy="766.6484" fill="none" rx="3" ry="3" style="stroke:#038048;stroke-width:1.0;"/><text fill="#000000" font-family="sans-serif" font-size="14" lengthAdjust="spacing" textLength="61" x="300" y="769.9951">id: String</text><ellipse cx="291" cy="782.9453" fill="none" rx="3" ry="3" style="stroke:#038048;stroke-width:1.0;"/><text fill="#000000" font-family="sans-serif" font-size="14" lengthAdjust="spacing" textLength="74" x="300" y="786.292">title: String</text><ellipse cx="291" cy="799.2422" fill="none" rx="3" ry="3" style="stroke:#038048;stroke-width:1.0;"/><text fill="#000000" font-family="sans-serif" font-size="14" lengthAdjust="spacing" textLength="126" x="300" y="802.5889">description: String</text><ellipse cx="291" cy="815.5391" fill="none" rx="3" ry="3" style="stroke:#038048;stroke-width:1.0;"/><text fill="#000000" font-family="sans-serif" font-size="14" lengthAdjust="spacing" textLength="76" x="300" y="818.8857">price: Float</text><ellipse cx="291" cy="831.8359" fill="none" rx="3" ry="3" style="stroke:#038048;stroke-width:1.0;"/><text fill="#000000" font-family="sans-serif" font-size="14" lengthAdjust="spacing" textLength="91" x="300" y="835.1826">image: String</text><ellipse cx="291" cy="848.1328" fill="none" rx="3" ry="3" style="stroke:#038048;stroke-width:1.0;"/><text fill="#000000" font-family="sans-serif" font-size="14" lengthAdjust="spacing" textLength="92" x="300" y="851.4795">userId: String</text><ellipse cx="291" cy="864.4297" fill="none" rx="3" ry="3" style="stroke:#038048;stroke-width:1.0;"/><text fill="#000000" font-family="sans-serif" font-size="14" lengthAdjust="spacing" textLength="126" x="300" y="867.7764">expires: DateTime</text><line style="stroke:#181818;stroke-width:0.5;" x1="281" x2="431" y1="875.0781" y2="875.0781"/></g><!--class Bid--><g id="elem_Bid"><rect codeLine="44" fill="#F1F1F1" height="113.1875" id="Bid" rx="2.5" ry="2.5" style="stroke:#181818;stroke-width:0.5;" width="127" x="105.5" y="745.5"/><ellipse cx="153.75" cy="761.5" fill="#ADD1B2" rx="11" ry="11" style="stroke:#181818;stroke-width:1.0;"/><path d="M156.7188,767.1406 Q156.1406,767.4375 155.5,767.5781 Q154.8594,767.7344 154.1563,767.7344 Q151.6563,767.7344 150.3281,766.0938 Q149.0156,764.4375 149.0156,761.3125 Q149.0156,758.1875 150.3281,756.5313 Q151.6563,754.875 154.1563,754.875 Q154.8594,754.875 155.5,755.0313 Q156.1563,755.1875 156.7188,755.4844 L156.7188,758.2031 Q156.0938,757.625 155.5,757.3594 Q154.9063,757.0781 154.2813,757.0781 Q152.9375,757.0781 152.25,758.1563 Q151.5625,759.2188 151.5625,761.3125 Q151.5625,763.4063 152.25,764.4844 Q152.9375,765.5469 154.2813,765.5469 Q154.9063,765.5469 155.5,765.2813 Q156.0938,765 156.7188,764.4219 L156.7188,767.1406 Z " fill="#000000"/><text fill="#000000" font-family="sans-serif" font-size="14" lengthAdjust="spacing" textLength="22" x="174.25" y="766.3467">Bid</text><line style="stroke:#181818;stroke-width:0.5;" x1="106.5" x2="231.5" y1="777.5" y2="777.5"/><ellipse cx="116.5" cy="791.1484" fill="none" rx="3" ry="3" style="stroke:#038048;stroke-width:1.0;"/><text fill="#000000" font-family="sans-serif" font-size="14" lengthAdjust="spacing" textLength="61" x="125.5" y="794.4951">id: String</text><ellipse cx="116.5" cy="807.4453" fill="none" rx="3" ry="3" style="stroke:#038048;stroke-width:1.0;"/><text fill="#000000" font-family="sans-serif" font-size="14" lengthAdjust="spacing" textLength="76" x="125.5" y="810.792">price: Float</text><ellipse cx="116.5" cy="823.7422" fill="none" rx="3" ry="3" style="stroke:#038048;stroke-width:1.0;"/><text fill="#000000" font-family="sans-serif" font-size="14" lengthAdjust="spacing" textLength="92" x="125.5" y="827.0889">userId: String</text><ellipse cx="116.5" cy="840.0391" fill="none" rx="3" ry="3" style="stroke:#038048;stroke-width:1.0;"/><text fill="#000000" font-family="sans-serif" font-size="14" lengthAdjust="spacing" textLength="101" x="125.5" y="843.3857">listingId: String</text><line style="stroke:#181818;stroke-width:0.5;" x1="106.5" x2="231.5" y1="850.6875" y2="850.6875"/></g><!--class UserGroupType--><g id="elem_UserGroupType"><rect codeLine="50" fill="#F1F1F1" height="64.2969" id="UserGroupType" rx="2.5" ry="2.5" style="stroke:#181818;stroke-width:0.5;" width="141" x="683.5" y="1009"/><ellipse cx="698.5" cy="1025" fill="#EB937F" rx="11" ry="11" style="stroke:#181818;stroke-width:1.0;"/><path d="M702.6094,1031 L694.8906,1031 L694.8906,1018.6094 L702.6094,1018.6094 L702.6094,1020.7656 L697.3438,1020.7656 L697.3438,1023.4375 L702.1094,1023.4375 L702.1094,1025.5938 L697.3438,1025.5938 L697.3438,1028.8438 L702.6094,1028.8438 L702.6094,1031 Z " fill="#000000"/><text fill="#000000" font-family="sans-serif" font-size="14" lengthAdjust="spacing" textLength="109" x="712.5" y="1029.8467">UserGroupType</text><line style="stroke:#181818;stroke-width:0.5;" x1="684.5" x2="823.5" y1="1041" y2="1041"/><text fill="#000000" font-family="sans-serif" font-size="14" lengthAdjust="spacing" textLength="45" x="689.5" y="1057.9951">ADMIN</text><line style="stroke:#181818;stroke-width:0.5;" x1="684.5" x2="823.5" y1="1065.2969" y2="1065.2969"/></g><!--class UserGroup--><g id="elem_UserGroup"><rect codeLine="54" fill="#F1F1F1" height="96.8906" id="UserGroup" rx="2.5" ry="2.5" style="stroke:#181818;stroke-width:0.5;" width="174" x="567" y="1191"/><ellipse cx="612.25" cy="1207" fill="#ADD1B2" rx="11" ry="11" style="stroke:#181818;stroke-width:1.0;"/><path d="M615.2188,1212.6406 Q614.6406,1212.9375 614,1213.0781 Q613.3594,1213.2344 612.6563,1213.2344 Q610.1563,1213.2344 608.8281,1211.5938 Q607.5156,1209.9375 607.5156,1206.8125 Q607.5156,1203.6875 608.8281,1202.0313 Q610.1563,1200.375 612.6563,1200.375 Q613.3594,1200.375 614,1200.5313 Q614.6563,1200.6875 615.2188,1200.9844 L615.2188,1203.7031 Q614.5938,1203.125 614,1202.8594 Q613.4063,1202.5781 612.7813,1202.5781 Q611.4375,1202.5781 610.75,1203.6563 Q610.0625,1204.7188 610.0625,1206.8125 Q610.0625,1208.9063 610.75,1209.9844 Q611.4375,1211.0469 612.7813,1211.0469 Q613.4063,1211.0469 614,1210.7813 Q614.5938,1210.5 615.2188,1209.9219 L615.2188,1212.6406 Z " fill="#000000"/><text fill="#000000" font-family="sans-serif" font-size="14" lengthAdjust="spacing" textLength="75" x="632.75" y="1211.8467">UserGroup</text><line style="stroke:#181818;stroke-width:0.5;" x1="568" x2="740" y1="1223" y2="1223"/><ellipse cx="578" cy="1236.6484" fill="none" rx="3" ry="3" style="stroke:#038048;stroke-width:1.0;"/><text fill="#000000" font-family="sans-serif" font-size="14" lengthAdjust="spacing" textLength="61" x="587" y="1239.9951">id: String</text><ellipse cx="578" cy="1252.9453" fill="none" rx="3" ry="3" style="stroke:#038048;stroke-width:1.0;"/><text fill="#000000" font-family="sans-serif" font-size="14" lengthAdjust="spacing" textLength="90" x="587" y="1256.292">users: User[]</text><ellipse cx="578" cy="1269.2422" fill="none" rx="3" ry="3" style="stroke:#038048;stroke-width:1.0;"/><text fill="#000000" font-family="sans-serif" font-size="14" lengthAdjust="spacing" textLength="148" x="587" y="1272.5889">type: UserGroupType</text><line style="stroke:#181818;stroke-width:0.5;" x1="568" x2="740" y1="1279.8906" y2="1279.8906"/></g><!--class ListingsRoute--><g id="elem_ListingsRoute"><rect codeLine="68" fill="#F1F1F1" height="145.7813" id="ListingsRoute" rx="2.5" ry="2.5" style="stroke:#181818;stroke-width:0.5;" width="172" x="279" y="490"/><ellipse cx="314.7" cy="506" fill="#ADD1B2" rx="11" ry="11" style="stroke:#181818;stroke-width:1.0;"/><path d="M317.6688,511.6406 Q317.0906,511.9375 316.45,512.0781 Q315.8094,512.2344 315.1063,512.2344 Q312.6063,512.2344 311.2781,510.5938 Q309.9656,508.9375 309.9656,505.8125 Q309.9656,502.6875 311.2781,501.0313 Q312.6063,499.375 315.1063,499.375 Q315.8094,499.375 316.45,499.5313 Q317.1063,499.6875 317.6688,499.9844 L317.6688,502.7031 Q317.0438,502.125 316.45,501.8594 Q315.8563,501.5781 315.2313,501.5781 Q313.8875,501.5781 313.2,502.6563 Q312.5125,503.7188 312.5125,505.8125 Q312.5125,507.9063 313.2,508.9844 Q313.8875,510.0469 315.2313,510.0469 Q315.8563,510.0469 316.45,509.7813 Q317.0438,509.5 317.6688,508.9219 L317.6688,511.6406 Z " fill="#000000"/><text fill="#000000" font-family="sans-serif" font-size="14" lengthAdjust="spacing" textLength="94" x="333.3" y="510.8467">ListingsRoute</text><line style="stroke:#181818;stroke-width:0.5;" x1="280" x2="450" y1="522" y2="522"/><line style="stroke:#181818;stroke-width:0.5;" x1="280" x2="450" y1="530" y2="530"/><ellipse cx="290" cy="543.6484" fill="#84BE84" rx="3" ry="3" style="stroke:#038048;stroke-width:1.0;"/><text fill="#000000" font-family="sans-serif" font-size="14" lengthAdjust="spacing" textLength="98" x="299" y="546.9951">createListing()</text><ellipse cx="290" cy="559.9453" fill="#84BE84" rx="3" ry="3" style="stroke:#038048;stroke-width:1.0;"/><text fill="#000000" font-family="sans-serif" font-size="14" lengthAdjust="spacing" textLength="103" x="299" y="563.292">updateListing()</text><ellipse cx="290" cy="576.2422" fill="#84BE84" rx="3" ry="3" style="stroke:#038048;stroke-width:1.0;"/><text fill="#000000" font-family="sans-serif" font-size="14" lengthAdjust="spacing" textLength="98" x="299" y="579.5889">deleteListing()</text><ellipse cx="290" cy="592.5391" fill="#84BE84" rx="3" ry="3" style="stroke:#038048;stroke-width:1.0;"/><text fill="#000000" font-family="sans-serif" font-size="14" lengthAdjust="spacing" textLength="85" x="299" y="595.8857">getListings()</text><ellipse cx="290" cy="608.8359" fill="#84BE84" rx="3" ry="3" style="stroke:#038048;stroke-width:1.0;"/><text fill="#000000" font-family="sans-serif" font-size="14" lengthAdjust="spacing" textLength="106" x="299" y="612.1826">getListingById()</text><ellipse cx="290" cy="625.1328" fill="#84BE84" rx="3" ry="3" style="stroke:#038048;stroke-width:1.0;"/><text fill="#000000" font-family="sans-serif" font-size="14" lengthAdjust="spacing" textLength="146" x="299" y="628.4795">getListingsByUserId()</text></g><!--class AuthenticationRoute--><g id="elem_AuthenticationRoute"><rect codeLine="77" fill="#F1F1F1" height="178.375" id="AuthenticationRoute" rx="2.5" ry="2.5" style="stroke:#181818;stroke-width:0.5;" width="174" x="467" y="713"/><ellipse cx="482" cy="729" fill="#ADD1B2" rx="11" ry="11" style="stroke:#181818;stroke-width:1.0;"/><path d="M484.9688,734.6406 Q484.3906,734.9375 483.75,735.0781 Q483.1094,735.2344 482.4063,735.2344 Q479.9063,735.2344 478.5781,733.5938 Q477.2656,731.9375 477.2656,728.8125 Q477.2656,725.6875 478.5781,724.0313 Q479.9063,722.375 482.4063,722.375 Q483.1094,722.375 483.75,722.5313 Q484.4063,722.6875 484.9688,722.9844 L484.9688,725.7031 Q484.3438,725.125 483.75,724.8594 Q483.1563,724.5781 482.5313,724.5781 Q481.1875,724.5781 480.5,725.6563 Q479.8125,726.7188 479.8125,728.8125 Q479.8125,730.9063 480.5,731.9844 Q481.1875,733.0469 482.5313,733.0469 Q483.1563,733.0469 483.75,732.7813 Q484.3438,732.5 484.9688,731.9219 L484.9688,734.6406 Z " fill="#000000"/><text fill="#000000" font-family="sans-serif" font-size="14" lengthAdjust="spacing" textLength="142" x="496" y="733.8467">AuthenticationRoute</text><line style="stroke:#181818;stroke-width:0.5;" x1="468" x2="640" y1="745" y2="745"/><line style="stroke:#181818;stroke-width:0.5;" x1="468" x2="640" y1="753" y2="753"/><ellipse cx="478" cy="766.6484" fill="#84BE84" rx="3" ry="3" style="stroke:#038048;stroke-width:1.0;"/><text fill="#000000" font-family="sans-serif" font-size="14" lengthAdjust="spacing" textLength="109" x="487" y="769.9951">createSession()</text><ellipse cx="478" cy="782.9453" fill="#84BE84" rx="3" ry="3" style="stroke:#038048;stroke-width:1.0;"/><text fill="#000000" font-family="sans-serif" font-size="14" lengthAdjust="spacing" textLength="114" x="487" y="786.292">updateSession()</text><ellipse cx="478" cy="799.2422" fill="#84BE84" rx="3" ry="3" style="stroke:#038048;stroke-width:1.0;"/><text fill="#000000" font-family="sans-serif" font-size="14" lengthAdjust="spacing" textLength="109" x="487" y="802.5889">deleteSession()</text><ellipse cx="478" cy="815.5391" fill="#84BE84" rx="3" ry="3" style="stroke:#038048;stroke-width:1.0;"/><text fill="#000000" font-family="sans-serif" font-size="14" lengthAdjust="spacing" textLength="86" x="487" y="818.8857">createUser()</text><ellipse cx="478" cy="831.8359" fill="#84BE84" rx="3" ry="3" style="stroke:#038048;stroke-width:1.0;"/><text fill="#000000" font-family="sans-serif" font-size="14" lengthAdjust="spacing" textLength="86" x="487" y="835.1826">deleteUser()</text><ellipse cx="478" cy="848.1328" fill="#84BE84" rx="3" ry="3" style="stroke:#038048;stroke-width:1.0;"/><text fill="#000000" font-family="sans-serif" font-size="14" lengthAdjust="spacing" textLength="111" x="487" y="851.4795">createAccount()</text><ellipse cx="478" cy="864.4297" fill="#84BE84" rx="3" ry="3" style="stroke:#038048;stroke-width:1.0;"/><text fill="#000000" font-family="sans-serif" font-size="14" lengthAdjust="spacing" textLength="111" x="487" y="867.7764">deleteAccount()</text><ellipse cx="478" cy="880.7266" fill="#84BE84" rx="3" ry="3" style="stroke:#038048;stroke-width:1.0;"/><text fill="#000000" font-family="sans-serif" font-size="14" lengthAdjust="spacing" textLength="108" x="487" y="884.0732">getUserGroup()</text></g><!--class BidsRoute--><g id="elem_BidsRoute"><rect codeLine="88" fill="#F1F1F1" height="145.7813" id="BidsRoute" rx="2.5" ry="2.5" style="stroke:#181818;stroke-width:0.5;" width="150" x="94" y="490"/><ellipse cx="129.7" cy="506" fill="#ADD1B2" rx="11" ry="11" style="stroke:#181818;stroke-width:1.0;"/><path d="M132.6688,511.6406 Q132.0906,511.9375 131.45,512.0781 Q130.8094,512.2344 130.1063,512.2344 Q127.6062,512.2344 126.2781,510.5938 Q124.9656,508.9375 124.9656,505.8125 Q124.9656,502.6875 126.2781,501.0313 Q127.6062,499.375 130.1063,499.375 Q130.8094,499.375 131.45,499.5313 Q132.1063,499.6875 132.6688,499.9844 L132.6688,502.7031 Q132.0438,502.125 131.45,501.8594 Q130.8563,501.5781 130.2313,501.5781 Q128.8875,501.5781 128.2,502.6563 Q127.5125,503.7188 127.5125,505.8125 Q127.5125,507.9063 128.2,508.9844 Q128.8875,510.0469 130.2313,510.0469 Q130.8563,510.0469 131.45,509.7813 Q132.0438,509.5 132.6688,508.9219 L132.6688,511.6406 Z " fill="#000000"/><text fill="#000000" font-family="sans-serif" font-size="14" lengthAdjust="spacing" textLength="72" x="148.3" y="510.8467">BidsRoute</text><line style="stroke:#181818;stroke-width:0.5;" x1="95" x2="243" y1="522" y2="522"/><line style="stroke:#181818;stroke-width:0.5;" x1="95" x2="243" y1="530" y2="530"/><ellipse cx="105" cy="543.6484" fill="#84BE84" rx="3" ry="3" style="stroke:#038048;stroke-width:1.0;"/><text fill="#000000" font-family="sans-serif" font-size="14" lengthAdjust="spacing" textLength="76" x="114" y="546.9951">createBid()</text><ellipse cx="105" cy="559.9453" fill="#84BE84" rx="3" ry="3" style="stroke:#038048;stroke-width:1.0;"/><text fill="#000000" font-family="sans-serif" font-size="14" lengthAdjust="spacing" textLength="81" x="114" y="563.292">updateBid()</text><ellipse cx="105" cy="576.2422" fill="#84BE84" rx="3" ry="3" style="stroke:#038048;stroke-width:1.0;"/><text fill="#000000" font-family="sans-serif" font-size="14" lengthAdjust="spacing" textLength="76" x="114" y="579.5889">deleteBid()</text><ellipse cx="105" cy="592.5391" fill="#84BE84" rx="3" ry="3" style="stroke:#038048;stroke-width:1.0;"/><text fill="#000000" font-family="sans-serif" font-size="14" lengthAdjust="spacing" textLength="124" x="114" y="595.8857">getBidsByListing()</text><ellipse cx="105" cy="608.8359" fill="#84BE84" rx="3" ry="3" style="stroke:#038048;stroke-width:1.0;"/><text fill="#000000" font-family="sans-serif" font-size="14" lengthAdjust="spacing" textLength="84" x="114" y="612.1826">getBidById()</text><ellipse cx="105" cy="625.1328" fill="#84BE84" rx="3" ry="3" style="stroke:#038048;stroke-width:1.0;"/><text fill="#000000" font-family="sans-serif" font-size="14" lengthAdjust="spacing" textLength="124" x="114" y="628.4795">getBidsByUserId()</text></g><!--class LandingPage--><g id="elem_LandingPage"><rect codeLine="109" fill="#F1F1F1" height="48" id="LandingPage" rx="2.5" ry="2.5" style="stroke:#181818;stroke-width:0.5;" width="121" x="382.5" y="7"/><ellipse cx="397.5" cy="23" fill="#B4A7E5" rx="11" ry="11" style="stroke:#181818;stroke-width:1.0;"/><path d="M393.4219,18.7656 L393.4219,16.6094 L400.8125,16.6094 L400.8125,18.7656 L398.3438,18.7656 L398.3438,26.8438 L400.8125,26.8438 L400.8125,29 L393.4219,29 L393.4219,26.8438 L395.8906,26.8438 L395.8906,18.7656 L393.4219,18.7656 Z " fill="#000000"/><text fill="#000000" font-family="sans-serif" font-size="14" font-style="italic" lengthAdjust="spacing" textLength="89" x="411.5" y="27.8467">LandingPage</text><line style="stroke:#181818;stroke-width:0.5;" x1="383.5" x2="502.5" y1="39" y2="39"/><line style="stroke:#181818;stroke-width:0.5;" x1="383.5" x2="502.5" y1="47" y2="47"/></g><!--class AboutPage--><g id="elem_AboutPage"><rect codeLine="110" fill="#F1F1F1" height="48" id="AboutPage" rx="2.5" ry="2.5" style="stroke:#181818;stroke-width:0.5;" width="108" x="496" y="116"/><ellipse cx="511" cy="132" fill="#B4A7E5" rx="11" ry="11" style="stroke:#181818;stroke-width:1.0;"/><path d="M506.9219,127.7656 L506.9219,125.6094 L514.3125,125.6094 L514.3125,127.7656 L511.8438,127.7656 L511.8438,135.8438 L514.3125,135.8438 L514.3125,138 L506.9219,138 L506.9219,135.8438 L509.3906,135.8438 L509.3906,127.7656 L506.9219,127.7656 Z " fill="#000000"/><text fill="#000000" font-family="sans-serif" font-size="14" font-style="italic" lengthAdjust="spacing" textLength="76" x="525" y="136.8467">AboutPage</text><line style="stroke:#181818;stroke-width:0.5;" x1="497" x2="603" y1="148" y2="148"/><line style="stroke:#181818;stroke-width:0.5;" x1="497" x2="603" y1="156" y2="156"/></g><!--class LoginPage--><g id="elem_LoginPage"><rect codeLine="111" fill="#F1F1F1" height="48" id="LoginPage" rx="2.5" ry="2.5" style="stroke:#181818;stroke-width:0.5;" width="104" x="540" y="412"/><ellipse cx="555" cy="428" fill="#B4A7E5" rx="11" ry="11" style="stroke:#181818;stroke-width:1.0;"/><path d="M550.9219,423.7656 L550.9219,421.6094 L558.3125,421.6094 L558.3125,423.7656 L555.8438,423.7656 L555.8438,431.8438 L558.3125,431.8438 L558.3125,434 L550.9219,434 L550.9219,431.8438 L553.3906,431.8438 L553.3906,423.7656 L550.9219,423.7656 Z " fill="#000000"/><text fill="#000000" font-family="sans-serif" font-size="14" font-style="italic" lengthAdjust="spacing" textLength="72" x="569" y="432.8467">LoginPage</text><line style="stroke:#181818;stroke-width:0.5;" x1="541" x2="643" y1="444" y2="444"/><line style="stroke:#181818;stroke-width:0.5;" x1="541" x2="643" y1="452" y2="452"/></g><!--class ListingPage--><g id="elem_ListingPage"><rect codeLine="112" fill="#F1F1F1" height="48" id="ListingPage" rx="2.5" ry="2.5" style="stroke:#181818;stroke-width:0.5;" width="110" x="162" y="225"/><ellipse cx="177" cy="241" fill="#B4A7E5" rx="11" ry="11" style="stroke:#181818;stroke-width:1.0;"/><path d="M172.9219,236.7656 L172.9219,234.6094 L180.3125,234.6094 L180.3125,236.7656 L177.8438,236.7656 L177.8438,244.8438 L180.3125,244.8438 L180.3125,247 L172.9219,247 L172.9219,244.8438 L175.3906,244.8438 L175.3906,236.7656 L172.9219,236.7656 Z " fill="#000000"/><text fill="#000000" font-family="sans-serif" font-size="14" font-style="italic" lengthAdjust="spacing" textLength="78" x="191" y="245.8467">ListingPage</text><line style="stroke:#181818;stroke-width:0.5;" x1="163" x2="271" y1="257" y2="257"/><line style="stroke:#181818;stroke-width:0.5;" x1="163" x2="271" y1="265" y2="265"/></g><!--class CreateListingPage--><g id="elem_CreateListingPage"><rect codeLine="113" fill="#F1F1F1" height="48" id="CreateListingPage" rx="2.5" ry="2.5" style="stroke:#181818;stroke-width:0.5;" width="156" x="277" y="334"/><ellipse cx="292" cy="350" fill="#B4A7E5" rx="11" ry="11" style="stroke:#181818;stroke-width:1.0;"/><path d="M287.9219,345.7656 L287.9219,343.6094 L295.3125,343.6094 L295.3125,345.7656 L292.8438,345.7656 L292.8438,353.8438 L295.3125,353.8438 L295.3125,356 L287.9219,356 L287.9219,353.8438 L290.3906,353.8438 L290.3906,345.7656 L287.9219,345.7656 Z " fill="#000000"/><text fill="#000000" font-family="sans-serif" font-size="14" font-style="italic" lengthAdjust="spacing" textLength="124" x="306" y="354.8467">CreateListingPage</text><line style="stroke:#181818;stroke-width:0.5;" x1="278" x2="432" y1="366" y2="366"/><line style="stroke:#181818;stroke-width:0.5;" x1="278" x2="432" y1="374" y2="374"/></g><!--class UserProfilePage--><g id="elem_UserProfilePage"><rect codeLine="114" fill="#F1F1F1" height="48" id="UserProfilePage" rx="2.5" ry="2.5" style="stroke:#181818;stroke-width:0.5;" width="138" x="649" y="412"/><ellipse cx="664" cy="428" fill="#B4A7E5" rx="11" ry="11" style="stroke:#181818;stroke-width:1.0;"/><path d="M659.9219,423.7656 L659.9219,421.6094 L667.3125,421.6094 L667.3125,423.7656 L664.8438,423.7656 L664.8438,431.8438 L667.3125,431.8438 L667.3125,434 L659.9219,434 L659.9219,431.8438 L662.3906,431.8438 L662.3906,423.7656 L659.9219,423.7656 Z " fill="#000000"/><text fill="#000000" font-family="sans-serif" font-size="14" font-style="italic" lengthAdjust="spacing" textLength="106" x="678" y="432.8467">UserProfilePage</text><line style="stroke:#181818;stroke-width:0.5;" x1="650" x2="786" y1="444" y2="444"/><line style="stroke:#181818;stroke-width:0.5;" x1="650" x2="786" y1="452" y2="452"/></g><!--class AdminPage--><g id="elem_AdminPage"><rect codeLine="115" fill="#F1F1F1" height="48" id="AdminPage" rx="2.5" ry="2.5" style="stroke:#181818;stroke-width:0.5;" width="110" x="468" y="334"/><ellipse cx="483" cy="350" fill="#B4A7E5" rx="11" ry="11" style="stroke:#181818;stroke-width:1.0;"/><path d="M478.9219,345.7656 L478.9219,343.6094 L486.3125,343.6094 L486.3125,345.7656 L483.8438,345.7656 L483.8438,353.8438 L486.3125,353.8438 L486.3125,356 L478.9219,356 L478.9219,353.8438 L481.3906,353.8438 L481.3906,345.7656 L478.9219,345.7656 Z " fill="#000000"/><text fill="#000000" font-family="sans-serif" font-size="14" font-style="italic" lengthAdjust="spacing" textLength="78" x="497" y="354.8467">AdminPage</text><line style="stroke:#181818;stroke-width:0.5;" x1="469" x2="577" y1="366" y2="366"/><line style="stroke:#181818;stroke-width:0.5;" x1="469" x2="577" y1="374" y2="374"/></g><!--class NavigationComponent--><g id="elem_NavigationComponent"><rect codeLine="116" fill="#F1F1F1" height="48" id="NavigationComponent" rx="2.5" ry="2.5" style="stroke:#181818;stroke-width:0.5;" width="187" x="429.5" y="225"/><ellipse cx="444.5" cy="241" fill="#B4A7E5" rx="11" ry="11" style="stroke:#181818;stroke-width:1.0;"/><path d="M440.4219,236.7656 L440.4219,234.6094 L447.8125,234.6094 L447.8125,236.7656 L445.3438,236.7656 L445.3438,244.8438 L447.8125,244.8438 L447.8125,247 L440.4219,247 L440.4219,244.8438 L442.8906,244.8438 L442.8906,236.7656 L440.4219,236.7656 Z " fill="#000000"/><text fill="#000000" font-family="sans-serif" font-size="14" font-style="italic" lengthAdjust="spacing" textLength="155" x="458.5" y="245.8467">NavigationComponent</text><line style="stroke:#181818;stroke-width:0.5;" x1="430.5" x2="615.5" y1="257" y2="257"/><line style="stroke:#181818;stroke-width:0.5;" x1="430.5" x2="615.5" y1="265" y2="265"/></g><!--class ListingsFeedComponent--><g id="elem_ListingsFeedComponent"><rect codeLine="117" fill="#F1F1F1" height="48" id="ListingsFeedComponent" rx="2.5" ry="2.5" style="stroke:#181818;stroke-width:0.5;" width="200" x="117" y="116"/><ellipse cx="132" cy="132" fill="#B4A7E5" rx="11" ry="11" style="stroke:#181818;stroke-width:1.0;"/><path d="M127.9219,127.7656 L127.9219,125.6094 L135.3125,125.6094 L135.3125,127.7656 L132.8438,127.7656 L132.8438,135.8438 L135.3125,135.8438 L135.3125,138 L127.9219,138 L127.9219,135.8438 L130.3906,135.8438 L130.3906,127.7656 L127.9219,127.7656 Z " fill="#000000"/><text fill="#000000" font-family="sans-serif" font-size="14" font-style="italic" lengthAdjust="spacing" textLength="168" x="146" y="136.8467">ListingsFeedComponent</text><line style="stroke:#181818;stroke-width:0.5;" x1="118" x2="316" y1="148" y2="148"/><line style="stroke:#181818;stroke-width:0.5;" x1="118" x2="316" y1="156" y2="156"/></g><!--class AddBidComponent--><g id="elem_AddBidComponent"><rect codeLine="118" fill="#F1F1F1" height="48" id="AddBidComponent" rx="2.5" ry="2.5" style="stroke:#181818;stroke-width:0.5;" width="164" x="7" y="334"/><ellipse cx="22" cy="350" fill="#B4A7E5" rx="11" ry="11" style="stroke:#181818;stroke-width:1.0;"/><path d="M17.9219,345.7656 L17.9219,343.6094 L25.3125,343.6094 L25.3125,345.7656 L22.8438,345.7656 L22.8438,353.8438 L25.3125,353.8438 L25.3125,356 L17.9219,356 L17.9219,353.8438 L20.3906,353.8438 L20.3906,345.7656 L17.9219,345.7656 Z " fill="#000000"/><text fill="#000000" font-family="sans-serif" font-size="14" font-style="italic" lengthAdjust="spacing" textLength="132" x="36" y="354.8467">AddBidComponent</text><line style="stroke:#181818;stroke-width:0.5;" x1="8" x2="170" y1="366" y2="366"/><line style="stroke:#181818;stroke-width:0.5;" x1="8" x2="170" y1="374" y2="374"/></g><!--link UserGroupType to UserGroup--><g id="link_UserGroupType_UserGroup"><path codeLine="61" d="M738.15,1073.14 C722.07,1104.74 696.96,1154.08 678.35,1190.65 " fill="none" id="UserGroupType-UserGroup" style="stroke:#181818;stroke-width:1.0;"/><text fill="#000000" font-family="sans-serif" font-size="13" lengthAdjust="spacing" textLength="25" x="702" y="1157.0669">Has</text><text fill="#000000" font-family="sans-serif" font-size="13" lengthAdjust="spacing" textLength="8" x="726.0559" y="1093.3657">1</text><text fill="#000000" font-family="sans-serif" font-size="13" lengthAdjust="spacing" textLength="8" x="673.2117" y="1179.8097">1</text></g><!--link User to UserGroup--><g id="link_User_UserGroup"><path codeLine="64" d="M590.67,1114.05 C603.71,1139.68 618.06,1167.88 629.8,1190.94 " fill="none" id="User-UserGroup" style="stroke:#181818;stroke-width:1.0;"/><text fill="#000000" font-family="sans-serif" font-size="13" lengthAdjust="spacing" textLength="68" x="613" y="1157.0669">Belongs to</text><text fill="#000000" font-family="sans-serif" font-size="13" lengthAdjust="spacing" textLength="8" x="585.7839" y="1133.8111">1</text><text fill="#000000" font-family="sans-serif" font-size="13" lengthAdjust="spacing" textLength="23" x="601.5566" y="1179.7909">0..*</text></g><!--link AuthenticationRoute to User--><g id="link_AuthenticationRoute_User"><path codeLine="99" d="M554,891.25 C554,916.52 554,943.75 554,967.93 " fill="none" id="AuthenticationRoute-User" style="stroke:#181818;stroke-width:1.0;"/><text fill="#000000" font-family="sans-serif" font-size="13" lengthAdjust="spacing" textLength="37" x="555" y="934.0669">CRUD</text><text fill="#000000" font-family="sans-serif" font-size="13" lengthAdjust="spacing" textLength="8" x="545.6688" y="911.319">1</text><text fill="#000000" font-family="sans-serif" font-size="13" lengthAdjust="spacing" textLength="23" x="529.8141" y="956.7062">0..*</text></g><!--link ListingsRoute to Listing--><g id="link_ListingsRoute_Listing"><path codeLine="102" d="M356.25,636.08 C355.32,646.12 354.52,656.31 354,666 C353.05,683.67 352.83,702.66 353,720.66 " fill="none" id="ListingsRoute-Listing" style="stroke:#181818;stroke-width:1.0;"/><text fill="#000000" font-family="sans-serif" font-size="13" lengthAdjust="spacing" textLength="37" x="355" y="679.0669">CRUD</text><text fill="#000000" font-family="sans-serif" font-size="13" lengthAdjust="spacing" textLength="8" x="347.0348" y="655.8439">1</text><text fill="#000000" font-family="sans-serif" font-size="13" lengthAdjust="spacing" textLength="23" x="328.7086" y="709.817">0..*</text></g><!--link ListingsRoute to AuthenticationRoute--><g id="link_ListingsRoute_AuthenticationRoute"><path codeLine="103" d="M414.85,636.3 C426.12,651.92 438.23,668.19 450,683 C457.81,692.84 466.18,702.95 474.64,712.92 " fill="none" id="ListingsRoute-AuthenticationRoute" style="stroke:#181818;stroke-width:1.0;"/><text fill="#000000" font-family="sans-serif" font-size="13" lengthAdjust="spacing" textLength="39" x="451" y="679.0669">Reads</text><text fill="#000000" font-family="sans-serif" font-size="13" lengthAdjust="spacing" textLength="8" x="411.0768" y="655.8318">1</text><text fill="#000000" font-family="sans-serif" font-size="13" lengthAdjust="spacing" textLength="8" x="459.7368" y="701.9788">1</text></g><!--link BidsRoute to Bid--><g id="link_BidsRoute_Bid"><path codeLine="105" d="M169,636.07 C169,671.21 169,712.81 169,745.44 " fill="none" id="BidsRoute-Bid" style="stroke:#181818;stroke-width:1.0;"/><text fill="#000000" font-family="sans-serif" font-size="13" lengthAdjust="spacing" textLength="37" x="170" y="679.0669">CRUD</text><text fill="#000000" font-family="sans-serif" font-size="13" lengthAdjust="spacing" textLength="8" x="160.6188" y="655.833">1</text><text fill="#000000" font-family="sans-serif" font-size="13" lengthAdjust="spacing" textLength="23" x="144.5266" y="734.2957">0..*</text></g><!--link BidsRoute to AuthenticationRoute--><g id="link_BidsRoute_AuthenticationRoute"><path codeLine="106" d="M237.07,636.18 C257.1,653.85 280.09,671.08 304,683 C363.28,712.56 390.42,684.04 450,713 C455.64,715.74 461.22,718.86 466.7,722.24 " fill="none" id="BidsRoute-AuthenticationRoute" style="stroke:#181818;stroke-width:1.0;"/><text fill="#000000" font-family="sans-serif" font-size="13" lengthAdjust="spacing" textLength="39" x="305" y="679.0669">Reads</text><text fill="#000000" font-family="sans-serif" font-size="13" lengthAdjust="spacing" textLength="8" x="235.1767" y="655.9535">1</text><text fill="#000000" font-family="sans-serif" font-size="13" lengthAdjust="spacing" textLength="8" x="451.1392" y="712.0706">1</text></g><!--reverse link LandingPage to AboutPage--><g id="link_LandingPage_AboutPage"><path codeLine="122" d="M470.4626,59.4626 C488.4026,77.4026 508.89,97.89 526.83,115.83 " fill="none" id="LandingPage-backto-AboutPage" style="stroke:#181818;stroke-width:1.0;stroke-dasharray:7.0,7.0;"/><polygon fill="#181818" points="466.22,55.22,469.7555,64.4124,469.7555,58.7555,475.4124,58.7555,466.22,55.22" style="stroke:#181818;stroke-width:1.0;"/></g><!--reverse link LandingPage to NavigationComponent--><g id="link_LandingPage_NavigationComponent"><path codeLine="123" d="M449.0442,61.2431 C454.8642,88.0231 464.49,127.08 479,164 C487.37,185.3 499.62,208.23 509.07,224.75 " fill="none" id="LandingPage-backto-NavigationComponent" style="stroke:#181818;stroke-width:1.0;stroke-dasharray:7.0,7.0;"/><polygon fill="#181818" points="447.77,55.38,445.7726,65.0242,448.8318,60.2659,453.5901,63.3252,447.77,55.38" style="stroke:#181818;stroke-width:1.0;"/></g><!--reverse link LandingPage to ListingsFeedComponent--><g id="link_LandingPage_ListingsFeedComponent"><path codeLine="124" d="M388.8171,57.6574 C350.7971,75.6574 303.67,97.97 265.67,115.96 " fill="none" id="LandingPage-backto-ListingsFeedComponent" style="stroke:#181818;stroke-width:1.0;stroke-dasharray:7.0,7.0;"/><polygon fill="#181818" points="394.24,55.09,384.394,55.3258,389.7209,57.2295,387.8172,62.5564,394.24,55.09" style="stroke:#181818;stroke-width:1.0;"/></g><!--reverse link NavigationComponent to LoginPage--><g id="link_NavigationComponent_LoginPage"><path codeLine="126" d="M555.8922,277.3076 C572.3322,292.6076 587.07,310.11 596,334 C605.46,359.31 602.09,390.72 597.91,411.73 " fill="none" id="NavigationComponent-backto-LoginPage" style="stroke:#181818;stroke-width:1.0;stroke-dasharray:7.0,7.0;"/><polygon fill="#181818" points="551.5,273.22,555.3632,282.2796,555.1602,276.6264,560.8134,276.4233,551.5,273.22" style="stroke:#181818;stroke-width:1.0;"/></g><!--reverse link NavigationComponent to CreateListingPage--><g id="link_NavigationComponent_CreateListingPage"><path codeLine="127" d="M481.4886,276.4422 C453.3086,294.3822 419.54,315.89 391.38,333.83 " fill="none" id="NavigationComponent-backto-CreateListingPage" style="stroke:#181818;stroke-width:1.0;stroke-dasharray:7.0,7.0;"/><polygon fill="#181818" points="486.55,273.22,476.8098,274.679,482.3322,275.9052,481.1061,281.4275,486.55,273.22" style="stroke:#181818;stroke-width:1.0;"/></g><!--reverse link NavigationComponent to UserProfilePage--><g id="link_NavigationComponent_UserProfilePage"><path codeLine="128" d="M568.9413,276.3407 C582.6213,284.9307 592.49,292.07 605,303 C643.61,336.75 680.77,383.88 701.38,411.75 " fill="none" id="NavigationComponent-backto-UserProfilePage" style="stroke:#181818;stroke-width:1.0;stroke-dasharray:7.0,7.0;"/><polygon fill="#181818" points="563.86,273.15,569.3548,281.3235,568.0944,275.8089,573.6091,274.5485,563.86,273.15" style="stroke:#181818;stroke-width:1.0;"/></g><!--reverse link NavigationComponent to AdminPage--><g id="link_NavigationComponent_AdminPage"><path codeLine="129" d="M523,279.22 C523,297.16 523,315.89 523,333.83 " fill="none" id="NavigationComponent-backto-AdminPage" style="stroke:#181818;stroke-width:1.0;stroke-dasharray:7.0,7.0;"/><polygon fill="#181818" points="523,273.22,519,282.22,523,278.22,527,282.22,523,273.22" style="stroke:#181818;stroke-width:1.0;"/></g><!--reverse link ListingsFeedComponent to AddBidComponent--><g id="link_ListingsFeedComponent_AddBidComponent"><path codeLine="131" d="M189.647,168.4295 C174.377,184.4995 158.86,202.63 145,225 C122.97,260.55 105.73,306.29 96.49,333.53 " fill="none" id="ListingsFeedComponent-backto-AddBidComponent" style="stroke:#181818;stroke-width:1.0;stroke-dasharray:7.0,7.0;"/><polygon fill="#181818" points="193.78,164.08,184.6808,167.849,190.3358,167.7046,190.4802,173.3596,193.78,164.08" style="stroke:#181818;stroke-width:1.0;"/></g><!--reverse link ListingsFeedComponent to ListingPage--><g id="link_ListingsFeedComponent_ListingPage"><path codeLine="132" d="M217,170.22 C217,188.16 217,206.89 217,224.83 " fill="none" id="ListingsFeedComponent-backto-ListingPage" style="stroke:#181818;stroke-width:1.0;stroke-dasharray:7.0,7.0;"/><polygon fill="#181818" points="217,164.22,213,173.22,217,169.22,221,173.22,217,164.22" style="stroke:#181818;stroke-width:1.0;"/></g><!--reverse link ListingPage to AddBidComponent--><g id="link_ListingPage_AddBidComponent"><path codeLine="134" d="M184.6258,277.0672 C163.1558,295.0072 138.18,315.89 116.72,333.83 " fill="none" id="ListingPage-backto-AddBidComponent" style="stroke:#181818;stroke-width:1.0;stroke-dasharray:7.0,7.0;"/><polygon fill="#181818" points="189.23,273.22,179.7588,275.9213,185.3931,276.426,184.8885,282.0603,189.23,273.22" style="stroke:#181818;stroke-width:1.0;"/></g><!--reverse link LoginPage to AuthenticationRoute--><g id="link_LoginPage_AuthenticationRoute"><path codeLine="137" d="M588.9679,466.0177 C583.7879,515.7077 571.93,629.23 563.22,712.65 " fill="none" id="LoginPage-backto-AuthenticationRoute" style="stroke:#181818;stroke-width:1.0;stroke-dasharray:7.0,7.0;"/><polygon fill="#181818" points="589.59,460.05,584.6784,468.5868,589.0716,465.0231,592.6353,469.4162,589.59,460.05" style="stroke:#181818;stroke-width:1.0;"/></g><!--reverse link ListingPage to ListingsRoute--><g id="link_ListingPage_ListingsRoute"><path codeLine="138" d="M224.5726,279.2429 C231.8126,306.0829 243.53,345.27 260,382 C276.5,418.81 298.55,457.7 318.18,489.88 " fill="none" id="ListingPage-backto-ListingsRoute" style="stroke:#181818;stroke-width:1.0;stroke-dasharray:7.0,7.0;"/><polygon fill="#181818" points="223.01,273.45,221.492,283.1812,224.3122,278.2775,229.2159,281.0977,223.01,273.45" style="stroke:#181818;stroke-width:1.0;"/></g><!--reverse link CreateListingPage to ListingsRoute--><g id="link_CreateListingPage_ListingsRoute"><path codeLine="139" d="M356.4435,388.2828 C357.7235,414.4228 359.59,452.13 361.45,489.89 " fill="none" id="CreateListingPage-backto-ListingsRoute" style="stroke:#181818;stroke-width:1.0;stroke-dasharray:7.0,7.0;"/><polygon fill="#181818" points="356.15,382.29,352.595,391.4749,356.3945,387.284,360.5854,391.0836,356.15,382.29" style="stroke:#181818;stroke-width:1.0;"/></g><!--reverse link UserProfilePage to AuthenticationRoute--><g id="link_UserProfilePage_AuthenticationRoute"><path codeLine="140" d="M705.1551,465.5203 C682.7651,515.2103 631.39,629.23 593.81,712.65 " fill="none" id="UserProfilePage-backto-AuthenticationRoute" style="stroke:#181818;stroke-width:1.0;stroke-dasharray:7.0,7.0;"/><polygon fill="#181818" points="707.62,460.05,700.2758,466.6122,705.5659,464.6086,707.5695,469.8987,707.62,460.05" style="stroke:#181818;stroke-width:1.0;"/></g><!--reverse link AdminPage to AuthenticationRoute--><g id="link_AdminPage_AuthenticationRoute"><path codeLine="141" d="M525.0403,388.1253 C529.3003,448.7853 540.53,608.88 547.81,712.77 " fill="none" id="AdminPage-backto-AuthenticationRoute" style="stroke:#181818;stroke-width:1.0;stroke-dasharray:7.0,7.0;"/><polygon fill="#181818" points="524.62,382.14,521.2603,391.3981,524.9703,387.1277,529.2407,390.8377,524.62,382.14" style="stroke:#181818;stroke-width:1.0;"/></g><!--reverse link AdminPage to ListingsRoute--><g id="link_AdminPage_ListingsRoute"><path codeLine="142" d="M501.1942,387.0245 C480.8442,413.1645 450.52,452.13 421.13,489.89 " fill="none" id="AdminPage-backto-ListingsRoute" style="stroke:#181818;stroke-width:1.0;stroke-dasharray:7.0,7.0;"/><polygon fill="#181818" points="504.88,382.29,496.195,386.9345,501.8085,386.2354,502.5076,391.8489,504.88,382.29" style="stroke:#181818;stroke-width:1.0;"/></g><!--reverse link AdminPage to BidsRoute--><g id="link_AdminPage_BidsRoute"><path codeLine="143" d="M464.1551,384.5547 C410.2251,408.7347 330.75,446.71 262,490 C256.04,493.75 250,497.8 244,502 " fill="none" id="AdminPage-backto-BidsRoute" style="stroke:#181818;stroke-width:1.0;stroke-dasharray:7.0,7.0;"/><polygon fill="#181818" points="469.63,382.1,459.7812,382.1321,465.0676,384.1456,463.0541,389.432,469.63,382.1" style="stroke:#181818;stroke-width:1.0;"/></g><!--reverse link AddBidComponent to BidsRoute--><g id="link_AddBidComponent_BidsRoute"><path codeLine="144" d="M100.3796,387.8723 C110.6796,414.0123 125.7,452.13 140.58,489.89 " fill="none" id="AddBidComponent-backto-BidsRoute" style="stroke:#181818;stroke-width:1.0;stroke-dasharray:7.0,7.0;"/><polygon fill="#181818" points="98.18,382.29,97.7579,392.1298,100.013,386.9419,105.2009,389.197,98.18,382.29" style="stroke:#181818;stroke-width:1.0;"/></g><!--SRC=[ZLLDRniX5BppAr0kRXibQgvMBtQYj9RIACf7BrLb4NYsKTUm0ZQfLVM_zotihe5bbUGGcs6ODmmFFAEyOjRI1UUwKOx-9JDAwQaKS_hWZ5JRC6uic5M6kKCDAL8R_I85c3BQbSXb36mCsDtQwT-WqYd6ELXRce4_jSHLQ-RcTALSPwZbhSUsBDSv94L9rM8rgTNQEkRY1Vy8_WivFGJAL4wTmkDOkvHWjuivlS9wZt8FeLQez8GBi4nQ14UAxI4Umvx9QWJy02Ct4aIatIhjsJPPtBhwQdHJhuJjyP-_o63YHbg7KCc7awvAj0HORcJjSFynN1l9aNTTQUOcFUJ9j2VGs6HNewm6aqifIWRpmbaTHAgmkmZyHq0rUv-zZ-KHcybhBww-hsv9SZYUK2hS5aAZBGUp76vA8afyJw6KvfAraLdw3EuLG55G6Aq4Ir8N9nSdzEpCVnohp-atPb78DqlF-7n-_kbawDGvlT5RIwNAQHUUrb_ye5JGYOijeT8AnPmc96iHUwyR5x8wvGRmaBg93nzz9hN88G4LPD0MN2-N0yl3Ien8oyEJFrIS68vcqRXT6o7tiOvSTR74hX8ek4gWiB2j55EEup3V1HbJ4WXj3r76Vh5xnzaX63iSXa5t6A9cktnvo5D4D0aiiEAm9fhFj4uiPKeS-t1Mp7Igsoxldwx8smjyftNiznGuzgbVGjAsIxdzgzLnorJyA5MTqtjWmX9oF9TKl7rjEk4nvIrH8fK3is4Sw0rcZAxky3MCqCKpBiWmlBzIvLZOKuPUnXSlcsi3lpDw8ol8QuhzIF-MlSYjty6btjTQuOx6rUqrW2ZDBuJ0R8upRRi9g449KFn0juRLEwetjCQYeTbupxKa2eP-EJ-F8ibdIYPpJjagAImDz27hASOuuobcdlWKxvW_ARhjI6caqypO6ea6HPaPnMwrG9c1zbj__zsEEJykdP0dSwqKS0UY_J7eLJhGloXoJnjb6wJYGU_qA_AeWHf_mxtzFkVWQdndHiwJMqn6fr3WPFbFLXhoVoSZhPBE3Ky2oPBEPl7lFm00]--></g></svg>