<?xml version="1.0" encoding="us-ascii" standalone="no"?><svg xmlns="http://www.w3.org/2000/svg" xmlns:xlink="http://www.w3.org/1999/xlink" contentStyleType="text/css" height="1316px" preserveAspectRatio="none" style="width:914px;height:1316px;background:#FFFFFF;" version="1.1" viewBox="0 0 914 1316" width="914px" zoomAndPan="magnify"><defs/><g><!--class Account--><g id="elem_Account"><rect codeLine="2" fill="#F1F1F1" height="243.5625" id="Account" rx="2.5" ry="2.5" style="stroke:#181818;stroke-width:0.5;" width="200" x="182" y="1066"/><ellipse cx="249.25" cy="1082" fill="#ADD1B2" rx="11" ry="11" style="stroke:#181818;stroke-width:1.0;"/><path d="M252.2188,1087.6406 Q251.6406,1087.9375 251,1088.0781 Q250.3594,1088.2344 249.6563,1088.2344 Q247.1563,1088.2344 245.8281,1086.5938 Q244.5156,1084.9375 244.5156,1081.8125 Q244.5156,1078.6875 245.8281,1077.0313 Q247.1563,1075.375 249.6563,1075.375 Q250.3594,1075.375 251,1075.5313 Q251.6563,1075.6875 252.2188,1075.9844 L252.2188,1078.7031 Q251.5938,1078.125 251,1077.8594 Q250.4063,1077.5781 249.7813,1077.5781 Q248.4375,1077.5781 247.75,1078.6563 Q247.0625,1079.7188 247.0625,1081.8125 Q247.0625,1083.9063 247.75,1084.9844 Q248.4375,1086.0469 249.7813,1086.0469 Q250.4063,1086.0469 251,1085.7813 Q251.5938,1085.5 252.2188,1084.9219 L252.2188,1087.6406 Z " fill="#000000"/><text fill="#000000" font-family="sans-serif" font-size="14" lengthAdjust="spacing" textLength="57" x="269.75" y="1086.8467">Account</text><line style="stroke:#181818;stroke-width:0.5;" x1="183" x2="381" y1="1098" y2="1098"/><ellipse cx="193" cy="1111.6484" fill="none" rx="3" ry="3" style="stroke:#038048;stroke-width:1.0;"/><text fill="#000000" font-family="sans-serif" font-size="14" lengthAdjust="spacing" textLength="61" x="202" y="1114.9951">id: String</text><ellipse cx="193" cy="1127.9453" fill="none" rx="3" ry="3" style="stroke:#038048;stroke-width:1.0;"/><text fill="#000000" font-family="sans-serif" font-size="14" lengthAdjust="spacing" textLength="92" x="202" y="1131.292">userId: String</text><ellipse cx="193" cy="1144.2422" fill="none" rx="3" ry="3" style="stroke:#038048;stroke-width:1.0;"/><text fill="#000000" font-family="sans-serif" font-size="14" lengthAdjust="spacing" textLength="79" x="202" y="1147.5889">type: String</text><ellipse cx="193" cy="1160.5391" fill="none" rx="3" ry="3" style="stroke:#038048;stroke-width:1.0;"/><text fill="#000000" font-family="sans-serif" font-size="14" lengthAdjust="spacing" textLength="105" x="202" y="1163.8857">provider: String</text><ellipse cx="193" cy="1176.8359" fill="none" rx="3" ry="3" style="stroke:#038048;stroke-width:1.0;"/><text fill="#000000" font-family="sans-serif" font-size="14" lengthAdjust="spacing" textLength="174" x="202" y="1180.1826">providerAccountId: String</text><ellipse cx="193" cy="1193.1328" fill="none" rx="3" ry="3" style="stroke:#038048;stroke-width:1.0;"/><text fill="#000000" font-family="sans-serif" font-size="14" lengthAdjust="spacing" textLength="145" x="202" y="1196.4795">refresh_token: String</text><ellipse cx="193" cy="1209.4297" fill="none" rx="3" ry="3" style="stroke:#038048;stroke-width:1.0;"/><text fill="#000000" font-family="sans-serif" font-size="14" lengthAdjust="spacing" textLength="145" x="202" y="1212.7764">access_token: String</text><ellipse cx="193" cy="1225.7266" fill="none" rx="3" ry="3" style="stroke:#038048;stroke-width:1.0;"/><text fill="#000000" font-family="sans-serif" font-size="14" lengthAdjust="spacing" textLength="96" x="202" y="1229.0732">expires_at: Int</text><ellipse cx="193" cy="1242.0234" fill="none" rx="3" ry="3" style="stroke:#038048;stroke-width:1.0;"/><text fill="#000000" font-family="sans-serif" font-size="14" lengthAdjust="spacing" textLength="126" x="202" y="1245.3701">token_type: String</text><ellipse cx="193" cy="1258.3203" fill="none" rx="3" ry="3" style="stroke:#038048;stroke-width:1.0;"/><text fill="#000000" font-family="sans-serif" font-size="14" lengthAdjust="spacing" textLength="92" x="202" y="1261.667">scope: String</text><ellipse cx="193" cy="1274.6172" fill="none" rx="3" ry="3" style="stroke:#038048;stroke-width:1.0;"/><text fill="#000000" font-family="sans-serif" font-size="14" lengthAdjust="spacing" textLength="108" x="202" y="1277.9639">id_token: String</text><ellipse cx="193" cy="1290.9141" fill="none" rx="3" ry="3" style="stroke:#038048;stroke-width:1.0;"/><text fill="#000000" font-family="sans-serif" font-size="14" lengthAdjust="spacing" textLength="145" x="202" y="1294.2607">session_state: String</text><line style="stroke:#181818;stroke-width:0.5;" x1="183" x2="381" y1="1301.5625" y2="1301.5625"/></g><!--class Session--><g id="elem_Session"><rect codeLine="17" fill="#F1F1F1" height="113.1875" id="Session" rx="2.5" ry="2.5" style="stroke:#181818;stroke-width:0.5;" width="173" x="441.5" y="1131.5"/><ellipse cx="496.25" cy="1147.5" fill="#ADD1B2" rx="11" ry="11" style="stroke:#181818;stroke-width:1.0;"/><path d="M499.2188,1153.1406 Q498.6406,1153.4375 498,1153.5781 Q497.3594,1153.7344 496.6563,1153.7344 Q494.1563,1153.7344 492.8281,1152.0938 Q491.5156,1150.4375 491.5156,1147.3125 Q491.5156,1144.1875 492.8281,1142.5313 Q494.1563,1140.875 496.6563,1140.875 Q497.3594,1140.875 498,1141.0313 Q498.6563,1141.1875 499.2188,1141.4844 L499.2188,1144.2031 Q498.5938,1143.625 498,1143.3594 Q497.4063,1143.0781 496.7813,1143.0781 Q495.4375,1143.0781 494.75,1144.1563 Q494.0625,1145.2188 494.0625,1147.3125 Q494.0625,1149.4063 494.75,1150.4844 Q495.4375,1151.5469 496.7813,1151.5469 Q497.4063,1151.5469 498,1151.2813 Q498.5938,1151 499.2188,1150.4219 L499.2188,1153.1406 Z " fill="#000000"/><text fill="#000000" font-family="sans-serif" font-size="14" lengthAdjust="spacing" textLength="55" x="516.75" y="1152.3467">Session</text><line style="stroke:#181818;stroke-width:0.5;" x1="442.5" x2="613.5" y1="1163.5" y2="1163.5"/><ellipse cx="452.5" cy="1177.1484" fill="none" rx="3" ry="3" style="stroke:#038048;stroke-width:1.0;"/><text fill="#000000" font-family="sans-serif" font-size="14" lengthAdjust="spacing" textLength="61" x="461.5" y="1180.4951">id: String</text><ellipse cx="452.5" cy="1193.4453" fill="none" rx="3" ry="3" style="stroke:#038048;stroke-width:1.0;"/><text fill="#000000" font-family="sans-serif" font-size="14" lengthAdjust="spacing" textLength="147" x="461.5" y="1196.792">sessionToken: String</text><ellipse cx="452.5" cy="1209.7422" fill="none" rx="3" ry="3" style="stroke:#038048;stroke-width:1.0;"/><text fill="#000000" font-family="sans-serif" font-size="14" lengthAdjust="spacing" textLength="92" x="461.5" y="1213.0889">userId: String</text><ellipse cx="452.5" cy="1226.0391" fill="none" rx="3" ry="3" style="stroke:#038048;stroke-width:1.0;"/><text fill="#000000" font-family="sans-serif" font-size="14" lengthAdjust="spacing" textLength="126" x="461.5" y="1229.3857">expires: DateTime</text><line style="stroke:#181818;stroke-width:0.5;" x1="442.5" x2="613.5" y1="1236.6875" y2="1236.6875"/></g><!--class User--><g id="elem_User"><rect codeLine="24" fill="#F1F1F1" height="145.7813" id="User" rx="2.5" ry="2.5" style="stroke:#181818;stroke-width:0.5;" width="189" x="350.5" y="859"/><ellipse cx="424.75" cy="875" fill="#ADD1B2" rx="11" ry="11" style="stroke:#181818;stroke-width:1.0;"/><path d="M427.7188,880.6406 Q427.1406,880.9375 426.5,881.0781 Q425.8594,881.2344 425.1563,881.2344 Q422.6563,881.2344 421.3281,879.5938 Q420.0156,877.9375 420.0156,874.8125 Q420.0156,871.6875 421.3281,870.0313 Q422.6563,868.375 425.1563,868.375 Q425.8594,868.375 426.5,868.5313 Q427.1563,868.6875 427.7188,868.9844 L427.7188,871.7031 Q427.0938,871.125 426.5,870.8594 Q425.9063,870.5781 425.2813,870.5781 Q423.9375,870.5781 423.25,871.6563 Q422.5625,872.7188 422.5625,874.8125 Q422.5625,876.9063 423.25,877.9844 Q423.9375,879.0469 425.2813,879.0469 Q425.9063,879.0469 426.5,878.7813 Q427.0938,878.5 427.7188,877.9219 L427.7188,880.6406 Z " fill="#000000"/><text fill="#000000" font-family="sans-serif" font-size="14" lengthAdjust="spacing" textLength="32" x="445.25" y="879.8467">User</text><line style="stroke:#181818;stroke-width:0.5;" x1="351.5" x2="538.5" y1="891" y2="891"/><ellipse cx="361.5" cy="904.6484" fill="none" rx="3" ry="3" style="stroke:#038048;stroke-width:1.0;"/><text fill="#000000" font-family="sans-serif" font-size="14" lengthAdjust="spacing" textLength="61" x="370.5" y="907.9951">id: String</text><ellipse cx="361.5" cy="920.9453" fill="none" rx="3" ry="3" style="stroke:#038048;stroke-width:1.0;"/><text fill="#000000" font-family="sans-serif" font-size="14" lengthAdjust="spacing" textLength="88" x="370.5" y="924.292">name: String</text><ellipse cx="361.5" cy="937.2422" fill="none" rx="3" ry="3" style="stroke:#038048;stroke-width:1.0;"/><text fill="#000000" font-family="sans-serif" font-size="14" lengthAdjust="spacing" textLength="85" x="370.5" y="940.5889">email: String</text><ellipse cx="361.5" cy="953.5391" fill="none" rx="3" ry="3" style="stroke:#038048;stroke-width:1.0;"/><text fill="#000000" font-family="sans-serif" font-size="14" lengthAdjust="spacing" textLength="163" x="370.5" y="956.8857">emailVerified: DateTime</text><ellipse cx="361.5" cy="969.8359" fill="none" rx="3" ry="3" style="stroke:#038048;stroke-width:1.0;"/><text fill="#000000" font-family="sans-serif" font-size="14" lengthAdjust="spacing" textLength="91" x="370.5" y="973.1826">image: String</text><ellipse cx="361.5" cy="986.1328" fill="none" rx="3" ry="3" style="stroke:#038048;stroke-width:1.0;"/><text fill="#000000" font-family="sans-serif" font-size="14" lengthAdjust="spacing" textLength="153" x="370.5" y="989.4795">userGroupIds: String[]</text><line style="stroke:#181818;stroke-width:0.5;" x1="351.5" x2="538.5" y1="996.7813" y2="996.7813"/></g><!--class Listing--><g id="elem_Listing"><rect codeLine="33" fill="#F1F1F1" height="178.375" id="Listing" rx="2.5" ry="2.5" style="stroke:#181818;stroke-width:0.5;" width="152" x="637" y="604"/><ellipse cx="686.75" cy="620" fill="#ADD1B2" rx="11" ry="11" style="stroke:#181818;stroke-width:1.0;"/><path d="M689.7188,625.6406 Q689.1406,625.9375 688.5,626.0781 Q687.8594,626.2344 687.1563,626.2344 Q684.6563,626.2344 683.3281,624.5938 Q682.0156,622.9375 682.0156,619.8125 Q682.0156,616.6875 683.3281,615.0313 Q684.6563,613.375 687.1563,613.375 Q687.8594,613.375 688.5,613.5313 Q689.1563,613.6875 689.7188,613.9844 L689.7188,616.7031 Q689.0938,616.125 688.5,615.8594 Q687.9063,615.5781 687.2813,615.5781 Q685.9375,615.5781 685.25,616.6563 Q684.5625,617.7188 684.5625,619.8125 Q684.5625,621.9063 685.25,622.9844 Q685.9375,624.0469 687.2813,624.0469 Q687.9063,624.0469 688.5,623.7813 Q689.0938,623.5 689.7188,622.9219 L689.7188,625.6406 Z " fill="#000000"/><text fill="#000000" font-family="sans-serif" font-size="14" lengthAdjust="spacing" textLength="44" x="707.25" y="624.8467">Listing</text><line style="stroke:#181818;stroke-width:0.5;" x1="638" x2="788" y1="636" y2="636"/><ellipse cx="648" cy="649.6484" fill="none" rx="3" ry="3" style="stroke:#038048;stroke-width:1.0;"/><text fill="#000000" font-family="sans-serif" font-size="14" lengthAdjust="spacing" textLength="61" x="657" y="652.9951">id: String</text><ellipse cx="648" cy="665.9453" fill="none" rx="3" ry="3" style="stroke:#038048;stroke-width:1.0;"/><text fill="#000000" font-family="sans-serif" font-size="14" lengthAdjust="spacing" textLength="74" x="657" y="669.292">title: String</text><ellipse cx="648" cy="682.2422" fill="none" rx="3" ry="3" style="stroke:#038048;stroke-width:1.0;"/><text fill="#000000" font-family="sans-serif" font-size="14" lengthAdjust="spacing" textLength="126" x="657" y="685.5889">description: String</text><ellipse cx="648" cy="698.5391" fill="none" rx="3" ry="3" style="stroke:#038048;stroke-width:1.0;"/><text fill="#000000" font-family="sans-serif" font-size="14" lengthAdjust="spacing" textLength="76" x="657" y="701.8857">price: Float</text><ellipse cx="648" cy="714.8359" fill="none" rx="3" ry="3" style="stroke:#038048;stroke-width:1.0;"/><text fill="#000000" font-family="sans-serif" font-size="14" lengthAdjust="spacing" textLength="91" x="657" y="718.1826">image: String</text><ellipse cx="648" cy="731.1328" fill="none" rx="3" ry="3" style="stroke:#038048;stroke-width:1.0;"/><text fill="#000000" font-family="sans-serif" font-size="14" lengthAdjust="spacing" textLength="92" x="657" y="734.4795">userId: String</text><ellipse cx="648" cy="747.4297" fill="none" rx="3" ry="3" style="stroke:#038048;stroke-width:1.0;"/><text fill="#000000" font-family="sans-serif" font-size="14" lengthAdjust="spacing" textLength="92" x="657" y="750.7764">status: String</text><ellipse cx="648" cy="763.7266" fill="none" rx="3" ry="3" style="stroke:#038048;stroke-width:1.0;"/><text fill="#000000" font-family="sans-serif" font-size="14" lengthAdjust="spacing" textLength="126" x="657" y="767.0732">expires: DateTime</text><line style="stroke:#181818;stroke-width:0.5;" x1="638" x2="788" y1="774.375" y2="774.375"/></g><!--class Bid--><g id="elem_Bid"><rect codeLine="44" fill="#F1F1F1" height="113.1875" id="Bid" rx="2.5" ry="2.5" style="stroke:#181818;stroke-width:0.5;" width="127" x="99.5" y="636.5"/><ellipse cx="147.75" cy="652.5" fill="#ADD1B2" rx="11" ry="11" style="stroke:#181818;stroke-width:1.0;"/><path d="M150.7188,658.1406 Q150.1406,658.4375 149.5,658.5781 Q148.8594,658.7344 148.1563,658.7344 Q145.6563,658.7344 144.3281,657.0938 Q143.0156,655.4375 143.0156,652.3125 Q143.0156,649.1875 144.3281,647.5313 Q145.6563,645.875 148.1563,645.875 Q148.8594,645.875 149.5,646.0313 Q150.1563,646.1875 150.7188,646.4844 L150.7188,649.2031 Q150.0938,648.625 149.5,648.3594 Q148.9063,648.0781 148.2813,648.0781 Q146.9375,648.0781 146.25,649.1563 Q145.5625,650.2188 145.5625,652.3125 Q145.5625,654.4063 146.25,655.4844 Q146.9375,656.5469 148.2813,656.5469 Q148.9063,656.5469 149.5,656.2813 Q150.0938,656 150.7188,655.4219 L150.7188,658.1406 Z " fill="#000000"/><text fill="#000000" font-family="sans-serif" font-size="14" lengthAdjust="spacing" textLength="22" x="168.25" y="657.3467">Bid</text><line style="stroke:#181818;stroke-width:0.5;" x1="100.5" x2="225.5" y1="668.5" y2="668.5"/><ellipse cx="110.5" cy="682.1484" fill="none" rx="3" ry="3" style="stroke:#038048;stroke-width:1.0;"/><text fill="#000000" font-family="sans-serif" font-size="14" lengthAdjust="spacing" textLength="61" x="119.5" y="685.4951">id: String</text><ellipse cx="110.5" cy="698.4453" fill="none" rx="3" ry="3" style="stroke:#038048;stroke-width:1.0;"/><text fill="#000000" font-family="sans-serif" font-size="14" lengthAdjust="spacing" textLength="76" x="119.5" y="701.792">price: Float</text><ellipse cx="110.5" cy="714.7422" fill="none" rx="3" ry="3" style="stroke:#038048;stroke-width:1.0;"/><text fill="#000000" font-family="sans-serif" font-size="14" lengthAdjust="spacing" textLength="92" x="119.5" y="718.0889">userId: String</text><ellipse cx="110.5" cy="731.0391" fill="none" rx="3" ry="3" style="stroke:#038048;stroke-width:1.0;"/><text fill="#000000" font-family="sans-serif" font-size="14" lengthAdjust="spacing" textLength="101" x="119.5" y="734.3857">listingId: String</text><line style="stroke:#181818;stroke-width:0.5;" x1="100.5" x2="225.5" y1="741.6875" y2="741.6875"/></g><!--class UserGroupType--><g id="elem_UserGroupType"><rect codeLine="50" fill="#F1F1F1" height="64.2969" id="UserGroupType" rx="2.5" ry="2.5" style="stroke:#181818;stroke-width:0.5;" width="141" x="684.5" y="900"/><ellipse cx="699.5" cy="916" fill="#EB937F" rx="11" ry="11" style="stroke:#181818;stroke-width:1.0;"/><path d="M703.6094,922 L695.8906,922 L695.8906,909.6094 L703.6094,909.6094 L703.6094,911.7656 L698.3438,911.7656 L698.3438,914.4375 L703.1094,914.4375 L703.1094,916.5938 L698.3438,916.5938 L698.3438,919.8438 L703.6094,919.8438 L703.6094,922 Z " fill="#000000"/><text fill="#000000" font-family="sans-serif" font-size="14" lengthAdjust="spacing" textLength="109" x="713.5" y="920.8467">UserGroupType</text><line style="stroke:#181818;stroke-width:0.5;" x1="685.5" x2="824.5" y1="932" y2="932"/><text fill="#000000" font-family="sans-serif" font-size="14" lengthAdjust="spacing" textLength="45" x="690.5" y="948.9951">ADMIN</text><line style="stroke:#181818;stroke-width:0.5;" x1="685.5" x2="824.5" y1="956.2969" y2="956.2969"/></g><!--class UserGroup--><g id="elem_UserGroup"><rect codeLine="54" fill="#F1F1F1" height="96.8906" id="UserGroup" rx="2.5" ry="2.5" style="stroke:#181818;stroke-width:0.5;" width="174" x="662" y="1139.5"/><ellipse cx="707.25" cy="1155.5" fill="#ADD1B2" rx="11" ry="11" style="stroke:#181818;stroke-width:1.0;"/><path d="M710.2188,1161.1406 Q709.6406,1161.4375 709,1161.5781 Q708.3594,1161.7344 707.6563,1161.7344 Q705.1563,1161.7344 703.8281,1160.0938 Q702.5156,1158.4375 702.5156,1155.3125 Q702.5156,1152.1875 703.8281,1150.5313 Q705.1563,1148.875 707.6563,1148.875 Q708.3594,1148.875 709,1149.0313 Q709.6563,1149.1875 710.2188,1149.4844 L710.2188,1152.2031 Q709.5938,1151.625 709,1151.3594 Q708.4063,1151.0781 707.7813,1151.0781 Q706.4375,1151.0781 705.75,1152.1563 Q705.0625,1153.2188 705.0625,1155.3125 Q705.0625,1157.4063 705.75,1158.4844 Q706.4375,1159.5469 707.7813,1159.5469 Q708.4063,1159.5469 709,1159.2813 Q709.5938,1159 710.2188,1158.4219 L710.2188,1161.1406 Z " fill="#000000"/><text fill="#000000" font-family="sans-serif" font-size="14" lengthAdjust="spacing" textLength="75" x="727.75" y="1160.3467">UserGroup</text><line style="stroke:#181818;stroke-width:0.5;" x1="663" x2="835" y1="1171.5" y2="1171.5"/><ellipse cx="673" cy="1185.1484" fill="none" rx="3" ry="3" style="stroke:#038048;stroke-width:1.0;"/><text fill="#000000" font-family="sans-serif" font-size="14" lengthAdjust="spacing" textLength="61" x="682" y="1188.4951">id: String</text><ellipse cx="673" cy="1201.4453" fill="none" rx="3" ry="3" style="stroke:#038048;stroke-width:1.0;"/><text fill="#000000" font-family="sans-serif" font-size="14" lengthAdjust="spacing" textLength="90" x="682" y="1204.792">users: User[]</text><ellipse cx="673" cy="1217.7422" fill="none" rx="3" ry="3" style="stroke:#038048;stroke-width:1.0;"/><text fill="#000000" font-family="sans-serif" font-size="14" lengthAdjust="spacing" textLength="148" x="682" y="1221.0889">type: UserGroupType</text><line style="stroke:#181818;stroke-width:0.5;" x1="663" x2="835" y1="1228.3906" y2="1228.3906"/></g><!--class ListingsRoute--><g id="elem_ListingsRoute"><rect codeLine="68" fill="#F1F1F1" height="145.7813" id="ListingsRoute" rx="2.5" ry="2.5" style="stroke:#181818;stroke-width:0.5;" width="172" x="359" y="381"/><ellipse cx="394.7" cy="397" fill="#ADD1B2" rx="11" ry="11" style="stroke:#181818;stroke-width:1.0;"/><path d="M397.6688,402.6406 Q397.0906,402.9375 396.45,403.0781 Q395.8094,403.2344 395.1063,403.2344 Q392.6063,403.2344 391.2781,401.5938 Q389.9656,399.9375 389.9656,396.8125 Q389.9656,393.6875 391.2781,392.0313 Q392.6063,390.375 395.1063,390.375 Q395.8094,390.375 396.45,390.5313 Q397.1063,390.6875 397.6688,390.9844 L397.6688,393.7031 Q397.0438,393.125 396.45,392.8594 Q395.8563,392.5781 395.2313,392.5781 Q393.8875,392.5781 393.2,393.6563 Q392.5125,394.7188 392.5125,396.8125 Q392.5125,398.9063 393.2,399.9844 Q393.8875,401.0469 395.2313,401.0469 Q395.8563,401.0469 396.45,400.7813 Q397.0438,400.5 397.6688,399.9219 L397.6688,402.6406 Z " fill="#000000"/><text fill="#000000" font-family="sans-serif" font-size="14" lengthAdjust="spacing" textLength="94" x="413.3" y="401.8467">ListingsRoute</text><line style="stroke:#181818;stroke-width:0.5;" x1="360" x2="530" y1="413" y2="413"/><line style="stroke:#181818;stroke-width:0.5;" x1="360" x2="530" y1="421" y2="421"/><ellipse cx="370" cy="434.6484" fill="#84BE84" rx="3" ry="3" style="stroke:#038048;stroke-width:1.0;"/><text fill="#000000" font-family="sans-serif" font-size="14" lengthAdjust="spacing" textLength="98" x="379" y="437.9951">createListing()</text><ellipse cx="370" cy="450.9453" fill="#84BE84" rx="3" ry="3" style="stroke:#038048;stroke-width:1.0;"/><text fill="#000000" font-family="sans-serif" font-size="14" lengthAdjust="spacing" textLength="103" x="379" y="454.292">updateListing()</text><ellipse cx="370" cy="467.2422" fill="#84BE84" rx="3" ry="3" style="stroke:#038048;stroke-width:1.0;"/><text fill="#000000" font-family="sans-serif" font-size="14" lengthAdjust="spacing" textLength="98" x="379" y="470.5889">deleteListing()</text><ellipse cx="370" cy="483.5391" fill="#84BE84" rx="3" ry="3" style="stroke:#038048;stroke-width:1.0;"/><text fill="#000000" font-family="sans-serif" font-size="14" lengthAdjust="spacing" textLength="85" x="379" y="486.8857">getListings()</text><ellipse cx="370" cy="499.8359" fill="#84BE84" rx="3" ry="3" style="stroke:#038048;stroke-width:1.0;"/><text fill="#000000" font-family="sans-serif" font-size="14" lengthAdjust="spacing" textLength="106" x="379" y="503.1826">getListingById()</text><ellipse cx="370" cy="516.1328" fill="#84BE84" rx="3" ry="3" style="stroke:#038048;stroke-width:1.0;"/><text fill="#000000" font-family="sans-serif" font-size="14" lengthAdjust="spacing" textLength="146" x="379" y="519.4795">getListingsByUserId()</text></g><!--class AuthenticationRoute--><g id="elem_AuthenticationRoute"><rect codeLine="77" fill="#F1F1F1" height="162.0781" id="AuthenticationRoute" rx="2.5" ry="2.5" style="stroke:#181818;stroke-width:0.5;" width="174" x="358" y="612"/><ellipse cx="373" cy="628" fill="#ADD1B2" rx="11" ry="11" style="stroke:#181818;stroke-width:1.0;"/><path d="M375.9688,633.6406 Q375.3906,633.9375 374.75,634.0781 Q374.1094,634.2344 373.4063,634.2344 Q370.9063,634.2344 369.5781,632.5938 Q368.2656,630.9375 368.2656,627.8125 Q368.2656,624.6875 369.5781,623.0313 Q370.9063,621.375 373.4063,621.375 Q374.1094,621.375 374.75,621.5313 Q375.4063,621.6875 375.9688,621.9844 L375.9688,624.7031 Q375.3438,624.125 374.75,623.8594 Q374.1563,623.5781 373.5313,623.5781 Q372.1875,623.5781 371.5,624.6563 Q370.8125,625.7188 370.8125,627.8125 Q370.8125,629.9063 371.5,630.9844 Q372.1875,632.0469 373.5313,632.0469 Q374.1563,632.0469 374.75,631.7813 Q375.3438,631.5 375.9688,630.9219 L375.9688,633.6406 Z " fill="#000000"/><text fill="#000000" font-family="sans-serif" font-size="14" lengthAdjust="spacing" textLength="142" x="387" y="632.8467">AuthenticationRoute</text><line style="stroke:#181818;stroke-width:0.5;" x1="359" x2="531" y1="644" y2="644"/><line style="stroke:#181818;stroke-width:0.5;" x1="359" x2="531" y1="652" y2="652"/><ellipse cx="369" cy="665.6484" fill="#84BE84" rx="3" ry="3" style="stroke:#038048;stroke-width:1.0;"/><text fill="#000000" font-family="sans-serif" font-size="14" lengthAdjust="spacing" textLength="109" x="378" y="668.9951">createSession()</text><ellipse cx="369" cy="681.9453" fill="#84BE84" rx="3" ry="3" style="stroke:#038048;stroke-width:1.0;"/><text fill="#000000" font-family="sans-serif" font-size="14" lengthAdjust="spacing" textLength="114" x="378" y="685.292">updateSession()</text><ellipse cx="369" cy="698.2422" fill="#84BE84" rx="3" ry="3" style="stroke:#038048;stroke-width:1.0;"/><text fill="#000000" font-family="sans-serif" font-size="14" lengthAdjust="spacing" textLength="109" x="378" y="701.5889">deleteSession()</text><ellipse cx="369" cy="714.5391" fill="#84BE84" rx="3" ry="3" style="stroke:#038048;stroke-width:1.0;"/><text fill="#000000" font-family="sans-serif" font-size="14" lengthAdjust="spacing" textLength="86" x="378" y="717.8857">createUser()</text><ellipse cx="369" cy="730.8359" fill="#84BE84" rx="3" ry="3" style="stroke:#038048;stroke-width:1.0;"/><text fill="#000000" font-family="sans-serif" font-size="14" lengthAdjust="spacing" textLength="86" x="378" y="734.1826">deleteUser()</text><ellipse cx="369" cy="747.1328" fill="#84BE84" rx="3" ry="3" style="stroke:#038048;stroke-width:1.0;"/><text fill="#000000" font-family="sans-serif" font-size="14" lengthAdjust="spacing" textLength="111" x="378" y="750.4795">createAccount()</text><ellipse cx="369" cy="763.4297" fill="#84BE84" rx="3" ry="3" style="stroke:#038048;stroke-width:1.0;"/><text fill="#000000" font-family="sans-serif" font-size="14" lengthAdjust="spacing" textLength="111" x="378" y="766.7764">deleteAccount()</text></g><!--class BidsRoute--><g id="elem_BidsRoute"><rect codeLine="87" fill="#F1F1F1" height="145.7813" id="BidsRoute" rx="2.5" ry="2.5" style="stroke:#181818;stroke-width:0.5;" width="150" x="95" y="381"/><ellipse cx="130.7" cy="397" fill="#ADD1B2" rx="11" ry="11" style="stroke:#181818;stroke-width:1.0;"/><path d="M133.6688,402.6406 Q133.0906,402.9375 132.45,403.0781 Q131.8094,403.2344 131.1063,403.2344 Q128.6063,403.2344 127.2781,401.5938 Q125.9656,399.9375 125.9656,396.8125 Q125.9656,393.6875 127.2781,392.0313 Q128.6063,390.375 131.1063,390.375 Q131.8094,390.375 132.45,390.5313 Q133.1063,390.6875 133.6688,390.9844 L133.6688,393.7031 Q133.0438,393.125 132.45,392.8594 Q131.8563,392.5781 131.2313,392.5781 Q129.8875,392.5781 129.2,393.6563 Q128.5125,394.7188 128.5125,396.8125 Q128.5125,398.9063 129.2,399.9844 Q129.8875,401.0469 131.2313,401.0469 Q131.8563,401.0469 132.45,400.7813 Q133.0438,400.5 133.6688,399.9219 L133.6688,402.6406 Z " fill="#000000"/><text fill="#000000" font-family="sans-serif" font-size="14" lengthAdjust="spacing" textLength="72" x="149.3" y="401.8467">BidsRoute</text><line style="stroke:#181818;stroke-width:0.5;" x1="96" x2="244" y1="413" y2="413"/><line style="stroke:#181818;stroke-width:0.5;" x1="96" x2="244" y1="421" y2="421"/><ellipse cx="106" cy="434.6484" fill="#84BE84" rx="3" ry="3" style="stroke:#038048;stroke-width:1.0;"/><text fill="#000000" font-family="sans-serif" font-size="14" lengthAdjust="spacing" textLength="76" x="115" y="437.9951">createBid()</text><ellipse cx="106" cy="450.9453" fill="#84BE84" rx="3" ry="3" style="stroke:#038048;stroke-width:1.0;"/><text fill="#000000" font-family="sans-serif" font-size="14" lengthAdjust="spacing" textLength="81" x="115" y="454.292">updateBid()</text><ellipse cx="106" cy="467.2422" fill="#84BE84" rx="3" ry="3" style="stroke:#038048;stroke-width:1.0;"/><text fill="#000000" font-family="sans-serif" font-size="14" lengthAdjust="spacing" textLength="76" x="115" y="470.5889">deleteBid()</text><ellipse cx="106" cy="483.5391" fill="#84BE84" rx="3" ry="3" style="stroke:#038048;stroke-width:1.0;"/><text fill="#000000" font-family="sans-serif" font-size="14" lengthAdjust="spacing" textLength="124" x="115" y="486.8857">getBidsByListing()</text><ellipse cx="106" cy="499.8359" fill="#84BE84" rx="3" ry="3" style="stroke:#038048;stroke-width:1.0;"/><text fill="#000000" font-family="sans-serif" font-size="14" lengthAdjust="spacing" textLength="84" x="115" y="503.1826">getBidById()</text><ellipse cx="106" cy="516.1328" fill="#84BE84" rx="3" ry="3" style="stroke:#038048;stroke-width:1.0;"/><text fill="#000000" font-family="sans-serif" font-size="14" lengthAdjust="spacing" textLength="124" x="115" y="519.4795">getBidsByUserId()</text></g><!--class LandingPage--><g id="elem_LandingPage"><rect codeLine="108" fill="#F1F1F1" height="48" id="LandingPage" rx="2.5" ry="2.5" style="stroke:#181818;stroke-width:0.5;" width="121" x="609.5" y="7"/><ellipse cx="624.5" cy="23" fill="#B4A7E5" rx="11" ry="11" style="stroke:#181818;stroke-width:1.0;"/><path d="M620.4219,18.7656 L620.4219,16.6094 L627.8125,16.6094 L627.8125,18.7656 L625.3438,18.7656 L625.3438,26.8438 L627.8125,26.8438 L627.8125,29 L620.4219,29 L620.4219,26.8438 L622.8906,26.8438 L622.8906,18.7656 L620.4219,18.7656 Z " fill="#000000"/><text fill="#000000" font-family="sans-serif" font-size="14" font-style="italic" lengthAdjust="spacing" textLength="89" x="638.5" y="27.8467">LandingPage</text><line style="stroke:#181818;stroke-width:0.5;" x1="610.5" x2="729.5" y1="39" y2="39"/><line style="stroke:#181818;stroke-width:0.5;" x1="610.5" x2="729.5" y1="47" y2="47"/></g><!--class AboutPage--><g id="elem_AboutPage"><rect codeLine="109" fill="#F1F1F1" height="48" id="AboutPage" rx="2.5" ry="2.5" style="stroke:#181818;stroke-width:0.5;" width="108" x="799" y="116"/><ellipse cx="814" cy="132" fill="#B4A7E5" rx="11" ry="11" style="stroke:#181818;stroke-width:1.0;"/><path d="M809.9219,127.7656 L809.9219,125.6094 L817.3125,125.6094 L817.3125,127.7656 L814.8438,127.7656 L814.8438,135.8438 L817.3125,135.8438 L817.3125,138 L809.9219,138 L809.9219,135.8438 L812.3906,135.8438 L812.3906,127.7656 L809.9219,127.7656 Z " fill="#000000"/><text fill="#000000" font-family="sans-serif" font-size="14" font-style="italic" lengthAdjust="spacing" textLength="76" x="828" y="136.8467">AboutPage</text><line style="stroke:#181818;stroke-width:0.5;" x1="800" x2="906" y1="148" y2="148"/><line style="stroke:#181818;stroke-width:0.5;" x1="800" x2="906" y1="156" y2="156"/></g><!--class LoginPage--><g id="elem_LoginPage"><rect codeLine="110" fill="#F1F1F1" height="48" id="LoginPage" rx="2.5" ry="2.5" style="stroke:#181818;stroke-width:0.5;" width="104" x="717" y="303"/><ellipse cx="732" cy="319" fill="#B4A7E5" rx="11" ry="11" style="stroke:#181818;stroke-width:1.0;"/><path d="M727.9219,314.7656 L727.9219,312.6094 L735.3125,312.6094 L735.3125,314.7656 L732.8438,314.7656 L732.8438,322.8438 L735.3125,322.8438 L735.3125,325 L727.9219,325 L727.9219,322.8438 L730.3906,322.8438 L730.3906,314.7656 L727.9219,314.7656 Z " fill="#000000"/><text fill="#000000" font-family="sans-serif" font-size="14" font-style="italic" lengthAdjust="spacing" textLength="72" x="746" y="323.8467">LoginPage</text><line style="stroke:#181818;stroke-width:0.5;" x1="718" x2="820" y1="335" y2="335"/><line style="stroke:#181818;stroke-width:0.5;" x1="718" x2="820" y1="343" y2="343"/></g><!--class ListingPage--><g id="elem_ListingPage"><rect codeLine="111" fill="#F1F1F1" height="48" id="ListingPage" rx="2.5" ry="2.5" style="stroke:#181818;stroke-width:0.5;" width="110" x="351" y="225"/><ellipse cx="366" cy="241" fill="#B4A7E5" rx="11" ry="11" style="stroke:#181818;stroke-width:1.0;"/><path d="M361.9219,236.7656 L361.9219,234.6094 L369.3125,234.6094 L369.3125,236.7656 L366.8438,236.7656 L366.8438,244.8438 L369.3125,244.8438 L369.3125,247 L361.9219,247 L361.9219,244.8438 L364.3906,244.8438 L364.3906,236.7656 L361.9219,236.7656 Z " fill="#000000"/><text fill="#000000" font-family="sans-serif" font-size="14" font-style="italic" lengthAdjust="spacing" textLength="78" x="380" y="245.8467">ListingPage</text><line style="stroke:#181818;stroke-width:0.5;" x1="352" x2="460" y1="257" y2="257"/><line style="stroke:#181818;stroke-width:0.5;" x1="352" x2="460" y1="265" y2="265"/></g><!--class CreateListingPage--><g id="elem_CreateListingPage"><rect codeLine="112" fill="#F1F1F1" height="48" id="CreateListingPage" rx="2.5" ry="2.5" style="stroke:#181818;stroke-width:0.5;" width="156" x="496" y="225"/><ellipse cx="511" cy="241" fill="#B4A7E5" rx="11" ry="11" style="stroke:#181818;stroke-width:1.0;"/><path d="M506.9219,236.7656 L506.9219,234.6094 L514.3125,234.6094 L514.3125,236.7656 L511.8438,236.7656 L511.8438,244.8438 L514.3125,244.8438 L514.3125,247 L506.9219,247 L506.9219,244.8438 L509.3906,244.8438 L509.3906,236.7656 L506.9219,236.7656 Z " fill="#000000"/><text fill="#000000" font-family="sans-serif" font-size="14" font-style="italic" lengthAdjust="spacing" textLength="124" x="525" y="245.8467">CreateListingPage</text><line style="stroke:#181818;stroke-width:0.5;" x1="497" x2="651" y1="257" y2="257"/><line style="stroke:#181818;stroke-width:0.5;" x1="497" x2="651" y1="265" y2="265"/></g><!--class UserProfilePage--><g id="elem_UserProfilePage"><rect codeLine="113" fill="#F1F1F1" height="48" id="UserProfilePage" rx="2.5" ry="2.5" style="stroke:#181818;stroke-width:0.5;" width="138" x="522" y="303"/><ellipse cx="537" cy="319" fill="#B4A7E5" rx="11" ry="11" style="stroke:#181818;stroke-width:1.0;"/><path d="M532.9219,314.7656 L532.9219,312.6094 L540.3125,312.6094 L540.3125,314.7656 L537.8438,314.7656 L537.8438,322.8438 L540.3125,322.8438 L540.3125,325 L532.9219,325 L532.9219,322.8438 L535.3906,322.8438 L535.3906,314.7656 L532.9219,314.7656 Z " fill="#000000"/><text fill="#000000" font-family="sans-serif" font-size="14" font-style="italic" lengthAdjust="spacing" textLength="106" x="551" y="323.8467">UserProfilePage</text><line style="stroke:#181818;stroke-width:0.5;" x1="523" x2="659" y1="335" y2="335"/><line style="stroke:#181818;stroke-width:0.5;" x1="523" x2="659" y1="343" y2="343"/></g><!--class AdminPage--><g id="elem_AdminPage"><rect codeLine="114" fill="#F1F1F1" height="48" id="AdminPage" rx="2.5" ry="2.5" style="stroke:#181818;stroke-width:0.5;" width="110" x="206" y="225"/><ellipse cx="221" cy="241" fill="#B4A7E5" rx="11" ry="11" style="stroke:#181818;stroke-width:1.0;"/><path d="M216.9219,236.7656 L216.9219,234.6094 L224.3125,234.6094 L224.3125,236.7656 L221.8438,236.7656 L221.8438,244.8438 L224.3125,244.8438 L224.3125,247 L216.9219,247 L216.9219,244.8438 L219.3906,244.8438 L219.3906,236.7656 L216.9219,236.7656 Z " fill="#000000"/><text fill="#000000" font-family="sans-serif" font-size="14" font-style="italic" lengthAdjust="spacing" textLength="78" x="235" y="245.8467">AdminPage</text><line style="stroke:#181818;stroke-width:0.5;" x1="207" x2="315" y1="257" y2="257"/><line style="stroke:#181818;stroke-width:0.5;" x1="207" x2="315" y1="265" y2="265"/></g><!--class NavigationComponent--><g id="elem_NavigationComponent"><rect codeLine="115" fill="#F1F1F1" height="48" id="NavigationComponent" rx="2.5" ry="2.5" style="stroke:#181818;stroke-width:0.5;" width="187" x="576.5" y="116"/><ellipse cx="591.5" cy="132" fill="#B4A7E5" rx="11" ry="11" style="stroke:#181818;stroke-width:1.0;"/><path d="M587.4219,127.7656 L587.4219,125.6094 L594.8125,125.6094 L594.8125,127.7656 L592.3438,127.7656 L592.3438,135.8438 L594.8125,135.8438 L594.8125,138 L587.4219,138 L587.4219,135.8438 L589.8906,135.8438 L589.8906,127.7656 L587.4219,127.7656 Z " fill="#000000"/><text fill="#000000" font-family="sans-serif" font-size="14" font-style="italic" lengthAdjust="spacing" textLength="155" x="605.5" y="136.8467">NavigationComponent</text><line style="stroke:#181818;stroke-width:0.5;" x1="577.5" x2="762.5" y1="148" y2="148"/><line style="stroke:#181818;stroke-width:0.5;" x1="577.5" x2="762.5" y1="156" y2="156"/></g><!--class ListingsFeedComponent--><g id="elem_ListingsFeedComponent"><rect codeLine="116" fill="#F1F1F1" height="48" id="ListingsFeedComponent" rx="2.5" ry="2.5" style="stroke:#181818;stroke-width:0.5;" width="200" x="306" y="116"/><ellipse cx="321" cy="132" fill="#B4A7E5" rx="11" ry="11" style="stroke:#181818;stroke-width:1.0;"/><path d="M316.9219,127.7656 L316.9219,125.6094 L324.3125,125.6094 L324.3125,127.7656 L321.8438,127.7656 L321.8438,135.8438 L324.3125,135.8438 L324.3125,138 L316.9219,138 L316.9219,135.8438 L319.3906,135.8438 L319.3906,127.7656 L316.9219,127.7656 Z " fill="#000000"/><text fill="#000000" font-family="sans-serif" font-size="14" font-style="italic" lengthAdjust="spacing" textLength="168" x="335" y="136.8467">ListingsFeedComponent</text><line style="stroke:#181818;stroke-width:0.5;" x1="307" x2="505" y1="148" y2="148"/><line style="stroke:#181818;stroke-width:0.5;" x1="307" x2="505" y1="156" y2="156"/></g><!--class AddBidComponent--><g id="elem_AddBidComponent"><rect codeLine="117" fill="#F1F1F1" height="48" id="AddBidComponent" rx="2.5" ry="2.5" style="stroke:#181818;stroke-width:0.5;" width="164" x="7" y="225"/><ellipse cx="22" cy="241" fill="#B4A7E5" rx="11" ry="11" style="stroke:#181818;stroke-width:1.0;"/><path d="M17.9219,236.7656 L17.9219,234.6094 L25.3125,234.6094 L25.3125,236.7656 L22.8438,236.7656 L22.8438,244.8438 L25.3125,244.8438 L25.3125,247 L17.9219,247 L17.9219,244.8438 L20.3906,244.8438 L20.3906,236.7656 L17.9219,236.7656 Z " fill="#000000"/><text fill="#000000" font-family="sans-serif" font-size="14" font-style="italic" lengthAdjust="spacing" textLength="132" x="36" y="245.8467">AddBidComponent</text><line style="stroke:#181818;stroke-width:0.5;" x1="8" x2="170" y1="257" y2="257"/><line style="stroke:#181818;stroke-width:0.5;" x1="8" x2="170" y1="265" y2="265"/></g><!--link UserGroupType to UserGroup--><g id="link_UserGroupType_UserGroup"><path codeLine="61" d="M754.26,964.15 C753.23,1007.86 751.34,1087.8 750.13,1139.11 " fill="none" id="UserGroupType-UserGroup" style="stroke:#181818;stroke-width:1.0;"/><text fill="#000000" font-family="sans-serif" font-size="13" lengthAdjust="spacing" textLength="8" x="745.2824" y="984.3778">1</text><text fill="#000000" font-family="sans-serif" font-size="13" lengthAdjust="spacing" textLength="8" x="741.7264" y="1128.2641">1</text></g><!--link User to Session--><g id="link_User_Session"><path codeLine="62" d="M468.56,1005.11 C481.65,1045.15 497.68,1094.2 509.79,1131.27 " fill="none" id="User-Session" style="stroke:#181818;stroke-width:1.0;"/><text fill="#000000" font-family="sans-serif" font-size="13" lengthAdjust="spacing" textLength="8" x="462.4243" y="1024.8768">1</text><text fill="#000000" font-family="sans-serif" font-size="13" lengthAdjust="spacing" textLength="23" x="483.1691" y="1120.5055">0..*</text></g><!--link User to Account--><g id="link_User_Account"><path codeLine="63" d="M398.73,1005.11 C386.59,1024.03 373.15,1044.96 359.85,1065.69 " fill="none" id="User-Account" style="stroke:#181818;stroke-width:1.0;"/><text fill="#000000" font-family="sans-serif" font-size="13" lengthAdjust="spacing" textLength="8" x="385.9386" y="1024.8768">1</text><text fill="#000000" font-family="sans-serif" font-size="13" lengthAdjust="spacing" textLength="23" x="340.8932" y="1054.864">1..*</text></g><!--link User to UserGroup--><g id="link_User_UserGroup"><path codeLine="64" d="M539.81,995.37 C570.15,1016.65 603.3,1041.32 632,1066 C658.26,1088.58 685.27,1116.18 706.72,1139.32 " fill="none" id="User-UserGroup" style="stroke:#181818;stroke-width:1.0;"/><text fill="#000000" font-family="sans-serif" font-size="13" lengthAdjust="spacing" textLength="8" x="547.3751" y="996.7279">1</text><text fill="#000000" font-family="sans-serif" font-size="13" lengthAdjust="spacing" textLength="23" x="676.1572" y="1128.5036">0..*</text></g><!--link AuthenticationRoute to Session--><g id="link_AuthenticationRoute_Session"><path codeLine="97" d="M513.36,774.17 C531.1,799.65 547.8,829.05 557,859 C585.42,951.49 563.59,1065.05 545.53,1131.39 " fill="none" id="AuthenticationRoute-Session" style="stroke:#181818;stroke-width:1.0;"/><text fill="#000000" font-family="sans-serif" font-size="13" lengthAdjust="spacing" textLength="37" x="572" y="936.5669">CRUD</text><text fill="#000000" font-family="sans-serif" font-size="13" lengthAdjust="spacing" textLength="8" x="511.0921" y="794.1365">1</text><text fill="#000000" font-family="sans-serif" font-size="13" lengthAdjust="spacing" textLength="23" x="523.3026" y="1120.2393">0..*</text></g><!--link AuthenticationRoute to User--><g id="link_AuthenticationRoute_User"><path codeLine="98" d="M445,774.24 C445,801.63 445,832.08 445,858.81 " fill="none" id="AuthenticationRoute-User" style="stroke:#181818;stroke-width:1.0;"/><text fill="#000000" font-family="sans-serif" font-size="13" lengthAdjust="spacing" textLength="37" x="446" y="825.0669">CRUD</text><text fill="#000000" font-family="sans-serif" font-size="13" lengthAdjust="spacing" textLength="8" x="436.6438" y="794.2127">1</text><text fill="#000000" font-family="sans-serif" font-size="13" lengthAdjust="spacing" textLength="23" x="420.868" y="847.9513">0..*</text></g><!--link AuthenticationRoute to Account--><g id="link_AuthenticationRoute_Account"><path codeLine="99" d="M357.94,766.78 C332.64,793.01 308.06,824.69 294,859 C267.43,923.86 263.62,1002.11 266.83,1065.91 " fill="none" id="AuthenticationRoute-Account" style="stroke:#181818;stroke-width:1.0;"/><text fill="#000000" font-family="sans-serif" font-size="13" lengthAdjust="spacing" textLength="37" x="295" y="936.5669">CRUD</text><text fill="#000000" font-family="sans-serif" font-size="13" lengthAdjust="spacing" textLength="8" x="342.1145" y="769.5452">1</text><text fill="#000000" font-family="sans-serif" font-size="13" lengthAdjust="spacing" textLength="23" x="242.2048" y="1055.0974">0..*</text></g><!--link ListingsRoute to Listing--><g id="link_ListingsRoute_Listing"><path codeLine="101" d="M526.5,527.07 C561.61,558.12 602.44,594.22 636.92,624.72 " fill="none" id="ListingsRoute-Listing" style="stroke:#181818;stroke-width:1.0;"/><text fill="#000000" font-family="sans-serif" font-size="13" lengthAdjust="spacing" textLength="37" x="580" y="570.0669">CRUD</text><text fill="#000000" font-family="sans-serif" font-size="13" lengthAdjust="spacing" textLength="8" x="525.8867" y="546.833">1</text><text fill="#000000" font-family="sans-serif" font-size="13" lengthAdjust="spacing" textLength="23" x="606.1199" y="615.027">0..*</text></g><!--link ListingsRoute to AuthenticationRoute--><g id="link_ListingsRoute_AuthenticationRoute"><path codeLine="102" d="M445,527.07 C445,553.9 445,584.5 445,612 " fill="none" id="ListingsRoute-AuthenticationRoute" style="stroke:#181818;stroke-width:1.0;"/><text fill="#000000" font-family="sans-serif" font-size="13" lengthAdjust="spacing" textLength="39" x="446" y="570.0669">Reads</text><text fill="#000000" font-family="sans-serif" font-size="13" lengthAdjust="spacing" textLength="8" x="436.6188" y="546.833">1</text><text fill="#000000" font-family="sans-serif" font-size="13" lengthAdjust="spacing" textLength="8" x="436.6313" y="600.9108">1</text></g><!--link BidsRoute to Bid--><g id="link_BidsRoute_Bid"><path codeLine="104" d="M162.05,527.1 C161.2,537.13 160.47,547.31 160,557 C158.72,583.11 159.13,612.08 159.99,636.48 " fill="none" id="BidsRoute-Bid" style="stroke:#181818;stroke-width:1.0;"/><text fill="#000000" font-family="sans-serif" font-size="13" lengthAdjust="spacing" textLength="37" x="161" y="570.0669">CRUD</text><text fill="#000000" font-family="sans-serif" font-size="13" lengthAdjust="spacing" textLength="8" x="152.911" y="546.8658">1</text><text fill="#000000" font-family="sans-serif" font-size="13" lengthAdjust="spacing" textLength="23" x="135.1309" y="625.3408">0..*</text></g><!--link BidsRoute to AuthenticationRoute--><g id="link_BidsRoute_AuthenticationRoute"><path codeLine="105" d="M203.79,527.29 C213.64,543.85 225.46,560.53 239,574 C272.9,607.72 318.37,635.11 357.97,654.98 " fill="none" id="BidsRoute-AuthenticationRoute" style="stroke:#181818;stroke-width:1.0;"/><text fill="#000000" font-family="sans-serif" font-size="13" lengthAdjust="spacing" textLength="39" x="240" y="570.0669">Reads</text><text fill="#000000" font-family="sans-serif" font-size="13" lengthAdjust="spacing" textLength="8" x="198.5363" y="546.8209">1</text><text fill="#000000" font-family="sans-serif" font-size="13" lengthAdjust="spacing" textLength="8" x="341.8626" y="647.9952">1</text></g><!--reverse link LandingPage to AboutPage--><g id="link_LandingPage_AboutPage"><path codeLine="121" d="M714.8899,58.2479 C745.5799,76.1879 782.69,97.89 813.37,115.83 " fill="none" id="LandingPage-backto-AboutPage" style="stroke:#181818;stroke-width:1.0;stroke-dasharray:7.0,7.0;"/><polygon fill="#181818" points="709.71,55.22,715.4612,63.2152,714.0266,57.7433,719.4985,56.3086,709.71,55.22" style="stroke:#181818;stroke-width:1.0;"/></g><!--reverse link LandingPage to NavigationComponent--><g id="link_LandingPage_NavigationComponent"><path codeLine="122" d="M670,61.22 C670,79.16 670,97.89 670,115.83 " fill="none" id="LandingPage-backto-NavigationComponent" style="stroke:#181818;stroke-width:1.0;stroke-dasharray:7.0,7.0;"/><polygon fill="#181818" points="670,55.22,666,64.22,670,60.22,674,64.22,670,55.22" style="stroke:#181818;stroke-width:1.0;"/></g><!--reverse link LandingPage to ListingsFeedComponent--><g id="link_LandingPage_ListingsFeedComponent"><path codeLine="123" d="M607.4794,57.3438 C563.0694,75.3438 507.24,97.97 462.86,115.96 " fill="none" id="LandingPage-backto-ListingsFeedComponent" style="stroke:#181818;stroke-width:1.0;stroke-dasharray:7.0,7.0;"/><polygon fill="#181818" points="613.04,55.09,603.1966,54.7636,608.4062,56.9682,606.2016,62.1778,613.04,55.09" style="stroke:#181818;stroke-width:1.0;"/></g><!--reverse link NavigationComponent to LoginPage--><g id="link_NavigationComponent_LoginPage"><path codeLine="125" d="M690.9525,169.0588 C697.4525,178.1388 701.16,183.9 707,194 C728.29,230.82 748.34,276.16 759.61,302.98 " fill="none" id="NavigationComponent-backto-LoginPage" style="stroke:#181818;stroke-width:1.0;stroke-dasharray:7.0,7.0;"/><polygon fill="#181818" points="687.46,164.18,689.4463,173.8265,690.3704,168.2456,695.9513,169.1698,687.46,164.18" style="stroke:#181818;stroke-width:1.0;"/></g><!--reverse link NavigationComponent to CreateListingPage--><g id="link_NavigationComponent_CreateListingPage"><path codeLine="126" d="M645.1625,168.6855 C629.0625,186.6255 610.88,206.89 594.79,224.83 " fill="none" id="NavigationComponent-backto-CreateListingPage" style="stroke:#181818;stroke-width:1.0;stroke-dasharray:7.0,7.0;"/><polygon fill="#181818" points="649.17,164.22,640.1818,168.2465,645.8305,167.9412,646.1358,173.5898,649.17,164.22" style="stroke:#181818;stroke-width:1.0;"/></g><!--reverse link NavigationComponent to UserProfilePage--><g id="link_NavigationComponent_UserProfilePage"><path codeLine="127" d="M677.1879,169.9209 C683.0179,197.5709 687.36,238.64 669,273 C662.52,285.13 651.89,295 640.54,302.8 " fill="none" id="NavigationComponent-backto-UserProfilePage" style="stroke:#181818;stroke-width:1.0;stroke-dasharray:7.0,7.0;"/><polygon fill="#181818" points="675.95,164.05,673.8929,173.6816,676.9816,168.9424,681.7208,172.0311,675.95,164.05" style="stroke:#181818;stroke-width:1.0;"/></g><!--reverse link ListingsFeedComponent to AddBidComponent--><g id="link_ListingsFeedComponent_AddBidComponent"><path codeLine="129" d="M331.9251,166.0088 C278.5951,184.0088 210.57,206.97 157.27,224.96 " fill="none" id="ListingsFeedComponent-backto-AddBidComponent" style="stroke:#181818;stroke-width:1.0;stroke-dasharray:7.0,7.0;"/><polygon fill="#181818" points="337.61,164.09,327.8034,163.1782,332.8726,165.689,330.3618,170.7581,337.61,164.09" style="stroke:#181818;stroke-width:1.0;"/></g><!--reverse link ListingsFeedComponent to ListingPage--><g id="link_ListingsFeedComponent_ListingPage"><path codeLine="130" d="M406,170.22 C406,188.16 406,206.89 406,224.83 " fill="none" id="ListingsFeedComponent-backto-ListingPage" style="stroke:#181818;stroke-width:1.0;stroke-dasharray:7.0,7.0;"/><polygon fill="#181818" points="406,164.22,402,173.22,406,169.22,410,173.22,406,164.22" style="stroke:#181818;stroke-width:1.0;"/></g><!--link LoginPage to AuthenticationRoute--><g id="link_LoginPage_AuthenticationRoute"><path codeLine="135" d="M749.78,351.04 C712.99,394.97 629.8,493.51 557,574 C545.82,586.36 533.85,599.29 522.04,611.87 " fill="none" id="LoginPage-AuthenticationRoute" style="stroke:#181818;stroke-width:1.0;"/></g><!--link ListingPage to ListingsRoute--><g id="link_ListingPage_ListingsRoute"><path codeLine="136" d="M410.47,273.29 C415.5,299.43 423.89,343.13 431.15,380.89 " fill="none" id="ListingPage-ListingsRoute" style="stroke:#181818;stroke-width:1.0;"/></g><!--link CreateListingPage to ListingsRoute--><g id="link_CreateListingPage_ListingsRoute"><path codeLine="137" d="M545.78,273.03 C536.19,281.76 525.92,292.21 518,303 C500.61,326.7 485.54,355.19 473.67,380.94 " fill="none" id="CreateListingPage-ListingsRoute" style="stroke:#181818;stroke-width:1.0;"/></g><!--link UserProfilePage to AuthenticationRoute--><g id="link_UserProfilePage_AuthenticationRoute"><path codeLine="138" d="M588.62,351.14 C584.15,389.05 572.65,466.24 548,527 C536.19,556.1 519.37,585.83 502.74,611.9 " fill="none" id="UserProfilePage-AuthenticationRoute" style="stroke:#181818;stroke-width:1.0;"/></g><!--link AdminPage to AuthenticationRoute--><g id="link_AdminPage_AuthenticationRoute"><path codeLine="139" d="M265.36,273.02 C275.02,321.5 300.63,437.03 341,527 C353.96,555.89 371.33,585.68 388.15,611.87 " fill="none" id="AdminPage-AuthenticationRoute" style="stroke:#181818;stroke-width:1.0;"/></g><!--link AdminPage to ListingsRoute--><g id="link_AdminPage_ListingsRoute"><path codeLine="140" d="M296.18,273.23 C308.15,281.9 321.21,292.26 332,303 C355.57,326.46 378.29,355.04 397.11,380.94 " fill="none" id="AdminPage-ListingsRoute" style="stroke:#181818;stroke-width:1.0;"/></g><!--link AdminPage to BidsRoute--><g id="link_AdminPage_BidsRoute"><path codeLine="141" d="M250.56,273.29 C238.84,299.43 219.25,343.13 202.33,380.89 " fill="none" id="AdminPage-BidsRoute" style="stroke:#181818;stroke-width:1.0;"/></g><!--link AddBidComponent to BidsRoute--><g id="link_AddBidComponent_BidsRoute"><path codeLine="142" d="M98.29,273.29 C108.72,299.43 126.16,343.13 141.23,380.89 " fill="none" id="AddBidComponent-BidsRoute" style="stroke:#181818;stroke-width:1.0;"/></g><!--SRC=[ZLNBRXiX5Dtp5IYRFg9OpTRgnawKob8QHNbqKrKMWMiRrGCZO99QLVwz5-O535RjZJtd7iuz72vZlcVMqWNdkb6E_YMKdainfu_EIBNrJuq5iqeGTwWXVgwDVfK2J0dhX5C10ni3ThTs-ZUekC0u1skdEFof9QvOCpUdA-M22SzPvrOiroaWnLJDOW-frTewvaRoEo4yPF7ObajPT2kVSiLfHftZERt67a-oWb7_6SabSSMgn3fKJEudm0ymSYD1HCfUgM9Ro1rzCxgfLyBs-CzVeubRQHr29HzEkdsY9S1o8sk7Eq-FM7BatUmrSqSzfAdun1jxOavBAKhsyhRJBljsRn7uJa0rLKW-XFA4OnEq5zVVLtVfqGJ2iOk0HZq7anpkGIBgfJvGbD9SCX-OfI_WtW0K1ON1Ih0aTN5sUKOlBiBNK0YKeV9bDljyrazbMheCfUwEbLQDaYGxUVkW6zU6SCuDOFfTuUEdiDbQv920FMJG5bmlbmFBmqfCICl3SpWjB0oPBngtyzdmaDV4LRVls5K2jQuIg5teEyMKyRcjTwd5b16AXt2Q58And-6nLHaUSUD- -VAGPuPe4a_BYgCvCaF6Ex6KAJ6EKoc_ukZGERrwUBu-OK4Of9FP_Nz7ju2a0vPo-zTEnorJyQlKTKuVW0bBo7WcgRX_ONJ2Kyh_H8bK3io6SQ2tc2-wkiVNMOGkNd11XjtghLGvrkufGw_YAvRLVDptHc_a7lAUefhetx5NkGqxkD9LhHNkQDhTtW28KdqX16OpLloe2QX12L3yGBU6rJkgDxJ6fksWyPvhIHGC_JgRHP7abPB9d5EsIWfBM_gGzJ76DEDZp3nnKlJIxZ4Bx3WpRknZnM6pG9a1_wk_kcx7N7Wk1Hp8N2i5t86WJWyg7HXU1hAYZR8DKl6STleDUTH0ZV-YmLyVav_wmiIJoAQd95UGJ2ASKhBiZhKPHlSaGjeYAGrNcMH7aHRnymy0]--></g></svg>