<?xml version="1.0" encoding="us-ascii" standalone="no"?><svg xmlns="http://www.w3.org/2000/svg" xmlns:xlink="http://www.w3.org/1999/xlink" contentStyleType="text/css" height="1185px" preserveAspectRatio="none" style="width:914px;height:1185px;background:#FFFFFF;" version="1.1" viewBox="0 0 914 1185" width="914px" zoomAndPan="magnify"><defs/><g><!--class User--><g id="elem_User"><rect codeLine="24" fill="#F1F1F1" height="145.7813" id="User" rx="2.5" ry="2.5" style="stroke:#181818;stroke-width:0.5;" width="189" x="350.5" y="859"/><ellipse cx="424.75" cy="875" fill="#ADD1B2" rx="11" ry="11" style="stroke:#181818;stroke-width:1.0;"/><path d="M427.7188,880.6406 Q427.1406,880.9375 426.5,881.0781 Q425.8594,881.2344 425.1563,881.2344 Q422.6563,881.2344 421.3281,879.5938 Q420.0156,877.9375 420.0156,874.8125 Q420.0156,871.6875 421.3281,870.0313 Q422.6563,868.375 425.1563,868.375 Q425.8594,868.375 426.5,868.5313 Q427.1563,868.6875 427.7188,868.9844 L427.7188,871.7031 Q427.0938,871.125 426.5,870.8594 Q425.9063,870.5781 425.2813,870.5781 Q423.9375,870.5781 423.25,871.6563 Q422.5625,872.7188 422.5625,874.8125 Q422.5625,876.9063 423.25,877.9844 Q423.9375,879.0469 425.2813,879.0469 Q425.9063,879.0469 426.5,878.7813 Q427.0938,878.5 427.7188,877.9219 L427.7188,880.6406 Z " fill="#000000"/><text fill="#000000" font-family="sans-serif" font-size="14" lengthAdjust="spacing" textLength="32" x="445.25" y="879.8467">User</text><line style="stroke:#181818;stroke-width:0.5;" x1="351.5" x2="538.5" y1="891" y2="891"/><ellipse cx="361.5" cy="904.6484" fill="none" rx="3" ry="3" style="stroke:#038048;stroke-width:1.0;"/><text fill="#000000" font-family="sans-serif" font-size="14" lengthAdjust="spacing" textLength="61" x="370.5" y="907.9951">id: String</text><ellipse cx="361.5" cy="920.9453" fill="none" rx="3" ry="3" style="stroke:#038048;stroke-width:1.0;"/><text fill="#000000" font-family="sans-serif" font-size="14" lengthAdjust="spacing" textLength="88" x="370.5" y="924.292">name: String</text><ellipse cx="361.5" cy="937.2422" fill="none" rx="3" ry="3" style="stroke:#038048;stroke-width:1.0;"/><text fill="#000000" font-family="sans-serif" font-size="14" lengthAdjust="spacing" textLength="85" x="370.5" y="940.5889">email: String</text><ellipse cx="361.5" cy="953.5391" fill="none" rx="3" ry="3" style="stroke:#038048;stroke-width:1.0;"/><text fill="#000000" font-family="sans-serif" font-size="14" lengthAdjust="spacing" textLength="163" x="370.5" y="956.8857">emailVerified: DateTime</text><ellipse cx="361.5" cy="969.8359" fill="none" rx="3" ry="3" style="stroke:#038048;stroke-width:1.0;"/><text fill="#000000" font-family="sans-serif" font-size="14" lengthAdjust="spacing" textLength="91" x="370.5" y="973.1826">image: String</text><ellipse cx="361.5" cy="986.1328" fill="none" rx="3" ry="3" style="stroke:#038048;stroke-width:1.0;"/><text fill="#000000" font-family="sans-serif" font-size="14" lengthAdjust="spacing" textLength="153" x="370.5" y="989.4795">userGroupIds: String[]</text><line style="stroke:#181818;stroke-width:0.5;" x1="351.5" x2="538.5" y1="996.7813" y2="996.7813"/></g><!--class Listing--><g id="elem_Listing"><rect codeLine="33" fill="#F1F1F1" height="162.0781" id="Listing" rx="2.5" ry="2.5" style="stroke:#181818;stroke-width:0.5;" width="152" x="637" y="612"/><ellipse cx="686.75" cy="628" fill="#ADD1B2" rx="11" ry="11" style="stroke:#181818;stroke-width:1.0;"/><path d="M689.7188,633.6406 Q689.1406,633.9375 688.5,634.0781 Q687.8594,634.2344 687.1563,634.2344 Q684.6563,634.2344 683.3281,632.5938 Q682.0156,630.9375 682.0156,627.8125 Q682.0156,624.6875 683.3281,623.0313 Q684.6563,621.375 687.1563,621.375 Q687.8594,621.375 688.5,621.5313 Q689.1563,621.6875 689.7188,621.9844 L689.7188,624.7031 Q689.0938,624.125 688.5,623.8594 Q687.9063,623.5781 687.2813,623.5781 Q685.9375,623.5781 685.25,624.6563 Q684.5625,625.7188 684.5625,627.8125 Q684.5625,629.9063 685.25,630.9844 Q685.9375,632.0469 687.2813,632.0469 Q687.9063,632.0469 688.5,631.7813 Q689.0938,631.5 689.7188,630.9219 L689.7188,633.6406 Z " fill="#000000"/><text fill="#000000" font-family="sans-serif" font-size="14" lengthAdjust="spacing" textLength="44" x="707.25" y="632.8467">Listing</text><line style="stroke:#181818;stroke-width:0.5;" x1="638" x2="788" y1="644" y2="644"/><ellipse cx="648" cy="657.6484" fill="none" rx="3" ry="3" style="stroke:#038048;stroke-width:1.0;"/><text fill="#000000" font-family="sans-serif" font-size="14" lengthAdjust="spacing" textLength="61" x="657" y="660.9951">id: String</text><ellipse cx="648" cy="673.9453" fill="none" rx="3" ry="3" style="stroke:#038048;stroke-width:1.0;"/><text fill="#000000" font-family="sans-serif" font-size="14" lengthAdjust="spacing" textLength="74" x="657" y="677.292">title: String</text><ellipse cx="648" cy="690.2422" fill="none" rx="3" ry="3" style="stroke:#038048;stroke-width:1.0;"/><text fill="#000000" font-family="sans-serif" font-size="14" lengthAdjust="spacing" textLength="126" x="657" y="693.5889">description: String</text><ellipse cx="648" cy="706.5391" fill="none" rx="3" ry="3" style="stroke:#038048;stroke-width:1.0;"/><text fill="#000000" font-family="sans-serif" font-size="14" lengthAdjust="spacing" textLength="76" x="657" y="709.8857">price: Float</text><ellipse cx="648" cy="722.8359" fill="none" rx="3" ry="3" style="stroke:#038048;stroke-width:1.0;"/><text fill="#000000" font-family="sans-serif" font-size="14" lengthAdjust="spacing" textLength="91" x="657" y="726.1826">image: String</text><ellipse cx="648" cy="739.1328" fill="none" rx="3" ry="3" style="stroke:#038048;stroke-width:1.0;"/><text fill="#000000" font-family="sans-serif" font-size="14" lengthAdjust="spacing" textLength="92" x="657" y="742.4795">userId: String</text><ellipse cx="648" cy="755.4297" fill="none" rx="3" ry="3" style="stroke:#038048;stroke-width:1.0;"/><text fill="#000000" font-family="sans-serif" font-size="14" lengthAdjust="spacing" textLength="126" x="657" y="758.7764">expires: DateTime</text><line style="stroke:#181818;stroke-width:0.5;" x1="638" x2="788" y1="766.0781" y2="766.0781"/></g><!--class Bid--><g id="elem_Bid"><rect codeLine="44" fill="#F1F1F1" height="113.1875" id="Bid" rx="2.5" ry="2.5" style="stroke:#181818;stroke-width:0.5;" width="127" x="99.5" y="636.5"/><ellipse cx="147.75" cy="652.5" fill="#ADD1B2" rx="11" ry="11" style="stroke:#181818;stroke-width:1.0;"/><path d="M150.7188,658.1406 Q150.1406,658.4375 149.5,658.5781 Q148.8594,658.7344 148.1563,658.7344 Q145.6563,658.7344 144.3281,657.0938 Q143.0156,655.4375 143.0156,652.3125 Q143.0156,649.1875 144.3281,647.5313 Q145.6563,645.875 148.1563,645.875 Q148.8594,645.875 149.5,646.0313 Q150.1563,646.1875 150.7188,646.4844 L150.7188,649.2031 Q150.0938,648.625 149.5,648.3594 Q148.9063,648.0781 148.2813,648.0781 Q146.9375,648.0781 146.25,649.1563 Q145.5625,650.2188 145.5625,652.3125 Q145.5625,654.4063 146.25,655.4844 Q146.9375,656.5469 148.2813,656.5469 Q148.9063,656.5469 149.5,656.2813 Q150.0938,656 150.7188,655.4219 L150.7188,658.1406 Z " fill="#000000"/><text fill="#000000" font-family="sans-serif" font-size="14" lengthAdjust="spacing" textLength="22" x="168.25" y="657.3467">Bid</text><line style="stroke:#181818;stroke-width:0.5;" x1="100.5" x2="225.5" y1="668.5" y2="668.5"/><ellipse cx="110.5" cy="682.1484" fill="none" rx="3" ry="3" style="stroke:#038048;stroke-width:1.0;"/><text fill="#000000" font-family="sans-serif" font-size="14" lengthAdjust="spacing" textLength="61" x="119.5" y="685.4951">id: String</text><ellipse cx="110.5" cy="698.4453" fill="none" rx="3" ry="3" style="stroke:#038048;stroke-width:1.0;"/><text fill="#000000" font-family="sans-serif" font-size="14" lengthAdjust="spacing" textLength="76" x="119.5" y="701.792">price: Float</text><ellipse cx="110.5" cy="714.7422" fill="none" rx="3" ry="3" style="stroke:#038048;stroke-width:1.0;"/><text fill="#000000" font-family="sans-serif" font-size="14" lengthAdjust="spacing" textLength="92" x="119.5" y="718.0889">userId: String</text><ellipse cx="110.5" cy="731.0391" fill="none" rx="3" ry="3" style="stroke:#038048;stroke-width:1.0;"/><text fill="#000000" font-family="sans-serif" font-size="14" lengthAdjust="spacing" textLength="101" x="119.5" y="734.3857">listingId: String</text><line style="stroke:#181818;stroke-width:0.5;" x1="100.5" x2="225.5" y1="741.6875" y2="741.6875"/></g><!--class UserGroupType--><g id="elem_UserGroupType"><rect codeLine="50" fill="#F1F1F1" height="64.2969" id="UserGroupType" rx="2.5" ry="2.5" style="stroke:#181818;stroke-width:0.5;" width="141" x="574.5" y="900"/><ellipse cx="589.5" cy="916" fill="#EB937F" rx="11" ry="11" style="stroke:#181818;stroke-width:1.0;"/><path d="M593.6094,922 L585.8906,922 L585.8906,909.6094 L593.6094,909.6094 L593.6094,911.7656 L588.3438,911.7656 L588.3438,914.4375 L593.1094,914.4375 L593.1094,916.5938 L588.3438,916.5938 L588.3438,919.8438 L593.6094,919.8438 L593.6094,922 Z " fill="#000000"/><text fill="#000000" font-family="sans-serif" font-size="14" lengthAdjust="spacing" textLength="109" x="603.5" y="920.8467">UserGroupType</text><line style="stroke:#181818;stroke-width:0.5;" x1="575.5" x2="714.5" y1="932" y2="932"/><text fill="#000000" font-family="sans-serif" font-size="14" lengthAdjust="spacing" textLength="45" x="580.5" y="948.9951">ADMIN</text><line style="stroke:#181818;stroke-width:0.5;" x1="575.5" x2="714.5" y1="956.2969" y2="956.2969"/></g><!--class UserGroup--><g id="elem_UserGroup"><rect codeLine="54" fill="#F1F1F1" height="96.8906" id="UserGroup" rx="2.5" ry="2.5" style="stroke:#181818;stroke-width:0.5;" width="174" x="458" y="1082"/><ellipse cx="503.25" cy="1098" fill="#ADD1B2" rx="11" ry="11" style="stroke:#181818;stroke-width:1.0;"/><path d="M506.2188,1103.6406 Q505.6406,1103.9375 505,1104.0781 Q504.3594,1104.2344 503.6563,1104.2344 Q501.1563,1104.2344 499.8281,1102.5938 Q498.5156,1100.9375 498.5156,1097.8125 Q498.5156,1094.6875 499.8281,1093.0313 Q501.1563,1091.375 503.6563,1091.375 Q504.3594,1091.375 505,1091.5313 Q505.6563,1091.6875 506.2188,1091.9844 L506.2188,1094.7031 Q505.5938,1094.125 505,1093.8594 Q504.4063,1093.5781 503.7813,1093.5781 Q502.4375,1093.5781 501.75,1094.6563 Q501.0625,1095.7188 501.0625,1097.8125 Q501.0625,1099.9063 501.75,1100.9844 Q502.4375,1102.0469 503.7813,1102.0469 Q504.4063,1102.0469 505,1101.7813 Q505.5938,1101.5 506.2188,1100.9219 L506.2188,1103.6406 Z " fill="#000000"/><text fill="#000000" font-family="sans-serif" font-size="14" lengthAdjust="spacing" textLength="75" x="523.75" y="1102.8467">UserGroup</text><line style="stroke:#181818;stroke-width:0.5;" x1="459" x2="631" y1="1114" y2="1114"/><ellipse cx="469" cy="1127.6484" fill="none" rx="3" ry="3" style="stroke:#038048;stroke-width:1.0;"/><text fill="#000000" font-family="sans-serif" font-size="14" lengthAdjust="spacing" textLength="61" x="478" y="1130.9951">id: String</text><ellipse cx="469" cy="1143.9453" fill="none" rx="3" ry="3" style="stroke:#038048;stroke-width:1.0;"/><text fill="#000000" font-family="sans-serif" font-size="14" lengthAdjust="spacing" textLength="90" x="478" y="1147.292">users: User[]</text><ellipse cx="469" cy="1160.2422" fill="none" rx="3" ry="3" style="stroke:#038048;stroke-width:1.0;"/><text fill="#000000" font-family="sans-serif" font-size="14" lengthAdjust="spacing" textLength="148" x="478" y="1163.5889">type: UserGroupType</text><line style="stroke:#181818;stroke-width:0.5;" x1="459" x2="631" y1="1170.8906" y2="1170.8906"/></g><!--class ListingsRoute--><g id="elem_ListingsRoute"><rect codeLine="68" fill="#F1F1F1" height="145.7813" id="ListingsRoute" rx="2.5" ry="2.5" style="stroke:#181818;stroke-width:0.5;" width="172" x="359" y="381"/><ellipse cx="394.7" cy="397" fill="#ADD1B2" rx="11" ry="11" style="stroke:#181818;stroke-width:1.0;"/><path d="M397.6688,402.6406 Q397.0906,402.9375 396.45,403.0781 Q395.8094,403.2344 395.1063,403.2344 Q392.6063,403.2344 391.2781,401.5938 Q389.9656,399.9375 389.9656,396.8125 Q389.9656,393.6875 391.2781,392.0313 Q392.6063,390.375 395.1063,390.375 Q395.8094,390.375 396.45,390.5313 Q397.1063,390.6875 397.6688,390.9844 L397.6688,393.7031 Q397.0438,393.125 396.45,392.8594 Q395.8563,392.5781 395.2313,392.5781 Q393.8875,392.5781 393.2,393.6563 Q392.5125,394.7188 392.5125,396.8125 Q392.5125,398.9063 393.2,399.9844 Q393.8875,401.0469 395.2313,401.0469 Q395.8563,401.0469 396.45,400.7813 Q397.0438,400.5 397.6688,399.9219 L397.6688,402.6406 Z " fill="#000000"/><text fill="#000000" font-family="sans-serif" font-size="14" lengthAdjust="spacing" textLength="94" x="413.3" y="401.8467">ListingsRoute</text><line style="stroke:#181818;stroke-width:0.5;" x1="360" x2="530" y1="413" y2="413"/><line style="stroke:#181818;stroke-width:0.5;" x1="360" x2="530" y1="421" y2="421"/><ellipse cx="370" cy="434.6484" fill="#84BE84" rx="3" ry="3" style="stroke:#038048;stroke-width:1.0;"/><text fill="#000000" font-family="sans-serif" font-size="14" lengthAdjust="spacing" textLength="98" x="379" y="437.9951">createListing()</text><ellipse cx="370" cy="450.9453" fill="#84BE84" rx="3" ry="3" style="stroke:#038048;stroke-width:1.0;"/><text fill="#000000" font-family="sans-serif" font-size="14" lengthAdjust="spacing" textLength="103" x="379" y="454.292">updateListing()</text><ellipse cx="370" cy="467.2422" fill="#84BE84" rx="3" ry="3" style="stroke:#038048;stroke-width:1.0;"/><text fill="#000000" font-family="sans-serif" font-size="14" lengthAdjust="spacing" textLength="98" x="379" y="470.5889">deleteListing()</text><ellipse cx="370" cy="483.5391" fill="#84BE84" rx="3" ry="3" style="stroke:#038048;stroke-width:1.0;"/><text fill="#000000" font-family="sans-serif" font-size="14" lengthAdjust="spacing" textLength="85" x="379" y="486.8857">getListings()</text><ellipse cx="370" cy="499.8359" fill="#84BE84" rx="3" ry="3" style="stroke:#038048;stroke-width:1.0;"/><text fill="#000000" font-family="sans-serif" font-size="14" lengthAdjust="spacing" textLength="106" x="379" y="503.1826">getListingById()</text><ellipse cx="370" cy="516.1328" fill="#84BE84" rx="3" ry="3" style="stroke:#038048;stroke-width:1.0;"/><text fill="#000000" font-family="sans-serif" font-size="14" lengthAdjust="spacing" textLength="146" x="379" y="519.4795">getListingsByUserId()</text></g><!--class AuthenticationRoute--><g id="elem_AuthenticationRoute"><rect codeLine="77" fill="#F1F1F1" height="178.375" id="AuthenticationRoute" rx="2.5" ry="2.5" style="stroke:#181818;stroke-width:0.5;" width="174" x="358" y="604"/><ellipse cx="373" cy="620" fill="#ADD1B2" rx="11" ry="11" style="stroke:#181818;stroke-width:1.0;"/><path d="M375.9688,625.6406 Q375.3906,625.9375 374.75,626.0781 Q374.1094,626.2344 373.4063,626.2344 Q370.9063,626.2344 369.5781,624.5938 Q368.2656,622.9375 368.2656,619.8125 Q368.2656,616.6875 369.5781,615.0313 Q370.9063,613.375 373.4063,613.375 Q374.1094,613.375 374.75,613.5313 Q375.4063,613.6875 375.9688,613.9844 L375.9688,616.7031 Q375.3438,616.125 374.75,615.8594 Q374.1563,615.5781 373.5313,615.5781 Q372.1875,615.5781 371.5,616.6563 Q370.8125,617.7188 370.8125,619.8125 Q370.8125,621.9063 371.5,622.9844 Q372.1875,624.0469 373.5313,624.0469 Q374.1563,624.0469 374.75,623.7813 Q375.3438,623.5 375.9688,622.9219 L375.9688,625.6406 Z " fill="#000000"/><text fill="#000000" font-family="sans-serif" font-size="14" lengthAdjust="spacing" textLength="142" x="387" y="624.8467">AuthenticationRoute</text><line style="stroke:#181818;stroke-width:0.5;" x1="359" x2="531" y1="636" y2="636"/><line style="stroke:#181818;stroke-width:0.5;" x1="359" x2="531" y1="644" y2="644"/><ellipse cx="369" cy="657.6484" fill="#84BE84" rx="3" ry="3" style="stroke:#038048;stroke-width:1.0;"/><text fill="#000000" font-family="sans-serif" font-size="14" lengthAdjust="spacing" textLength="109" x="378" y="660.9951">createSession()</text><ellipse cx="369" cy="673.9453" fill="#84BE84" rx="3" ry="3" style="stroke:#038048;stroke-width:1.0;"/><text fill="#000000" font-family="sans-serif" font-size="14" lengthAdjust="spacing" textLength="114" x="378" y="677.292">updateSession()</text><ellipse cx="369" cy="690.2422" fill="#84BE84" rx="3" ry="3" style="stroke:#038048;stroke-width:1.0;"/><text fill="#000000" font-family="sans-serif" font-size="14" lengthAdjust="spacing" textLength="109" x="378" y="693.5889">deleteSession()</text><ellipse cx="369" cy="706.5391" fill="#84BE84" rx="3" ry="3" style="stroke:#038048;stroke-width:1.0;"/><text fill="#000000" font-family="sans-serif" font-size="14" lengthAdjust="spacing" textLength="86" x="378" y="709.8857">createUser()</text><ellipse cx="369" cy="722.8359" fill="#84BE84" rx="3" ry="3" style="stroke:#038048;stroke-width:1.0;"/><text fill="#000000" font-family="sans-serif" font-size="14" lengthAdjust="spacing" textLength="86" x="378" y="726.1826">deleteUser()</text><ellipse cx="369" cy="739.1328" fill="#84BE84" rx="3" ry="3" style="stroke:#038048;stroke-width:1.0;"/><text fill="#000000" font-family="sans-serif" font-size="14" lengthAdjust="spacing" textLength="111" x="378" y="742.4795">createAccount()</text><ellipse cx="369" cy="755.4297" fill="#84BE84" rx="3" ry="3" style="stroke:#038048;stroke-width:1.0;"/><text fill="#000000" font-family="sans-serif" font-size="14" lengthAdjust="spacing" textLength="111" x="378" y="758.7764">deleteAccount()</text><ellipse cx="369" cy="771.7266" fill="#84BE84" rx="3" ry="3" style="stroke:#038048;stroke-width:1.0;"/><text fill="#000000" font-family="sans-serif" font-size="14" lengthAdjust="spacing" textLength="108" x="378" y="775.0732">getUserGroup()</text></g><!--class BidsRoute--><g id="elem_BidsRoute"><rect codeLine="88" fill="#F1F1F1" height="145.7813" id="BidsRoute" rx="2.5" ry="2.5" style="stroke:#181818;stroke-width:0.5;" width="150" x="95" y="381"/><ellipse cx="130.7" cy="397" fill="#ADD1B2" rx="11" ry="11" style="stroke:#181818;stroke-width:1.0;"/><path d="M133.6688,402.6406 Q133.0906,402.9375 132.45,403.0781 Q131.8094,403.2344 131.1063,403.2344 Q128.6063,403.2344 127.2781,401.5938 Q125.9656,399.9375 125.9656,396.8125 Q125.9656,393.6875 127.2781,392.0313 Q128.6063,390.375 131.1063,390.375 Q131.8094,390.375 132.45,390.5313 Q133.1063,390.6875 133.6688,390.9844 L133.6688,393.7031 Q133.0438,393.125 132.45,392.8594 Q131.8563,392.5781 131.2313,392.5781 Q129.8875,392.5781 129.2,393.6563 Q128.5125,394.7188 128.5125,396.8125 Q128.5125,398.9063 129.2,399.9844 Q129.8875,401.0469 131.2313,401.0469 Q131.8563,401.0469 132.45,400.7813 Q133.0438,400.5 133.6688,399.9219 L133.6688,402.6406 Z " fill="#000000"/><text fill="#000000" font-family="sans-serif" font-size="14" lengthAdjust="spacing" textLength="72" x="149.3" y="401.8467">BidsRoute</text><line style="stroke:#181818;stroke-width:0.5;" x1="96" x2="244" y1="413" y2="413"/><line style="stroke:#181818;stroke-width:0.5;" x1="96" x2="244" y1="421" y2="421"/><ellipse cx="106" cy="434.6484" fill="#84BE84" rx="3" ry="3" style="stroke:#038048;stroke-width:1.0;"/><text fill="#000000" font-family="sans-serif" font-size="14" lengthAdjust="spacing" textLength="76" x="115" y="437.9951">createBid()</text><ellipse cx="106" cy="450.9453" fill="#84BE84" rx="3" ry="3" style="stroke:#038048;stroke-width:1.0;"/><text fill="#000000" font-family="sans-serif" font-size="14" lengthAdjust="spacing" textLength="81" x="115" y="454.292">updateBid()</text><ellipse cx="106" cy="467.2422" fill="#84BE84" rx="3" ry="3" style="stroke:#038048;stroke-width:1.0;"/><text fill="#000000" font-family="sans-serif" font-size="14" lengthAdjust="spacing" textLength="76" x="115" y="470.5889">deleteBid()</text><ellipse cx="106" cy="483.5391" fill="#84BE84" rx="3" ry="3" style="stroke:#038048;stroke-width:1.0;"/><text fill="#000000" font-family="sans-serif" font-size="14" lengthAdjust="spacing" textLength="124" x="115" y="486.8857">getBidsByListing()</text><ellipse cx="106" cy="499.8359" fill="#84BE84" rx="3" ry="3" style="stroke:#038048;stroke-width:1.0;"/><text fill="#000000" font-family="sans-serif" font-size="14" lengthAdjust="spacing" textLength="84" x="115" y="503.1826">getBidById()</text><ellipse cx="106" cy="516.1328" fill="#84BE84" rx="3" ry="3" style="stroke:#038048;stroke-width:1.0;"/><text fill="#000000" font-family="sans-serif" font-size="14" lengthAdjust="spacing" textLength="124" x="115" y="519.4795">getBidsByUserId()</text></g><!--class LandingPage--><g id="elem_LandingPage"><rect codeLine="109" fill="#F1F1F1" height="48" id="LandingPage" rx="2.5" ry="2.5" style="stroke:#181818;stroke-width:0.5;" width="121" x="609.5" y="7"/><ellipse cx="624.5" cy="23" fill="#B4A7E5" rx="11" ry="11" style="stroke:#181818;stroke-width:1.0;"/><path d="M620.4219,18.7656 L620.4219,16.6094 L627.8125,16.6094 L627.8125,18.7656 L625.3438,18.7656 L625.3438,26.8438 L627.8125,26.8438 L627.8125,29 L620.4219,29 L620.4219,26.8438 L622.8906,26.8438 L622.8906,18.7656 L620.4219,18.7656 Z " fill="#000000"/><text fill="#000000" font-family="sans-serif" font-size="14" font-style="italic" lengthAdjust="spacing" textLength="89" x="638.5" y="27.8467">LandingPage</text><line style="stroke:#181818;stroke-width:0.5;" x1="610.5" x2="729.5" y1="39" y2="39"/><line style="stroke:#181818;stroke-width:0.5;" x1="610.5" x2="729.5" y1="47" y2="47"/></g><!--class AboutPage--><g id="elem_AboutPage"><rect codeLine="110" fill="#F1F1F1" height="48" id="AboutPage" rx="2.5" ry="2.5" style="stroke:#181818;stroke-width:0.5;" width="108" x="799" y="116"/><ellipse cx="814" cy="132" fill="#B4A7E5" rx="11" ry="11" style="stroke:#181818;stroke-width:1.0;"/><path d="M809.9219,127.7656 L809.9219,125.6094 L817.3125,125.6094 L817.3125,127.7656 L814.8438,127.7656 L814.8438,135.8438 L817.3125,135.8438 L817.3125,138 L809.9219,138 L809.9219,135.8438 L812.3906,135.8438 L812.3906,127.7656 L809.9219,127.7656 Z " fill="#000000"/><text fill="#000000" font-family="sans-serif" font-size="14" font-style="italic" lengthAdjust="spacing" textLength="76" x="828" y="136.8467">AboutPage</text><line style="stroke:#181818;stroke-width:0.5;" x1="800" x2="906" y1="148" y2="148"/><line style="stroke:#181818;stroke-width:0.5;" x1="800" x2="906" y1="156" y2="156"/></g><!--class LoginPage--><g id="elem_LoginPage"><rect codeLine="111" fill="#F1F1F1" height="48" id="LoginPage" rx="2.5" ry="2.5" style="stroke:#181818;stroke-width:0.5;" width="104" x="717" y="303"/><ellipse cx="732" cy="319" fill="#B4A7E5" rx="11" ry="11" style="stroke:#181818;stroke-width:1.0;"/><path d="M727.9219,314.7656 L727.9219,312.6094 L735.3125,312.6094 L735.3125,314.7656 L732.8438,314.7656 L732.8438,322.8438 L735.3125,322.8438 L735.3125,325 L727.9219,325 L727.9219,322.8438 L730.3906,322.8438 L730.3906,314.7656 L727.9219,314.7656 Z " fill="#000000"/><text fill="#000000" font-family="sans-serif" font-size="14" font-style="italic" lengthAdjust="spacing" textLength="72" x="746" y="323.8467">LoginPage</text><line style="stroke:#181818;stroke-width:0.5;" x1="718" x2="820" y1="335" y2="335"/><line style="stroke:#181818;stroke-width:0.5;" x1="718" x2="820" y1="343" y2="343"/></g><!--class ListingPage--><g id="elem_ListingPage"><rect codeLine="112" fill="#F1F1F1" height="48" id="ListingPage" rx="2.5" ry="2.5" style="stroke:#181818;stroke-width:0.5;" width="110" x="351" y="225"/><ellipse cx="366" cy="241" fill="#B4A7E5" rx="11" ry="11" style="stroke:#181818;stroke-width:1.0;"/><path d="M361.9219,236.7656 L361.9219,234.6094 L369.3125,234.6094 L369.3125,236.7656 L366.8438,236.7656 L366.8438,244.8438 L369.3125,244.8438 L369.3125,247 L361.9219,247 L361.9219,244.8438 L364.3906,244.8438 L364.3906,236.7656 L361.9219,236.7656 Z " fill="#000000"/><text fill="#000000" font-family="sans-serif" font-size="14" font-style="italic" lengthAdjust="spacing" textLength="78" x="380" y="245.8467">ListingPage</text><line style="stroke:#181818;stroke-width:0.5;" x1="352" x2="460" y1="257" y2="257"/><line style="stroke:#181818;stroke-width:0.5;" x1="352" x2="460" y1="265" y2="265"/></g><!--class CreateListingPage--><g id="elem_CreateListingPage"><rect codeLine="113" fill="#F1F1F1" height="48" id="CreateListingPage" rx="2.5" ry="2.5" style="stroke:#181818;stroke-width:0.5;" width="156" x="496" y="225"/><ellipse cx="511" cy="241" fill="#B4A7E5" rx="11" ry="11" style="stroke:#181818;stroke-width:1.0;"/><path d="M506.9219,236.7656 L506.9219,234.6094 L514.3125,234.6094 L514.3125,236.7656 L511.8438,236.7656 L511.8438,244.8438 L514.3125,244.8438 L514.3125,247 L506.9219,247 L506.9219,244.8438 L509.3906,244.8438 L509.3906,236.7656 L506.9219,236.7656 Z " fill="#000000"/><text fill="#000000" font-family="sans-serif" font-size="14" font-style="italic" lengthAdjust="spacing" textLength="124" x="525" y="245.8467">CreateListingPage</text><line style="stroke:#181818;stroke-width:0.5;" x1="497" x2="651" y1="257" y2="257"/><line style="stroke:#181818;stroke-width:0.5;" x1="497" x2="651" y1="265" y2="265"/></g><!--class UserProfilePage--><g id="elem_UserProfilePage"><rect codeLine="114" fill="#F1F1F1" height="48" id="UserProfilePage" rx="2.5" ry="2.5" style="stroke:#181818;stroke-width:0.5;" width="138" x="522" y="303"/><ellipse cx="537" cy="319" fill="#B4A7E5" rx="11" ry="11" style="stroke:#181818;stroke-width:1.0;"/><path d="M532.9219,314.7656 L532.9219,312.6094 L540.3125,312.6094 L540.3125,314.7656 L537.8438,314.7656 L537.8438,322.8438 L540.3125,322.8438 L540.3125,325 L532.9219,325 L532.9219,322.8438 L535.3906,322.8438 L535.3906,314.7656 L532.9219,314.7656 Z " fill="#000000"/><text fill="#000000" font-family="sans-serif" font-size="14" font-style="italic" lengthAdjust="spacing" textLength="106" x="551" y="323.8467">UserProfilePage</text><line style="stroke:#181818;stroke-width:0.5;" x1="523" x2="659" y1="335" y2="335"/><line style="stroke:#181818;stroke-width:0.5;" x1="523" x2="659" y1="343" y2="343"/></g><!--class AdminPage--><g id="elem_AdminPage"><rect codeLine="115" fill="#F1F1F1" height="48" id="AdminPage" rx="2.5" ry="2.5" style="stroke:#181818;stroke-width:0.5;" width="110" x="206" y="225"/><ellipse cx="221" cy="241" fill="#B4A7E5" rx="11" ry="11" style="stroke:#181818;stroke-width:1.0;"/><path d="M216.9219,236.7656 L216.9219,234.6094 L224.3125,234.6094 L224.3125,236.7656 L221.8438,236.7656 L221.8438,244.8438 L224.3125,244.8438 L224.3125,247 L216.9219,247 L216.9219,244.8438 L219.3906,244.8438 L219.3906,236.7656 L216.9219,236.7656 Z " fill="#000000"/><text fill="#000000" font-family="sans-serif" font-size="14" font-style="italic" lengthAdjust="spacing" textLength="78" x="235" y="245.8467">AdminPage</text><line style="stroke:#181818;stroke-width:0.5;" x1="207" x2="315" y1="257" y2="257"/><line style="stroke:#181818;stroke-width:0.5;" x1="207" x2="315" y1="265" y2="265"/></g><!--class NavigationComponent--><g id="elem_NavigationComponent"><rect codeLine="116" fill="#F1F1F1" height="48" id="NavigationComponent" rx="2.5" ry="2.5" style="stroke:#181818;stroke-width:0.5;" width="187" x="576.5" y="116"/><ellipse cx="591.5" cy="132" fill="#B4A7E5" rx="11" ry="11" style="stroke:#181818;stroke-width:1.0;"/><path d="M587.4219,127.7656 L587.4219,125.6094 L594.8125,125.6094 L594.8125,127.7656 L592.3438,127.7656 L592.3438,135.8438 L594.8125,135.8438 L594.8125,138 L587.4219,138 L587.4219,135.8438 L589.8906,135.8438 L589.8906,127.7656 L587.4219,127.7656 Z " fill="#000000"/><text fill="#000000" font-family="sans-serif" font-size="14" font-style="italic" lengthAdjust="spacing" textLength="155" x="605.5" y="136.8467">NavigationComponent</text><line style="stroke:#181818;stroke-width:0.5;" x1="577.5" x2="762.5" y1="148" y2="148"/><line style="stroke:#181818;stroke-width:0.5;" x1="577.5" x2="762.5" y1="156" y2="156"/></g><!--class ListingsFeedComponent--><g id="elem_ListingsFeedComponent"><rect codeLine="117" fill="#F1F1F1" height="48" id="ListingsFeedComponent" rx="2.5" ry="2.5" style="stroke:#181818;stroke-width:0.5;" width="200" x="306" y="116"/><ellipse cx="321" cy="132" fill="#B4A7E5" rx="11" ry="11" style="stroke:#181818;stroke-width:1.0;"/><path d="M316.9219,127.7656 L316.9219,125.6094 L324.3125,125.6094 L324.3125,127.7656 L321.8438,127.7656 L321.8438,135.8438 L324.3125,135.8438 L324.3125,138 L316.9219,138 L316.9219,135.8438 L319.3906,135.8438 L319.3906,127.7656 L316.9219,127.7656 Z " fill="#000000"/><text fill="#000000" font-family="sans-serif" font-size="14" font-style="italic" lengthAdjust="spacing" textLength="168" x="335" y="136.8467">ListingsFeedComponent</text><line style="stroke:#181818;stroke-width:0.5;" x1="307" x2="505" y1="148" y2="148"/><line style="stroke:#181818;stroke-width:0.5;" x1="307" x2="505" y1="156" y2="156"/></g><!--class AddBidComponent--><g id="elem_AddBidComponent"><rect codeLine="118" fill="#F1F1F1" height="48" id="AddBidComponent" rx="2.5" ry="2.5" style="stroke:#181818;stroke-width:0.5;" width="164" x="7" y="225"/><ellipse cx="22" cy="241" fill="#B4A7E5" rx="11" ry="11" style="stroke:#181818;stroke-width:1.0;"/><path d="M17.9219,236.7656 L17.9219,234.6094 L25.3125,234.6094 L25.3125,236.7656 L22.8438,236.7656 L22.8438,244.8438 L25.3125,244.8438 L25.3125,247 L17.9219,247 L17.9219,244.8438 L20.3906,244.8438 L20.3906,236.7656 L17.9219,236.7656 Z " fill="#000000"/><text fill="#000000" font-family="sans-serif" font-size="14" font-style="italic" lengthAdjust="spacing" textLength="132" x="36" y="245.8467">AddBidComponent</text><line style="stroke:#181818;stroke-width:0.5;" x1="8" x2="170" y1="257" y2="257"/><line style="stroke:#181818;stroke-width:0.5;" x1="8" x2="170" y1="265" y2="265"/></g><!--link UserGroupType to UserGroup--><g id="link_UserGroupType_UserGroup"><path codeLine="61" d="M629.15,964.14 C613.07,995.74 587.96,1045.08 569.35,1081.65 " fill="none" id="UserGroupType-UserGroup" style="stroke:#181818;stroke-width:1.0;"/><text fill="#000000" font-family="sans-serif" font-size="13" lengthAdjust="spacing" textLength="25" x="593" y="1048.0669">Has</text><text fill="#000000" font-family="sans-serif" font-size="13" lengthAdjust="spacing" textLength="8" x="617.0559" y="984.3657">1</text><text fill="#000000" font-family="sans-serif" font-size="13" lengthAdjust="spacing" textLength="8" x="564.2117" y="1070.8097">1</text></g><!--link User to UserGroup--><g id="link_User_UserGroup"><path codeLine="64" d="M481.67,1005.05 C494.71,1030.68 509.06,1058.88 520.8,1081.94 " fill="none" id="User-UserGroup" style="stroke:#181818;stroke-width:1.0;"/><text fill="#000000" font-family="sans-serif" font-size="13" lengthAdjust="spacing" textLength="68" x="505" y="1048.0669">Belongs to</text><text fill="#000000" font-family="sans-serif" font-size="13" lengthAdjust="spacing" textLength="8" x="476.7839" y="1024.8111">1</text><text fill="#000000" font-family="sans-serif" font-size="13" lengthAdjust="spacing" textLength="23" x="492.5566" y="1070.7909">0..*</text></g><!--link AuthenticationRoute to User--><g id="link_AuthenticationRoute_User"><path codeLine="99" d="M445,782.25 C445,807.52 445,834.75 445,858.93 " fill="none" id="AuthenticationRoute-User" style="stroke:#181818;stroke-width:1.0;"/><text fill="#000000" font-family="sans-serif" font-size="13" lengthAdjust="spacing" textLength="37" x="446" y="825.0669">CRUD</text><text fill="#000000" font-family="sans-serif" font-size="13" lengthAdjust="spacing" textLength="8" x="436.6688" y="802.319">1</text><text fill="#000000" font-family="sans-serif" font-size="13" lengthAdjust="spacing" textLength="23" x="420.8141" y="847.7062">0..*</text></g><!--link ListingsRoute to Listing--><g id="link_ListingsRoute_Listing"><path codeLine="102" d="M526.5,527.07 C561.61,558.12 602.44,594.22 636.92,624.72 " fill="none" id="ListingsRoute-Listing" style="stroke:#181818;stroke-width:1.0;"/><text fill="#000000" font-family="sans-serif" font-size="13" lengthAdjust="spacing" textLength="37" x="580" y="570.0669">CRUD</text><text fill="#000000" font-family="sans-serif" font-size="13" lengthAdjust="spacing" textLength="8" x="525.8867" y="546.833">1</text><text fill="#000000" font-family="sans-serif" font-size="13" lengthAdjust="spacing" textLength="23" x="606.1199" y="615.0402">0..*</text></g><!--link ListingsRoute to AuthenticationRoute--><g id="link_ListingsRoute_AuthenticationRoute"><path codeLine="103" d="M445,527.07 C445,551.31 445,578.63 445,603.96 " fill="none" id="ListingsRoute-AuthenticationRoute" style="stroke:#181818;stroke-width:1.0;"/><text fill="#000000" font-family="sans-serif" font-size="13" lengthAdjust="spacing" textLength="39" x="446" y="570.0669">Reads</text><text fill="#000000" font-family="sans-serif" font-size="13" lengthAdjust="spacing" textLength="8" x="436.6188" y="546.833">1</text><text fill="#000000" font-family="sans-serif" font-size="13" lengthAdjust="spacing" textLength="8" x="436.6688" y="593.0221">1</text></g><!--link BidsRoute to Bid--><g id="link_BidsRoute_Bid"><path codeLine="105" d="M162.05,527.1 C161.2,537.13 160.47,547.31 160,557 C158.72,583.11 159.13,612.08 159.99,636.48 " fill="none" id="BidsRoute-Bid" style="stroke:#181818;stroke-width:1.0;"/><text fill="#000000" font-family="sans-serif" font-size="13" lengthAdjust="spacing" textLength="37" x="161" y="570.0669">CRUD</text><text fill="#000000" font-family="sans-serif" font-size="13" lengthAdjust="spacing" textLength="8" x="152.911" y="546.8658">1</text><text fill="#000000" font-family="sans-serif" font-size="13" lengthAdjust="spacing" textLength="23" x="135.1309" y="625.3408">0..*</text></g><!--link BidsRoute to AuthenticationRoute--><g id="link_BidsRoute_AuthenticationRoute"><path codeLine="106" d="M203.79,527.29 C213.64,543.85 225.46,560.53 239,574 C272.9,607.72 318.37,635.11 357.97,654.98 " fill="none" id="BidsRoute-AuthenticationRoute" style="stroke:#181818;stroke-width:1.0;"/><text fill="#000000" font-family="sans-serif" font-size="13" lengthAdjust="spacing" textLength="39" x="240" y="570.0669">Reads</text><text fill="#000000" font-family="sans-serif" font-size="13" lengthAdjust="spacing" textLength="8" x="198.5363" y="546.8209">1</text><text fill="#000000" font-family="sans-serif" font-size="13" lengthAdjust="spacing" textLength="8" x="341.8626" y="647.982">1</text></g><!--reverse link LandingPage to AboutPage--><g id="link_LandingPage_AboutPage"><path codeLine="122" d="M714.8899,58.2479 C745.5799,76.1879 782.69,97.89 813.37,115.83 " fill="none" id="LandingPage-backto-AboutPage" style="stroke:#181818;stroke-width:1.0;stroke-dasharray:7.0,7.0;"/><polygon fill="#181818" points="709.71,55.22,715.4612,63.2152,714.0266,57.7433,719.4985,56.3086,709.71,55.22" style="stroke:#181818;stroke-width:1.0;"/></g><!--reverse link LandingPage to NavigationComponent--><g id="link_LandingPage_NavigationComponent"><path codeLine="123" d="M670,61.22 C670,79.16 670,97.89 670,115.83 " fill="none" id="LandingPage-backto-NavigationComponent" style="stroke:#181818;stroke-width:1.0;stroke-dasharray:7.0,7.0;"/><polygon fill="#181818" points="670,55.22,666,64.22,670,60.22,674,64.22,670,55.22" style="stroke:#181818;stroke-width:1.0;"/></g><!--reverse link LandingPage to ListingsFeedComponent--><g id="link_LandingPage_ListingsFeedComponent"><path codeLine="124" d="M607.4794,57.3438 C563.0694,75.3438 507.24,97.97 462.86,115.96 " fill="none" id="LandingPage-backto-ListingsFeedComponent" style="stroke:#181818;stroke-width:1.0;stroke-dasharray:7.0,7.0;"/><polygon fill="#181818" points="613.04,55.09,603.1966,54.7636,608.4062,56.9682,606.2016,62.1778,613.04,55.09" style="stroke:#181818;stroke-width:1.0;"/></g><!--reverse link NavigationComponent to LoginPage--><g id="link_NavigationComponent_LoginPage"><path codeLine="126" d="M690.9525,169.0588 C697.4525,178.1388 701.16,183.9 707,194 C728.29,230.82 748.34,276.16 759.61,302.98 " fill="none" id="NavigationComponent-backto-LoginPage" style="stroke:#181818;stroke-width:1.0;stroke-dasharray:7.0,7.0;"/><polygon fill="#181818" points="687.46,164.18,689.4463,173.8265,690.3704,168.2456,695.9513,169.1698,687.46,164.18" style="stroke:#181818;stroke-width:1.0;"/></g><!--reverse link NavigationComponent to CreateListingPage--><g id="link_NavigationComponent_CreateListingPage"><path codeLine="127" d="M645.1625,168.6855 C629.0625,186.6255 610.88,206.89 594.79,224.83 " fill="none" id="NavigationComponent-backto-CreateListingPage" style="stroke:#181818;stroke-width:1.0;stroke-dasharray:7.0,7.0;"/><polygon fill="#181818" points="649.17,164.22,640.1818,168.2465,645.8305,167.9412,646.1358,173.5898,649.17,164.22" style="stroke:#181818;stroke-width:1.0;"/></g><!--reverse link NavigationComponent to UserProfilePage--><g id="link_NavigationComponent_UserProfilePage"><path codeLine="128" d="M677.5046,169.8987 C683.6146,197.5487 688.33,238.62 670,273 C663.47,285.24 652.72,295.16 641.22,302.95 " fill="none" id="NavigationComponent-backto-UserProfilePage" style="stroke:#181818;stroke-width:1.0;stroke-dasharray:7.0,7.0;"/><polygon fill="#181818" points="676.21,164.04,674.2462,173.6911,677.2889,168.9222,682.0577,171.9649,676.21,164.04" style="stroke:#181818;stroke-width:1.0;"/></g><!--reverse link ListingsFeedComponent to AddBidComponent--><g id="link_ListingsFeedComponent_AddBidComponent"><path codeLine="130" d="M331.9251,166.0088 C278.5951,184.0088 210.57,206.97 157.27,224.96 " fill="none" id="ListingsFeedComponent-backto-AddBidComponent" style="stroke:#181818;stroke-width:1.0;stroke-dasharray:7.0,7.0;"/><polygon fill="#181818" points="337.61,164.09,327.8034,163.1782,332.8726,165.689,330.3618,170.7581,337.61,164.09" style="stroke:#181818;stroke-width:1.0;"/></g><!--reverse link ListingsFeedComponent to ListingPage--><g id="link_ListingsFeedComponent_ListingPage"><path codeLine="131" d="M406,170.22 C406,188.16 406,206.89 406,224.83 " fill="none" id="ListingsFeedComponent-backto-ListingPage" style="stroke:#181818;stroke-width:1.0;stroke-dasharray:7.0,7.0;"/><polygon fill="#181818" points="406,164.22,402,173.22,406,169.22,410,173.22,406,164.22" style="stroke:#181818;stroke-width:1.0;"/></g><!--link LoginPage to AuthenticationRoute--><g id="link_LoginPage_AuthenticationRoute"><path codeLine="136" d="M749.78,351.04 C712.99,394.97 629.8,493.51 557,574 C548.19,583.74 538.88,593.84 529.56,603.84 " fill="none" id="LoginPage-AuthenticationRoute" style="stroke:#181818;stroke-width:1.0;"/></g><!--link ListingPage to ListingsRoute--><g id="link_ListingPage_ListingsRoute"><path codeLine="137" d="M410.47,273.29 C415.5,299.43 423.89,343.13 431.15,380.89 " fill="none" id="ListingPage-ListingsRoute" style="stroke:#181818;stroke-width:1.0;"/></g><!--link CreateListingPage to ListingsRoute--><g id="link_CreateListingPage_ListingsRoute"><path codeLine="138" d="M545.78,273.03 C536.19,281.76 525.92,292.21 518,303 C500.61,326.7 485.54,355.19 473.67,380.94 " fill="none" id="CreateListingPage-ListingsRoute" style="stroke:#181818;stroke-width:1.0;"/></g><!--link UserProfilePage to AuthenticationRoute--><g id="link_UserProfilePage_AuthenticationRoute"><path codeLine="139" d="M588.8,351.15 C584.61,389.08 573.61,466.3 549,527 C538.38,553.2 523.62,579.87 508.55,603.9 " fill="none" id="UserProfilePage-AuthenticationRoute" style="stroke:#181818;stroke-width:1.0;"/></g><!--link AdminPage to AuthenticationRoute--><g id="link_AdminPage_AuthenticationRoute"><path codeLine="140" d="M265.36,273.02 C275.02,321.5 300.63,437.03 341,527 C352.64,552.95 367.84,579.64 383.01,603.78 " fill="none" id="AdminPage-AuthenticationRoute" style="stroke:#181818;stroke-width:1.0;"/></g><!--link AdminPage to ListingsRoute--><g id="link_AdminPage_ListingsRoute"><path codeLine="141" d="M296.18,273.23 C308.15,281.9 321.21,292.26 332,303 C355.57,326.46 378.29,355.04 397.11,380.94 " fill="none" id="AdminPage-ListingsRoute" style="stroke:#181818;stroke-width:1.0;"/></g><!--link AdminPage to BidsRoute--><g id="link_AdminPage_BidsRoute"><path codeLine="142" d="M250.56,273.29 C238.84,299.43 219.25,343.13 202.33,380.89 " fill="none" id="AdminPage-BidsRoute" style="stroke:#181818;stroke-width:1.0;"/></g><!--link AddBidComponent to BidsRoute--><g id="link_AddBidComponent_BidsRoute"><path codeLine="143" d="M98.29,273.29 C108.72,299.43 126.16,343.13 141.23,380.89 " fill="none" id="AddBidComponent-BidsRoute" style="stroke:#181818;stroke-width:1.0;"/></g><!--SRC=[ZLLDRniX5BppAr0kQHl5QgvMBtQYj9RIACf7BrLbaUNPHjs55R19hQh_lG_ONGEBbVXWXs6ODmmFSaghcXb35rMbEcdfNt9AAJqJV4uVh1Po6yQT0RtACBjl8KLQhLu41rr6-nAvZ8QD1hDRM_KRP3h5gWgCASt0drRWgZMpSxgIjZVaUEkfBLEf71Ayf6gmcb1oRIopyO9_1Bz2JW-1SYodNk5ngbrAiD_5d5vXlKVHGAWLAZtX0YoJ5i6HP0t4OsYOg2V03z1Y8u17sawfOTjaiNFrLQkkNN4pu3z_aT74ZJ0MeP8FAsoTQ74mbHQjnVt7SAj5XRphMZ5xr4EUZ3k1pYIxccGrcbmANZAO5yxg85A7tKNWFmAoQtpsFfP7R2QllRZwlheboU5uGgcmAuH67GUp76zA8afyJw6KgWHpaHdw3FOLG5AG6Aq0Gr8N9nSdzFpS_nogp-atPb38Dyl0-3oRVJePEtLERzJMK25pseMd3HS_A1Lquc9Bg9L4CQi8oLh4tAlEXgpEAWruIFt4Xuy-avRd48SQCcWBTf3BWUL-nIUavVx97ofEZ4UpwEpEHLZvM2Uk-bXYLmaKN2LGMEWgnPJ3ECptGSQK14BROvInN-pUQNO8nWx7OT0TXwZfbY_tUOg89e45LXpMaURJpecXJF937vuMCptMRPVtJrVaxGM-qthsUmeS-jGl8MdRfTpXrUgvPIh-bAhEwJqmRWWvd4igxbwRNdXAUKkK26b1RrW5z0OpHbTt-1f6wE8P5sGOtbyXSopiAKCluukNpRd0xxJQY1hochoPwD-o5x7rExXKJQiaxcXQtLm3yDByWdFCvZ3Zser32vA3hFPqgrcxesf3MomQcgqQk8P4mT0liraKIJvJCfbpobP9OMcWZraVOqmpFiRC4oT5Bs6FMM37cN5X5oiscm7ADBY_XkjhTypwSIbWJwwKb51PuEuj7rHwq3y8eg6TD1rIyPnswXLvL4EB_uAzlo4cr_M5ZYUHJKT9hY2PH3YbPDaTApEsxhi8QObaQhpA93kAT18__m40]--></g></svg>