<?xml version="1.0" encoding="us-ascii" standalone="no"?><svg xmlns="http://www.w3.org/2000/svg" xmlns:xlink="http://www.w3.org/1999/xlink" contentStyleType="text/css" height="662px" preserveAspectRatio="none" style="width:1404px;height:662px;background:#FFFFFF;" version="1.1" viewBox="0 0 1404 662" width="1404px" zoomAndPan="magnify"><defs/><g><!--class Account--><g id="elem_Account"><rect codeLine="2" fill="#F1F1F1" height="243.5625" id="Account" rx="2.5" ry="2.5" style="stroke:#181818;stroke-width:0.5;" width="200" x="7" y="412"/><ellipse cx="74.25" cy="428" fill="#ADD1B2" rx="11" ry="11" style="stroke:#181818;stroke-width:1.0;"/><path d="M77.2188,433.6406 Q76.6406,433.9375 76,434.0781 Q75.3594,434.2344 74.6563,434.2344 Q72.1563,434.2344 70.8281,432.5938 Q69.5156,430.9375 69.5156,427.8125 Q69.5156,424.6875 70.8281,423.0313 Q72.1563,421.375 74.6563,421.375 Q75.3594,421.375 76,421.5313 Q76.6563,421.6875 77.2188,421.9844 L77.2188,424.7031 Q76.5938,424.125 76,423.8594 Q75.4063,423.5781 74.7813,423.5781 Q73.4375,423.5781 72.75,424.6563 Q72.0625,425.7188 72.0625,427.8125 Q72.0625,429.9063 72.75,430.9844 Q73.4375,432.0469 74.7813,432.0469 Q75.4063,432.0469 76,431.7813 Q76.5938,431.5 77.2188,430.9219 L77.2188,433.6406 Z " fill="#000000"/><text fill="#000000" font-family="sans-serif" font-size="14" lengthAdjust="spacing" textLength="57" x="94.75" y="432.8467">Account</text><line style="stroke:#181818;stroke-width:0.5;" x1="8" x2="206" y1="444" y2="444"/><ellipse cx="18" cy="457.6484" fill="none" rx="3" ry="3" style="stroke:#038048;stroke-width:1.0;"/><text fill="#000000" font-family="sans-serif" font-size="14" lengthAdjust="spacing" textLength="61" x="27" y="460.9951">id: String</text><ellipse cx="18" cy="473.9453" fill="none" rx="3" ry="3" style="stroke:#038048;stroke-width:1.0;"/><text fill="#000000" font-family="sans-serif" font-size="14" lengthAdjust="spacing" textLength="92" x="27" y="477.292">userId: String</text><ellipse cx="18" cy="490.2422" fill="none" rx="3" ry="3" style="stroke:#038048;stroke-width:1.0;"/><text fill="#000000" font-family="sans-serif" font-size="14" lengthAdjust="spacing" textLength="79" x="27" y="493.5889">type: String</text><ellipse cx="18" cy="506.5391" fill="none" rx="3" ry="3" style="stroke:#038048;stroke-width:1.0;"/><text fill="#000000" font-family="sans-serif" font-size="14" lengthAdjust="spacing" textLength="105" x="27" y="509.8857">provider: String</text><ellipse cx="18" cy="522.8359" fill="none" rx="3" ry="3" style="stroke:#038048;stroke-width:1.0;"/><text fill="#000000" font-family="sans-serif" font-size="14" lengthAdjust="spacing" textLength="174" x="27" y="526.1826">providerAccountId: String</text><ellipse cx="18" cy="539.1328" fill="none" rx="3" ry="3" style="stroke:#038048;stroke-width:1.0;"/><text fill="#000000" font-family="sans-serif" font-size="14" lengthAdjust="spacing" textLength="145" x="27" y="542.4795">refresh_token: String</text><ellipse cx="18" cy="555.4297" fill="none" rx="3" ry="3" style="stroke:#038048;stroke-width:1.0;"/><text fill="#000000" font-family="sans-serif" font-size="14" lengthAdjust="spacing" textLength="145" x="27" y="558.7764">access_token: String</text><ellipse cx="18" cy="571.7266" fill="none" rx="3" ry="3" style="stroke:#038048;stroke-width:1.0;"/><text fill="#000000" font-family="sans-serif" font-size="14" lengthAdjust="spacing" textLength="96" x="27" y="575.0732">expires_at: Int</text><ellipse cx="18" cy="588.0234" fill="none" rx="3" ry="3" style="stroke:#038048;stroke-width:1.0;"/><text fill="#000000" font-family="sans-serif" font-size="14" lengthAdjust="spacing" textLength="126" x="27" y="591.3701">token_type: String</text><ellipse cx="18" cy="604.3203" fill="none" rx="3" ry="3" style="stroke:#038048;stroke-width:1.0;"/><text fill="#000000" font-family="sans-serif" font-size="14" lengthAdjust="spacing" textLength="92" x="27" y="607.667">scope: String</text><ellipse cx="18" cy="620.6172" fill="none" rx="3" ry="3" style="stroke:#038048;stroke-width:1.0;"/><text fill="#000000" font-family="sans-serif" font-size="14" lengthAdjust="spacing" textLength="108" x="27" y="623.9639">id_token: String</text><ellipse cx="18" cy="636.9141" fill="none" rx="3" ry="3" style="stroke:#038048;stroke-width:1.0;"/><text fill="#000000" font-family="sans-serif" font-size="14" lengthAdjust="spacing" textLength="145" x="27" y="640.2607">session_state: String</text><line style="stroke:#181818;stroke-width:0.5;" x1="8" x2="206" y1="647.5625" y2="647.5625"/></g><!--class Session--><g id="elem_Session"><rect codeLine="17" fill="#F1F1F1" height="113.1875" id="Session" rx="2.5" ry="2.5" style="stroke:#181818;stroke-width:0.5;" width="173" x="405.5" y="477.5"/><ellipse cx="460.25" cy="493.5" fill="#ADD1B2" rx="11" ry="11" style="stroke:#181818;stroke-width:1.0;"/><path d="M463.2188,499.1406 Q462.6406,499.4375 462,499.5781 Q461.3594,499.7344 460.6563,499.7344 Q458.1563,499.7344 456.8281,498.0938 Q455.5156,496.4375 455.5156,493.3125 Q455.5156,490.1875 456.8281,488.5313 Q458.1563,486.875 460.6563,486.875 Q461.3594,486.875 462,487.0313 Q462.6563,487.1875 463.2188,487.4844 L463.2188,490.2031 Q462.5938,489.625 462,489.3594 Q461.4063,489.0781 460.7813,489.0781 Q459.4375,489.0781 458.75,490.1563 Q458.0625,491.2188 458.0625,493.3125 Q458.0625,495.4063 458.75,496.4844 Q459.4375,497.5469 460.7813,497.5469 Q461.4063,497.5469 462,497.2813 Q462.5938,497 463.2188,496.4219 L463.2188,499.1406 Z " fill="#000000"/><text fill="#000000" font-family="sans-serif" font-size="14" lengthAdjust="spacing" textLength="55" x="480.75" y="498.3467">Session</text><line style="stroke:#181818;stroke-width:0.5;" x1="406.5" x2="577.5" y1="509.5" y2="509.5"/><ellipse cx="416.5" cy="523.1484" fill="none" rx="3" ry="3" style="stroke:#038048;stroke-width:1.0;"/><text fill="#000000" font-family="sans-serif" font-size="14" lengthAdjust="spacing" textLength="61" x="425.5" y="526.4951">id: String</text><ellipse cx="416.5" cy="539.4453" fill="none" rx="3" ry="3" style="stroke:#038048;stroke-width:1.0;"/><text fill="#000000" font-family="sans-serif" font-size="14" lengthAdjust="spacing" textLength="147" x="425.5" y="542.792">sessionToken: String</text><ellipse cx="416.5" cy="555.7422" fill="none" rx="3" ry="3" style="stroke:#038048;stroke-width:1.0;"/><text fill="#000000" font-family="sans-serif" font-size="14" lengthAdjust="spacing" textLength="92" x="425.5" y="559.0889">userId: String</text><ellipse cx="416.5" cy="572.0391" fill="none" rx="3" ry="3" style="stroke:#038048;stroke-width:1.0;"/><text fill="#000000" font-family="sans-serif" font-size="14" lengthAdjust="spacing" textLength="126" x="425.5" y="575.3857">expires: DateTime</text><line style="stroke:#181818;stroke-width:0.5;" x1="406.5" x2="577.5" y1="582.6875" y2="582.6875"/></g><!--class User--><g id="elem_User"><rect codeLine="24" fill="#F1F1F1" height="129.4844" id="User" rx="2.5" ry="2.5" style="stroke:#181818;stroke-width:0.5;" width="189" x="190.5" y="223"/><ellipse cx="264.75" cy="239" fill="#ADD1B2" rx="11" ry="11" style="stroke:#181818;stroke-width:1.0;"/><path d="M267.7188,244.6406 Q267.1406,244.9375 266.5,245.0781 Q265.8594,245.2344 265.1563,245.2344 Q262.6563,245.2344 261.3281,243.5938 Q260.0156,241.9375 260.0156,238.8125 Q260.0156,235.6875 261.3281,234.0313 Q262.6563,232.375 265.1563,232.375 Q265.8594,232.375 266.5,232.5313 Q267.1563,232.6875 267.7188,232.9844 L267.7188,235.7031 Q267.0938,235.125 266.5,234.8594 Q265.9063,234.5781 265.2813,234.5781 Q263.9375,234.5781 263.25,235.6563 Q262.5625,236.7188 262.5625,238.8125 Q262.5625,240.9063 263.25,241.9844 Q263.9375,243.0469 265.2813,243.0469 Q265.9063,243.0469 266.5,242.7813 Q267.0938,242.5 267.7188,241.9219 L267.7188,244.6406 Z " fill="#000000"/><text fill="#000000" font-family="sans-serif" font-size="14" lengthAdjust="spacing" textLength="32" x="285.25" y="243.8467">User</text><line style="stroke:#181818;stroke-width:0.5;" x1="191.5" x2="378.5" y1="255" y2="255"/><ellipse cx="201.5" cy="268.6484" fill="none" rx="3" ry="3" style="stroke:#038048;stroke-width:1.0;"/><text fill="#000000" font-family="sans-serif" font-size="14" lengthAdjust="spacing" textLength="61" x="210.5" y="271.9951">id: String</text><ellipse cx="201.5" cy="284.9453" fill="none" rx="3" ry="3" style="stroke:#038048;stroke-width:1.0;"/><text fill="#000000" font-family="sans-serif" font-size="14" lengthAdjust="spacing" textLength="88" x="210.5" y="288.292">name: String</text><ellipse cx="201.5" cy="301.2422" fill="none" rx="3" ry="3" style="stroke:#038048;stroke-width:1.0;"/><text fill="#000000" font-family="sans-serif" font-size="14" lengthAdjust="spacing" textLength="85" x="210.5" y="304.5889">email: String</text><ellipse cx="201.5" cy="317.5391" fill="none" rx="3" ry="3" style="stroke:#038048;stroke-width:1.0;"/><text fill="#000000" font-family="sans-serif" font-size="14" lengthAdjust="spacing" textLength="163" x="210.5" y="320.8857">emailVerified: DateTime</text><ellipse cx="201.5" cy="333.8359" fill="none" rx="3" ry="3" style="stroke:#038048;stroke-width:1.0;"/><text fill="#000000" font-family="sans-serif" font-size="14" lengthAdjust="spacing" textLength="91" x="210.5" y="337.1826">image: String</text><line style="stroke:#181818;stroke-width:0.5;" x1="191.5" x2="378.5" y1="344.4844" y2="344.4844"/></g><!--class Listing--><g id="elem_Listing"><rect codeLine="32" fill="#F1F1F1" height="178.375" id="Listing" rx="2.5" ry="2.5" style="stroke:#181818;stroke-width:0.5;" width="152" x="760" y="445"/><ellipse cx="809.75" cy="461" fill="#ADD1B2" rx="11" ry="11" style="stroke:#181818;stroke-width:1.0;"/><path d="M812.7188,466.6406 Q812.1406,466.9375 811.5,467.0781 Q810.8594,467.2344 810.1563,467.2344 Q807.6563,467.2344 806.3281,465.5938 Q805.0156,463.9375 805.0156,460.8125 Q805.0156,457.6875 806.3281,456.0313 Q807.6563,454.375 810.1563,454.375 Q810.8594,454.375 811.5,454.5313 Q812.1563,454.6875 812.7188,454.9844 L812.7188,457.7031 Q812.0938,457.125 811.5,456.8594 Q810.9063,456.5781 810.2813,456.5781 Q808.9375,456.5781 808.25,457.6563 Q807.5625,458.7188 807.5625,460.8125 Q807.5625,462.9063 808.25,463.9844 Q808.9375,465.0469 810.2813,465.0469 Q810.9063,465.0469 811.5,464.7813 Q812.0938,464.5 812.7188,463.9219 L812.7188,466.6406 Z " fill="#000000"/><text fill="#000000" font-family="sans-serif" font-size="14" lengthAdjust="spacing" textLength="44" x="830.25" y="465.8467">Listing</text><line style="stroke:#181818;stroke-width:0.5;" x1="761" x2="911" y1="477" y2="477"/><ellipse cx="771" cy="490.6484" fill="none" rx="3" ry="3" style="stroke:#038048;stroke-width:1.0;"/><text fill="#000000" font-family="sans-serif" font-size="14" lengthAdjust="spacing" textLength="61" x="780" y="493.9951">id: String</text><ellipse cx="771" cy="506.9453" fill="none" rx="3" ry="3" style="stroke:#038048;stroke-width:1.0;"/><text fill="#000000" font-family="sans-serif" font-size="14" lengthAdjust="spacing" textLength="74" x="780" y="510.292">title: String</text><ellipse cx="771" cy="523.2422" fill="none" rx="3" ry="3" style="stroke:#038048;stroke-width:1.0;"/><text fill="#000000" font-family="sans-serif" font-size="14" lengthAdjust="spacing" textLength="126" x="780" y="526.5889">description: String</text><ellipse cx="771" cy="539.5391" fill="none" rx="3" ry="3" style="stroke:#038048;stroke-width:1.0;"/><text fill="#000000" font-family="sans-serif" font-size="14" lengthAdjust="spacing" textLength="76" x="780" y="542.8857">price: Float</text><ellipse cx="771" cy="555.8359" fill="none" rx="3" ry="3" style="stroke:#038048;stroke-width:1.0;"/><text fill="#000000" font-family="sans-serif" font-size="14" lengthAdjust="spacing" textLength="91" x="780" y="559.1826">image: String</text><ellipse cx="771" cy="572.1328" fill="none" rx="3" ry="3" style="stroke:#038048;stroke-width:1.0;"/><text fill="#000000" font-family="sans-serif" font-size="14" lengthAdjust="spacing" textLength="92" x="780" y="575.4795">userId: String</text><ellipse cx="771" cy="588.4297" fill="none" rx="3" ry="3" style="stroke:#038048;stroke-width:1.0;"/><text fill="#000000" font-family="sans-serif" font-size="14" lengthAdjust="spacing" textLength="92" x="780" y="591.7764">status: String</text><ellipse cx="771" cy="604.7266" fill="none" rx="3" ry="3" style="stroke:#038048;stroke-width:1.0;"/><text fill="#000000" font-family="sans-serif" font-size="14" lengthAdjust="spacing" textLength="126" x="780" y="608.0732">expires: DateTime</text><line style="stroke:#181818;stroke-width:0.5;" x1="761" x2="911" y1="615.375" y2="615.375"/></g><!--class Bid--><g id="elem_Bid"><rect codeLine="43" fill="#F1F1F1" height="113.1875" id="Bid" rx="2.5" ry="2.5" style="stroke:#181818;stroke-width:0.5;" width="127" x="1038.5" y="477.5"/><ellipse cx="1086.75" cy="493.5" fill="#ADD1B2" rx="11" ry="11" style="stroke:#181818;stroke-width:1.0;"/><path d="M1089.7188,499.1406 Q1089.1406,499.4375 1088.5,499.5781 Q1087.8594,499.7344 1087.1563,499.7344 Q1084.6563,499.7344 1083.3281,498.0938 Q1082.0156,496.4375 1082.0156,493.3125 Q1082.0156,490.1875 1083.3281,488.5313 Q1084.6563,486.875 1087.1563,486.875 Q1087.8594,486.875 1088.5,487.0313 Q1089.1563,487.1875 1089.7188,487.4844 L1089.7188,490.2031 Q1089.0938,489.625 1088.5,489.3594 Q1087.9063,489.0781 1087.2813,489.0781 Q1085.9375,489.0781 1085.25,490.1563 Q1084.5625,491.2188 1084.5625,493.3125 Q1084.5625,495.4063 1085.25,496.4844 Q1085.9375,497.5469 1087.2813,497.5469 Q1087.9063,497.5469 1088.5,497.2813 Q1089.0938,497 1089.7188,496.4219 L1089.7188,499.1406 Z " fill="#000000"/><text fill="#000000" font-family="sans-serif" font-size="14" lengthAdjust="spacing" textLength="22" x="1107.25" y="498.3467">Bid</text><line style="stroke:#181818;stroke-width:0.5;" x1="1039.5" x2="1164.5" y1="509.5" y2="509.5"/><ellipse cx="1049.5" cy="523.1484" fill="none" rx="3" ry="3" style="stroke:#038048;stroke-width:1.0;"/><text fill="#000000" font-family="sans-serif" font-size="14" lengthAdjust="spacing" textLength="61" x="1058.5" y="526.4951">id: String</text><ellipse cx="1049.5" cy="539.4453" fill="none" rx="3" ry="3" style="stroke:#038048;stroke-width:1.0;"/><text fill="#000000" font-family="sans-serif" font-size="14" lengthAdjust="spacing" textLength="76" x="1058.5" y="542.792">price: Float</text><ellipse cx="1049.5" cy="555.7422" fill="none" rx="3" ry="3" style="stroke:#038048;stroke-width:1.0;"/><text fill="#000000" font-family="sans-serif" font-size="14" lengthAdjust="spacing" textLength="92" x="1058.5" y="559.0889">userId: String</text><ellipse cx="1049.5" cy="572.0391" fill="none" rx="3" ry="3" style="stroke:#038048;stroke-width:1.0;"/><text fill="#000000" font-family="sans-serif" font-size="14" lengthAdjust="spacing" textLength="101" x="1058.5" y="575.3857">listingId: String</text><line style="stroke:#181818;stroke-width:0.5;" x1="1039.5" x2="1164.5" y1="582.6875" y2="582.6875"/></g><!--class LandingPage--><g id="elem_LandingPage"><rect codeLine="50" fill="#F1F1F1" height="48" id="LandingPage" rx="2.5" ry="2.5" style="stroke:#181818;stroke-width:0.5;" width="121" x="937.5" y="7"/><ellipse cx="952.5" cy="23" fill="#B4A7E5" rx="11" ry="11" style="stroke:#181818;stroke-width:1.0;"/><path d="M948.4219,18.7656 L948.4219,16.6094 L955.8125,16.6094 L955.8125,18.7656 L953.3438,18.7656 L953.3438,26.8438 L955.8125,26.8438 L955.8125,29 L948.4219,29 L948.4219,26.8438 L950.8906,26.8438 L950.8906,18.7656 L948.4219,18.7656 Z " fill="#000000"/><text fill="#000000" font-family="sans-serif" font-size="14" font-style="italic" lengthAdjust="spacing" textLength="89" x="966.5" y="27.8467">LandingPage</text><line style="stroke:#181818;stroke-width:0.5;" x1="938.5" x2="1057.5" y1="39" y2="39"/><line style="stroke:#181818;stroke-width:0.5;" x1="938.5" x2="1057.5" y1="47" y2="47"/></g><!--class AboutPage--><g id="elem_AboutPage"><rect codeLine="51" fill="#F1F1F1" height="48" id="AboutPage" rx="2.5" ry="2.5" style="stroke:#181818;stroke-width:0.5;" width="108" x="1015" y="115"/><ellipse cx="1030" cy="131" fill="#B4A7E5" rx="11" ry="11" style="stroke:#181818;stroke-width:1.0;"/><path d="M1025.9219,126.7656 L1025.9219,124.6094 L1033.3125,124.6094 L1033.3125,126.7656 L1030.8438,126.7656 L1030.8438,134.8438 L1033.3125,134.8438 L1033.3125,137 L1025.9219,137 L1025.9219,134.8438 L1028.3906,134.8438 L1028.3906,126.7656 L1025.9219,126.7656 Z " fill="#000000"/><text fill="#000000" font-family="sans-serif" font-size="14" font-style="italic" lengthAdjust="spacing" textLength="76" x="1044" y="135.8467">AboutPage</text><line style="stroke:#181818;stroke-width:0.5;" x1="1016" x2="1122" y1="147" y2="147"/><line style="stroke:#181818;stroke-width:0.5;" x1="1016" x2="1122" y1="155" y2="155"/></g><!--class LoginPage--><g id="elem_LoginPage"><rect codeLine="52" fill="#F1F1F1" height="48" id="LoginPage" rx="2.5" ry="2.5" style="stroke:#181818;stroke-width:0.5;" width="104" x="876" y="115"/><ellipse cx="891" cy="131" fill="#B4A7E5" rx="11" ry="11" style="stroke:#181818;stroke-width:1.0;"/><path d="M886.9219,126.7656 L886.9219,124.6094 L894.3125,124.6094 L894.3125,126.7656 L891.8438,126.7656 L891.8438,134.8438 L894.3125,134.8438 L894.3125,137 L886.9219,137 L886.9219,134.8438 L889.3906,134.8438 L889.3906,126.7656 L886.9219,126.7656 Z " fill="#000000"/><text fill="#000000" font-family="sans-serif" font-size="14" font-style="italic" lengthAdjust="spacing" textLength="72" x="905" y="135.8467">LoginPage</text><line style="stroke:#181818;stroke-width:0.5;" x1="877" x2="979" y1="147" y2="147"/><line style="stroke:#181818;stroke-width:0.5;" x1="877" x2="979" y1="155" y2="155"/></g><!--class ViewListings--><g id="elem_ViewListings"><rect codeLine="53" fill="#F1F1F1" height="48" id="ViewListings" rx="2.5" ry="2.5" style="stroke:#181818;stroke-width:0.5;" width="116" x="624" y="263.5"/><ellipse cx="639" cy="279.5" fill="#B4A7E5" rx="11" ry="11" style="stroke:#181818;stroke-width:1.0;"/><path d="M634.9219,275.2656 L634.9219,273.1094 L642.3125,273.1094 L642.3125,275.2656 L639.8438,275.2656 L639.8438,283.3438 L642.3125,283.3438 L642.3125,285.5 L634.9219,285.5 L634.9219,283.3438 L637.3906,283.3438 L637.3906,275.2656 L634.9219,275.2656 Z " fill="#000000"/><text fill="#000000" font-family="sans-serif" font-size="14" font-style="italic" lengthAdjust="spacing" textLength="84" x="653" y="284.3467">ViewListings</text><line style="stroke:#181818;stroke-width:0.5;" x1="625" x2="739" y1="295.5" y2="295.5"/><line style="stroke:#181818;stroke-width:0.5;" x1="625" x2="739" y1="303.5" y2="303.5"/></g><!--class AddBid--><g id="elem_AddBid"><rect codeLine="54" fill="#F1F1F1" height="48" id="AddBid" rx="2.5" ry="2.5" style="stroke:#181818;stroke-width:0.5;" width="82" x="1143" y="263.5"/><ellipse cx="1158" cy="279.5" fill="#B4A7E5" rx="11" ry="11" style="stroke:#181818;stroke-width:1.0;"/><path d="M1153.9219,275.2656 L1153.9219,273.1094 L1161.3125,273.1094 L1161.3125,275.2656 L1158.8438,275.2656 L1158.8438,283.3438 L1161.3125,283.3438 L1161.3125,285.5 L1153.9219,285.5 L1153.9219,283.3438 L1156.3906,283.3438 L1156.3906,275.2656 L1153.9219,275.2656 Z " fill="#000000"/><text fill="#000000" font-family="sans-serif" font-size="14" font-style="italic" lengthAdjust="spacing" textLength="50" x="1172" y="284.3467">AddBid</text><line style="stroke:#181818;stroke-width:0.5;" x1="1144" x2="1224" y1="295.5" y2="295.5"/><line style="stroke:#181818;stroke-width:0.5;" x1="1144" x2="1224" y1="303.5" y2="303.5"/></g><!--class CreateListing--><g id="elem_CreateListing"><rect codeLine="55" fill="#F1F1F1" height="48" id="CreateListing" rx="2.5" ry="2.5" style="stroke:#181818;stroke-width:0.5;" width="122" x="775" y="263.5"/><ellipse cx="790" cy="279.5" fill="#B4A7E5" rx="11" ry="11" style="stroke:#181818;stroke-width:1.0;"/><path d="M785.9219,275.2656 L785.9219,273.1094 L793.3125,273.1094 L793.3125,275.2656 L790.8438,275.2656 L790.8438,283.3438 L793.3125,283.3438 L793.3125,285.5 L785.9219,285.5 L785.9219,283.3438 L788.3906,283.3438 L788.3906,275.2656 L785.9219,275.2656 Z " fill="#000000"/><text fill="#000000" font-family="sans-serif" font-size="14" font-style="italic" lengthAdjust="spacing" textLength="90" x="804" y="284.3467">CreateListing</text><line style="stroke:#181818;stroke-width:0.5;" x1="776" x2="896" y1="295.5" y2="295.5"/><line style="stroke:#181818;stroke-width:0.5;" x1="776" x2="896" y1="303.5" y2="303.5"/></g><!--class UserListingsBidsView--><g id="elem_UserListingsBidsView"><rect codeLine="56" fill="#F1F1F1" height="48" id="UserListingsBidsView" rx="2.5" ry="2.5" style="stroke:#181818;stroke-width:0.5;" width="176" x="932" y="263.5"/><ellipse cx="947" cy="279.5" fill="#B4A7E5" rx="11" ry="11" style="stroke:#181818;stroke-width:1.0;"/><path d="M942.9219,275.2656 L942.9219,273.1094 L950.3125,273.1094 L950.3125,275.2656 L947.8438,275.2656 L947.8438,283.3438 L950.3125,283.3438 L950.3125,285.5 L942.9219,285.5 L942.9219,283.3438 L945.3906,283.3438 L945.3906,275.2656 L942.9219,275.2656 Z " fill="#000000"/><text fill="#000000" font-family="sans-serif" font-size="14" font-style="italic" lengthAdjust="spacing" textLength="144" x="961" y="284.3467">UserListingsBidsView</text><line style="stroke:#181818;stroke-width:0.5;" x1="933" x2="1107" y1="295.5" y2="295.5"/><line style="stroke:#181818;stroke-width:0.5;" x1="933" x2="1107" y1="303.5" y2="303.5"/></g><!--class AdminInterface--><g id="elem_AdminInterface"><rect codeLine="57" fill="#F1F1F1" height="48" id="AdminInterface" rx="2.5" ry="2.5" style="stroke:#181818;stroke-width:0.5;" width="137" x="1260.5" y="263.5"/><ellipse cx="1275.5" cy="279.5" fill="#B4A7E5" rx="11" ry="11" style="stroke:#181818;stroke-width:1.0;"/><path d="M1271.4219,275.2656 L1271.4219,273.1094 L1278.8125,273.1094 L1278.8125,275.2656 L1276.3438,275.2656 L1276.3438,283.3438 L1278.8125,283.3438 L1278.8125,285.5 L1271.4219,285.5 L1271.4219,283.3438 L1273.8906,283.3438 L1273.8906,275.2656 L1271.4219,275.2656 Z " fill="#000000"/><text fill="#000000" font-family="sans-serif" font-size="14" font-style="italic" lengthAdjust="spacing" textLength="105" x="1289.5" y="284.3467">AdminInterface</text><line style="stroke:#181818;stroke-width:0.5;" x1="1261.5" x2="1396.5" y1="295.5" y2="295.5"/><line style="stroke:#181818;stroke-width:0.5;" x1="1261.5" x2="1396.5" y1="303.5" y2="303.5"/></g><!--class UserGroup--><g id="elem_UserGroup"><rect fill="#F1F1F1" height="48" id="UserGroup" rx="2.5" ry="2.5" style="stroke:#181818;stroke-width:0.5;" width="107" x="242.5" y="510"/><ellipse cx="257.5" cy="526" fill="#ADD1B2" rx="11" ry="11" style="stroke:#181818;stroke-width:1.0;"/><path d="M260.4688,531.6406 Q259.8906,531.9375 259.25,532.0781 Q258.6094,532.2344 257.9063,532.2344 Q255.4063,532.2344 254.0781,530.5938 Q252.7656,528.9375 252.7656,525.8125 Q252.7656,522.6875 254.0781,521.0313 Q255.4063,519.375 257.9063,519.375 Q258.6094,519.375 259.25,519.5313 Q259.9063,519.6875 260.4688,519.9844 L260.4688,522.7031 Q259.8438,522.125 259.25,521.8594 Q258.6563,521.5781 258.0313,521.5781 Q256.6875,521.5781 256,522.6563 Q255.3125,523.7188 255.3125,525.8125 Q255.3125,527.9063 256,528.9844 Q256.6875,530.0469 258.0313,530.0469 Q258.6563,530.0469 259.25,529.7813 Q259.8438,529.5 260.4688,528.9219 L260.4688,531.6406 Z " fill="#000000"/><text fill="#000000" font-family="sans-serif" font-size="14" lengthAdjust="spacing" textLength="75" x="271.5" y="530.8467">UserGroup</text><line style="stroke:#181818;stroke-width:0.5;" x1="243.5" x2="348.5" y1="542" y2="542"/><line style="stroke:#181818;stroke-width:0.5;" x1="243.5" x2="348.5" y1="550" y2="550"/></g><!--class AuthenticationRoute--><g id="elem_AuthenticationRoute"><rect fill="#F1F1F1" height="48" id="AuthenticationRoute" rx="2.5" ry="2.5" style="stroke:#181818;stroke-width:0.5;" width="174" x="415" y="263.5"/><ellipse cx="430" cy="279.5" fill="#ADD1B2" rx="11" ry="11" style="stroke:#181818;stroke-width:1.0;"/><path d="M432.9688,285.1406 Q432.3906,285.4375 431.75,285.5781 Q431.1094,285.7344 430.4063,285.7344 Q427.9063,285.7344 426.5781,284.0938 Q425.2656,282.4375 425.2656,279.3125 Q425.2656,276.1875 426.5781,274.5313 Q427.9063,272.875 430.4063,272.875 Q431.1094,272.875 431.75,273.0313 Q432.4063,273.1875 432.9688,273.4844 L432.9688,276.2031 Q432.3438,275.625 431.75,275.3594 Q431.1563,275.0781 430.5313,275.0781 Q429.1875,275.0781 428.5,276.1563 Q427.8125,277.2188 427.8125,279.3125 Q427.8125,281.4063 428.5,282.4844 Q429.1875,283.5469 430.5313,283.5469 Q431.1563,283.5469 431.75,283.2813 Q432.3438,283 432.9688,282.4219 L432.9688,285.1406 Z " fill="#000000"/><text fill="#000000" font-family="sans-serif" font-size="14" lengthAdjust="spacing" textLength="142" x="444" y="284.3467">AuthenticationRoute</text><line style="stroke:#181818;stroke-width:0.5;" x1="416" x2="588" y1="295.5" y2="295.5"/><line style="stroke:#181818;stroke-width:0.5;" x1="416" x2="588" y1="303.5" y2="303.5"/></g><!--link User to Session--><g id="link_User_Session"><path codeLine="60" d="M338.85,352.1 C371.67,390.87 413.22,439.95 444.76,477.21 " fill="none" id="User-Session" style="stroke:#181818;stroke-width:1.0;"/><text fill="#000000" font-family="sans-serif" font-size="13" lengthAdjust="spacing" textLength="8" x="336.6139" y="372.4831">1</text><text fill="#000000" font-family="sans-serif" font-size="13" lengthAdjust="spacing" textLength="23" x="414.6011" y="466.4382">0..*</text></g><!--link User to Account--><g id="link_User_Account"><path codeLine="61" d="M238.7,352.1 C225.31,370.5 210.22,391.21 195.18,411.88 " fill="none" id="User-Account" style="stroke:#181818;stroke-width:1.0;"/><text fill="#000000" font-family="sans-serif" font-size="13" lengthAdjust="spacing" textLength="8" x="224.8841" y="372.4831">1</text><text fill="#000000" font-family="sans-serif" font-size="13" lengthAdjust="spacing" textLength="23" x="176.8527" y="401.0656">1..*</text></g><!--link User to UserGroup--><g id="link_User_UserGroup"><path codeLine="62" d="M287.86,352.1 C290.19,403.89 293.35,474.08 294.96,509.89 " fill="none" id="User-UserGroup" style="stroke:#181818;stroke-width:1.0;"/><text fill="#000000" font-family="sans-serif" font-size="13" lengthAdjust="spacing" textLength="8" x="279.7282" y="372.4831">1</text><text fill="#000000" font-family="sans-serif" font-size="13" lengthAdjust="spacing" textLength="23" x="268.7466" y="498.8738">1..*</text></g><!--link AuthenticationRoute to Session--><g id="link_AuthenticationRoute_Session"><path codeLine="65" d="M501.06,311.5 C499.52,349.19 497.1449,407.125 495.0049,459.495 " fill="none" id="AuthenticationRoute-to-Session" style="stroke:#181818;stroke-width:1.0;"/><polygon fill="none" points="494.27,477.48,500.9999,459.74,489.0099,459.25,494.27,477.48" style="stroke:#181818;stroke-width:1.0;"/></g><!--link LandingPage to AboutPage--><g id="link_LandingPage_AboutPage"><path codeLine="68" d="M1013.41,55 C1025.23,72.66 1038.1614,91.9546 1050.0414,109.6946 " fill="none" id="LandingPage-to-AboutPage" style="stroke:#181818;stroke-width:1.0;"/><polygon fill="#181818" points="1053.38,114.68,1051.6957,104.9762,1050.5979,110.5255,1045.0486,109.4277,1053.38,114.68" style="stroke:#181818;stroke-width:1.0;"/></g><!--link LandingPage to LoginPage--><g id="link_LandingPage_LoginPage"><path codeLine="69" d="M982.81,55 C971.15,72.66 958.4154,91.9326 946.7054,109.6726 " fill="none" id="LandingPage-to-LoginPage" style="stroke:#181818;stroke-width:1.0;"/><polygon fill="#181818" points="943.4,114.68,951.6964,109.3724,946.1545,110.5071,945.0198,104.9652,943.4,114.68" style="stroke:#181818;stroke-width:1.0;"/></g><!--link LoginPage to AuthenticationRoute--><g id="link_LoginPage_AuthenticationRoute"><path codeLine="70" d="M875.72,148.55 C810.71,160.28 697.18,184.43 606,223 C580.67,233.72 559.2299,246.5733 539.3499,259.9333 " fill="none" id="LoginPage-to-AuthenticationRoute" style="stroke:#181818;stroke-width:1.0;"/><polygon fill="#181818" points="534.37,263.28,544.071,261.5799,538.5199,260.4911,539.6088,254.94,534.37,263.28" style="stroke:#181818;stroke-width:1.0;"/></g><!--link LoginPage to ViewListings--><g id="link_LoginPage_ViewListings"><path codeLine="71" d="M875.68,161.3 C840.86,176.45 794.75,198.42 757,223 C738.84,234.82 724.6805,246.5049 710.5505,259.3449 " fill="none" id="LoginPage-to-ViewListings" style="stroke:#181818;stroke-width:1.0;"/><polygon fill="#181818" points="706.11,263.38,715.4608,260.2877,709.8104,260.0174,710.0807,254.367,706.11,263.38" style="stroke:#181818;stroke-width:1.0;"/></g><!--link LoginPage to AddBid--><g id="link_LoginPage_AddBid"><path codeLine="72" d="M980.07,159.08 C1029.8,177.81 1100.67,205.98 1125,223 C1140.91,234.13 1151.9508,245.5243 1162.7808,258.7043 " fill="none" id="LoginPage-to-AddBid" style="stroke:#181818;stroke-width:1.0;"/><polygon fill="#181818" points="1166.59,263.34,1163.9667,253.8469,1163.4157,259.4769,1157.7857,258.9258,1166.59,263.34" style="stroke:#181818;stroke-width:1.0;"/></g><!--link LoginPage to CreateListing--><g id="link_LoginPage_CreateListing"><path codeLine="73" d="M913.42,163.21 C896.2,190.65 870.9008,230.9288 853.7008,258.3188 " fill="none" id="LoginPage-to-CreateListing" style="stroke:#181818;stroke-width:1.0;"/><polygon fill="#181818" points="850.51,263.4,858.6837,257.9054,853.169,259.1657,851.9088,253.651,850.51,263.4" style="stroke:#181818;stroke-width:1.0;"/></g><!--link LoginPage to UserListingsBidsView--><g id="link_LoginPage_UserListingsBidsView"><path codeLine="74" d="M942.58,163.21 C959.8,190.65 985.0992,230.9288 1002.2992,258.3188 " fill="none" id="LoginPage-to-UserListingsBidsView" style="stroke:#181818;stroke-width:1.0;"/><polygon fill="#181818" points="1005.49,263.4,1004.0912,253.651,1002.831,259.1657,997.3163,257.9054,1005.49,263.4" style="stroke:#181818;stroke-width:1.0;"/></g><!--link LoginPage to AdminInterface--><g id="link_LoginPage_AdminInterface"><path codeLine="75" d="M980.23,157.91 C985.87,159.69 991.54,161.42 997,163 C1104.71,194.08 1140.35,175.72 1242,223 C1264.21,233.33 1281.8361,245.9086 1298.2861,259.4386 " fill="none" id="LoginPage-to-AdminInterface" style="stroke:#181818;stroke-width:1.0;"/><polygon fill="#181818" points="1302.92,263.25,1298.51,254.4436,1299.0584,260.0739,1293.4282,260.6222,1302.92,263.25" style="stroke:#181818;stroke-width:1.0;"/></g><!--link ViewListings to Listing--><g id="link_ViewListings_Listing"><path codeLine="79" d="M696.49,311.5 C715.62,341.87 747.2031,392.0126 777.2431,439.7226 " fill="none" id="ViewListings-to-Listing" style="stroke:#181818;stroke-width:1.0;stroke-dasharray:7.0,7.0;"/><polygon fill="#181818" points="780.44,444.8,779.0296,435.0527,777.7759,440.5689,772.2597,439.3152,780.44,444.8" style="stroke:#181818;stroke-width:1.0;"/></g><!--link AddBid to Bid--><g id="link_AddBid_Bid"><path codeLine="80" d="M1176.29,311.5 C1163.65,349.19 1140.0875,419.4213 1122.5275,471.7913 " fill="none" id="AddBid-to-Bid" style="stroke:#181818;stroke-width:1.0;stroke-dasharray:7.0,7.0;"/><polygon fill="#181818" points="1120.62,477.48,1127.2737,470.2186,1122.2096,472.7394,1119.6887,467.6753,1120.62,477.48" style="stroke:#181818;stroke-width:1.0;"/></g><!--link CreateListing to Listing--><g id="link_CreateListing_Listing"><path codeLine="81" d="M836,311.5 C836,341.87 836,391.09 836,438.8 " fill="none" id="CreateListing-to-Listing" style="stroke:#181818;stroke-width:1.0;stroke-dasharray:7.0,7.0;"/><polygon fill="#181818" points="836,444.8,840,435.8,836,439.8,832,435.8,836,444.8" style="stroke:#181818;stroke-width:1.0;"/></g><!--link UserListingsBidsView to Listing--><g id="link_UserListingsBidsView_Listing"><path codeLine="82" d="M1002.69,311.5 C979.83,341.87 941.8876,392.2957 905.9876,440.0057 " fill="none" id="UserListingsBidsView-to-Listing" style="stroke:#181818;stroke-width:1.0;stroke-dasharray:7.0,7.0;"/><polygon fill="#181818" points="902.38,444.8,910.9875,440.0135,905.3863,440.8047,904.5951,435.2035,902.38,444.8" style="stroke:#181818;stroke-width:1.0;"/></g><!--link UserListingsBidsView to Bid--><g id="link_UserListingsBidsView_Bid"><path codeLine="83" d="M1027.71,311.5 C1040.35,349.19 1063.9125,419.4213 1081.4725,471.7913 " fill="none" id="UserListingsBidsView-to-Bid" style="stroke:#181818;stroke-width:1.0;stroke-dasharray:7.0,7.0;"/><polygon fill="#181818" points="1083.38,477.48,1084.3113,467.6753,1081.7904,472.7394,1076.7263,470.2186,1083.38,477.48" style="stroke:#181818;stroke-width:1.0;"/></g><!--SRC=[ZLEnRXin3Dtr5OIN0YrY9Ai70sw31WOy54sQrL0asY5w9nqaNjEWxR-NEfzZwKv3DkcHV7nyb4oZOuIDCRvt37yKm2UoAxZdGEwORdt4i2qGVkqmltV1_oABeOQDn2L1m4F0-Bnd_nDT7j36O8np77zt91LxpIlOEXv4f9pzL4eqlWJ8pjcYz23lzf4rNvB_AMK6B-vFuPeNO-N3b77kqQXu1RVIuu5QlF3_aEGQkTDj8HrRJSqCUCH01qARCIUcLXyhe-meiW2rRapS5EqiHXEeOvclN2GPoVlQUCtpJjNPawzzVASRdydMv4tRphiqfzaoK3Z9COQ3DWWxxQo0tqHjXcwUVCyJREUFv2RO8-7BQ5xCowqLlHdm9Q1CD6PcUDhnkLugOk8hU5fos_DLgG_W7G9xQBLx1R756z9f4_24_8Be8CqFCXACJp2guHajRXPmTGMBw-Nou-BySilGpH0Q_s4jbA2xuFjEARNf-HaTancwVnUpK3B_hj-ebSgCbT0witGQkHZxTZfLp9jCCWhx9yMd5PHWkOOoLbt5bBDSX-p3OeVEeZE4KULoOBbSd_-LEeaPe2Iga54araIyBo7n_WS0]--></g></svg>