<?xml version="1.0" encoding="us-ascii" standalone="no"?><svg xmlns="http://www.w3.org/2000/svg" xmlns:xlink="http://www.w3.org/1999/xlink" contentStyleType="text/css" height="452px" preserveAspectRatio="none" style="width:464px;height:452px;background:#FFFFFF;" version="1.1" viewBox="0 0 464 452" width="464px" zoomAndPan="magnify"><defs/><g><!--cluster Auction Site--><g id="cluster_Auction Site"><rect fill="none" height="439" rx="2.5" ry="2.5" style="stroke:#181818;stroke-width:1.0;" width="213" x="87" y="7"/><text fill="#000000" font-family="sans-serif" font-size="14" font-weight="bold" lengthAdjust="spacing" textLength="95" x="146" y="21.9951">Auction Site</text></g><g id="elem_PostListUC1"><ellipse cx="193.3288" cy="58.7658" fill="#F1F1F1" rx="69.3288" ry="16.2658" style="stroke:#181818;stroke-width:0.5;"/><text fill="#000000" font-family="sans-serif" font-size="14" lengthAdjust="spacing" textLength="91" x="144.8288" y="62.5133">Post a Listing</text></g><g id="elem_ViewListUC2"><ellipse cx="193.6952" cy="126.839" fill="#F1F1F1" rx="69.6952" ry="16.339" style="stroke:#181818;stroke-width:0.5;"/><text fill="#000000" font-family="sans-serif" font-size="14" lengthAdjust="spacing" textLength="92" x="144.6952" y="130.5866">View a Listing</text></g><g id="elem_RemoveListUC3"><ellipse cx="193.3735" cy="410.7747" fill="#F1F1F1" rx="79.3735" ry="18.2747" style="stroke:#181818;stroke-width:0.5;"/><text fill="#000000" font-family="sans-serif" font-size="14" lengthAdjust="spacing" textLength="117" x="132.9676" y="414.2248">Remove a Listing</text></g><g id="elem_EditListUC5"><ellipse cx="193.5233" cy="194.9047" fill="#F1F1F1" rx="67.5233" ry="15.9047" style="stroke:#181818;stroke-width:0.5;"/><text fill="#000000" font-family="sans-serif" font-size="14" lengthAdjust="spacing" textLength="86" x="147.5233" y="198.6522">Edit a Listing</text></g><g id="elem_RxNotUC4"><ellipse cx="193.5567" cy="267.0113" fill="#F1F1F1" rx="90.5567" ry="20.5113" style="stroke:#181818;stroke-width:0.5;"/><text fill="#000000" font-family="sans-serif" font-size="14" lengthAdjust="spacing" textLength="143" x="122.0567" y="269.858">Receive Notifications</text></g><g id="elem_LoginUC6"><ellipse cx="193.5612" cy="340.2122" fill="#F1F1F1" rx="76.5612" ry="17.7122" style="stroke:#181818;stroke-width:0.5;"/><text fill="#000000" font-family="sans-serif" font-size="14" lengthAdjust="spacing" textLength="110" x="135.5612" y="343.9598">Login to System</text></g><!--entity DB of Users--><g id="elem_DB of Users"><rect fill="#F1F1F1" height="36.2969" rx="2.5" ry="2.5" style="stroke:#181818;stroke-width:0.5;" width="102" x="350" y="357"/><text fill="#000000" font-family="sans-serif" font-size="14" lengthAdjust="spacing" textLength="82" x="360" y="379.9951">DB of Users</text></g><!--entity DB of Listings--><g id="elem_DB of Listings"><rect fill="#F1F1F1" height="36.2969" rx="2.5" ry="2.5" style="stroke:#181818;stroke-width:0.5;" width="114" x="344" y="143"/><text fill="#000000" font-family="sans-serif" font-size="14" lengthAdjust="spacing" textLength="94" x="354" y="165.9951">DB of Listings</text></g><!--entity DB of Bids--><g id="elem_DB of Bids"><rect fill="#F1F1F1" height="36.2969" rx="2.5" ry="2.5" style="stroke:#181818;stroke-width:0.5;" width="92" x="355" y="249"/><text fill="#000000" font-family="sans-serif" font-size="14" lengthAdjust="spacing" textLength="72" x="365" y="271.9951">DB of Bids</text></g><!--entity L--><g id="elem_L"><ellipse cx="24.5" cy="201.5" fill="#F1F1F1" rx="8" ry="8" style="stroke:#181818;stroke-width:0.5;"/><path d="M24.5,209.5 L24.5,236.5 M11.5,217.5 L37.5,217.5 M24.5,236.5 L11.5,251.5 M24.5,236.5 L37.5,251.5 " fill="none" style="stroke:#181818;stroke-width:0.5;"/><text fill="#000000" font-family="sans-serif" font-size="14" lengthAdjust="spacing" textLength="37" x="6" y="265.9951">Lister</text></g><!--link L to PostListUC1--><g id="link_L_PostListUC1"><path d="M30.93,192.76 C37.28,161.76 50.79,119.07 79,93 C93.43,79.67 112.89,71.55 131.61,66.61 " fill="none" id="L-PostListUC1" style="stroke:#181818;stroke-width:1.0;"/></g><!--link L to ViewListUC2--><g id="link_L_ViewListUC2"><path d="M43.14,199.79 C52.26,186.14 64.53,171 79,161 C95.92,149.31 116.94,141.56 136.28,136.46 " fill="none" id="L-ViewListUC2" style="stroke:#181818;stroke-width:1.0;"/></g><!--link L to RemoveListUC3--><g id="link_L_RemoveListUC3"><path d="M30.28,269.14 C36.29,301.52 49.65,347.04 79,375 C92.02,387.4 109.3,395.54 126.44,400.87 " fill="none" id="L-RemoveListUC3" style="stroke:#181818;stroke-width:1.0;"/></g><!--link L to RxNotUC4--><g id="link_L_RxNotUC4"><path d="M43.06,234.78 C63.07,239.1 96.96,246.41 127.42,252.97 " fill="none" id="L-RxNotUC4" style="stroke:#181818;stroke-width:1.0;"/></g><!--link L to EditListUC5--><g id="link_L_EditListUC5"><path d="M43.06,227.22 C66.59,222.14 109.3,212.93 143.06,205.66 " fill="none" id="L-EditListUC5" style="stroke:#181818;stroke-width:1.0;"/></g><!--link L to LoginUC6--><g id="link_L_LoginUC6"><path d="M43.06,264.33 C52.1,278.64 64.31,294.47 79,305 C94.75,316.29 114.24,324.01 132.6,329.26 " fill="none" id="L-LoginUC6" style="stroke:#181818;stroke-width:1.0;"/></g><!--link PostListUC1 to DB of Listings--><g id="link_PostListUC1_DB of Listings"><path d="M245.09,70.14 C265.26,75.6 288.32,83.15 308,93 C334.82,106.42 362.01,127.66 379.8,142.84 " fill="none" id="PostListUC1-DB of Listings" style="stroke:#181818;stroke-width:1.0;"/></g><!--link ViewListUC2 to DB of Listings--><g id="link_ViewListUC2_DB of Listings"><path d="M250.93,136.34 C279.8,141.11 314.84,146.91 343.7,151.69 " fill="none" id="ViewListUC2-DB of Listings" style="stroke:#181818;stroke-width:1.0;"/></g><!--link RemoveListUC3 to DB of Users--><g id="link_RemoveListUC3_DB of Users"><path d="M257.55,399.95 C287.17,394.77 321.98,388.67 349.78,383.8 " fill="none" id="RemoveListUC3-DB of Users" style="stroke:#181818;stroke-width:1.0;"/></g><!--link RxNotUC4 to DB of Listings--><g id="link_RxNotUC4_DB of Listings"><path d="M251.3,251.17 C269.86,245.03 290.26,237.24 308,228 C334.11,214.4 360.99,193.93 378.9,179.2 " fill="none" id="RxNotUC4-DB of Listings" style="stroke:#181818;stroke-width:1.0;"/></g><!--link RxNotUC4 to DB of Bids--><g id="link_RxNotUC4_DB of Bids"><path d="M284.04,267 C308.48,267 333.94,267 354.76,267 " fill="none" id="RxNotUC4-DB of Bids" style="stroke:#181818;stroke-width:1.0;"/></g><!--link EditListUC5 to DB of Listings--><g id="link_EditListUC5_DB of Listings"><path d="M249.3,185.93 C278.55,181.09 314.48,175.15 343.92,170.28 " fill="none" id="EditListUC5-DB of Listings" style="stroke:#181818;stroke-width:1.0;"/></g><!--link LoginUC6 to DB of Users--><g id="link_LoginUC6_DB of Users"><path d="M255.32,350.36 C285.38,355.48 321.23,361.58 349.71,366.44 " fill="none" id="LoginUC6-DB of Users" style="stroke:#181818;stroke-width:1.0;"/></g><!--SRC=[TP0xRyCm38Ht_Wh2UuO-qhrnknb5aS3T1Pbs2IGM82bzeEX_hodL1UMue-u-KiSxKXynElGyl4Ris9EDx4OmDZgF3OT87at01a0iCmv7mkh-d2WySAGAlm3n7CYQC5dFBaGqQPB7eP9PaUJTrbUQV65wNv0YPV9QatiwkJTQi5dCz8sc7pjU9X0fazjohoMU5Z-vo3rR8pU5lFnZqjhwLjED6tYKhWwVKokdn2MjhU_Wk-ZdOOUknpQG3rBFglkRxtzWnrseiWSDRZP5ZqdGTIMXx2HByoNffOj8mjy106gzECkOe7vRzOlF5P5hW3d8-kobcSu75NXrSCv_-TyF]--></g></svg>