<?xml version="1.0" encoding="us-ascii" standalone="no"?><svg xmlns="http://www.w3.org/2000/svg" xmlns:xlink="http://www.w3.org/1999/xlink" contentStyleType="text/css" height="871px" preserveAspectRatio="none" style="width:1977px;height:871px;background:#FFFFFF;" version="1.1" viewBox="0 0 1977 871" width="1977px" zoomAndPan="magnify"><defs/><g><ellipse cx="1424.5" cy="16" fill="#222222" rx="10" ry="10" style="stroke:#222222;stroke-width:1.0;"/><path d="M19.5,103 L1831.74,103 A12.5,12.5 0 0 1 1844.24,115.5 L1844.24,129.2969 L7,129.2969 L7,115.5 A12.5,12.5 0 0 1 19.5,103 " fill="#F1F1F1" style="stroke:#F1F1F1;stroke-width:1.0;"/><rect fill="none" height="762.4538" rx="12.5" ry="12.5" style="stroke:#181818;stroke-width:0.5;" width="1837.24" x="7" y="103"/><line style="stroke:#181818;stroke-width:0.5;" x1="7" x2="1844.24" y1="129.2969" y2="129.2969"/><text fill="#000000" font-family="sans-serif" font-size="14" lengthAdjust="spacing" textLength="89" x="881.12" y="120.9951">LandingPage</text><!--cluster LoggingIn--><g id="cluster_LoggingIn"><path d="M1271.74,141.2969 L1478.74,141.2969 A12.5,12.5 0 0 1 1491.24,153.7969 L1491.24,162.5938 L1259.24,162.5938 L1259.24,153.7969 A12.5,12.5 0 0 1 1271.74,141.2969 " fill="#F1F1F1" style="stroke:#F1F1F1;stroke-width:1.0;"/><rect fill="none" height="300.86" rx="12.5" ry="12.5" style="stroke:#181818;stroke-width:0.5;" width="232" x="1259.24" y="141.2969"/><line style="stroke:#181818;stroke-width:0.5;" x1="1259.24" x2="1491.24" y1="162.5938" y2="162.5938"/><text fill="#000000" font-family="sans-serif" font-size="14" lengthAdjust="spacing" textLength="67" x="1341.74" y="158.292">LoggingIn</text></g><!--cluster VerifyingCredentials--><g id="cluster_VerifyingCredentials"><path d="M1311.74,263.2969 L1438.74,263.2969 A12.5,12.5 0 0 1 1451.24,275.7969 L1451.24,284.5938 L1299.24,284.5938 L1299.24,275.7969 A12.5,12.5 0 0 1 1311.74,263.2969 " fill="#F1F1F1" style="stroke:#F1F1F1;stroke-width:1.0;"/><rect fill="none" height="87" rx="12.5" ry="12.5" style="stroke:#181818;stroke-width:0.5;" width="152" x="1299.24" y="263.2969"/><line style="stroke:#181818;stroke-width:0.5;" x1="1299.24" x2="1451.24" y1="284.5938" y2="284.5938"/><text fill="#000000" font-family="sans-serif" font-size="14" lengthAdjust="spacing" textLength="136" x="1307.24" y="280.292">VerifyingCredentials</text></g><ellipse cx="1327.24" cy="194.2969" fill="#222222" rx="10" ry="10" style="stroke:#222222;stroke-width:1.0;"/><ellipse cx="1411.24" cy="316.2969" fill="#222222" rx="10" ry="10" style="stroke:#222222;stroke-width:1.0;"/><ellipse cx="1160.24" cy="316.2969" fill="#222222" rx="10" ry="10" style="stroke:#222222;stroke-width:1.0;"/><path d="M1615.74,555.6569 L1822.74,555.6569 A12.5,12.5 0 0 1 1835.24,568.1569 L1835.24,581.9538 L1603.24,581.9538 L1603.24,568.1569 A12.5,12.5 0 0 1 1615.74,555.6569 " fill="#F1F1F1" style="stroke:#F1F1F1;stroke-width:1.0;"/><rect fill="none" height="245.2969" rx="12.5" ry="12.5" style="stroke:#181818;stroke-width:0.5;" width="232" x="1603.24" y="555.6569"/><line style="stroke:#181818;stroke-width:0.5;" x1="1603.24" x2="1835.24" y1="581.9538" y2="581.9538"/><text fill="#000000" font-family="sans-serif" font-size="14" lengthAdjust="spacing" textLength="95" x="1671.74" y="573.652">ViewingProfile</text><ellipse cx="1696.24" cy="602.9538" fill="#222222" rx="10" ry="10" style="stroke:#222222;stroke-width:1.0;"/><g id="LandingPage.ViewingProfile.ViewingProfileDetails"><rect fill="#F1F1F1" height="50" rx="12.5" ry="12.5" style="stroke:#181818;stroke-width:0.5;" width="162" x="1615.24" y="665.9538"/><line style="stroke:#181818;stroke-width:0.5;" x1="1615.24" x2="1777.24" y1="692.2506" y2="692.2506"/><text fill="#000000" font-family="sans-serif" font-size="14" lengthAdjust="spacing" textLength="142" x="1625.24" y="683.9489">ViewingProfileDetails</text></g><ellipse cx="1696.24" cy="779.9538" fill="none" rx="11" ry="11" style="stroke:#222222;stroke-width:1.0;"/><ellipse cx="1696.24" cy="779.9538" fill="#222222" rx="6" ry="6" style="stroke:#222222;stroke-width:1.0;"/><!--link *start*ViewingProfile to ViewingProfileDetails--><g id="link_*start*ViewingProfile_ViewingProfileDetails"><path d="M1696.24,613.1538 C1696.24,625.6338 1696.24,642.3738 1696.24,659.8838 " fill="none" id="*start*ViewingProfile-to-ViewingProfileDetails" style="stroke:#181818;stroke-width:1.0;"/><polygon fill="#181818" points="1696.24,665.8838,1700.24,656.8838,1696.24,660.8838,1692.24,656.8838,1696.24,665.8838" style="stroke:#181818;stroke-width:1.0;"/><text fill="#000000" font-family="sans-serif" font-size="13" lengthAdjust="spacing" textLength="79" x="1697.24" y="644.0206">page loaded</text></g><!--link ViewingProfileDetails to *end*ViewingProfile--><g id="link_ViewingProfileDetails_*end*ViewingProfile"><path d="M1696.24,716.1838 C1696.24,733.4838 1696.24,749.8738 1696.24,762.7038 " fill="none" id="ViewingProfileDetails-to-*end*ViewingProfile" style="stroke:#181818;stroke-width:1.0;"/><polygon fill="#181818" points="1696.24,768.7038,1700.24,759.7038,1696.24,763.7038,1692.24,759.7038,1696.24,768.7038" style="stroke:#181818;stroke-width:1.0;"/><text fill="#000000" font-family="sans-serif" font-size="13" lengthAdjust="spacing" textLength="128" x="1697.24" y="747.0206">user navigates back</text></g><path d="M87.24,501.1569 L609.24,501.1569 A12.5,12.5 0 0 1 621.74,513.6569 L621.74,527.4538 L74.74,527.4538 L74.74,513.6569 A12.5,12.5 0 0 1 87.24,501.1569 " fill="#F1F1F1" style="stroke:#F1F1F1;stroke-width:1.0;"/><rect fill="none" height="354.2969" rx="12.5" ry="12.5" style="stroke:#181818;stroke-width:0.5;" width="547" x="74.74" y="501.1569"/><line style="stroke:#181818;stroke-width:0.5;" x1="74.74" x2="621.74" y1="527.4538" y2="527.4538"/><text fill="#000000" font-family="sans-serif" font-size="14" lengthAdjust="spacing" textLength="105" x="295.74" y="519.152">ViewingListings</text><!--cluster AddingBid--><g id="cluster_AddingBid"><path d="M368.24,539.4538 L600.24,539.4538 A12.5,12.5 0 0 1 612.74,551.9538 L612.74,560.7506 L355.74,560.7506 L355.74,551.9538 A12.5,12.5 0 0 1 368.24,539.4538 " fill="#F1F1F1" style="stroke:#F1F1F1;stroke-width:1.0;"/><rect fill="none" height="303.36" rx="12.5" ry="12.5" style="stroke:#181818;stroke-width:0.5;" width="257" x="355.74" y="539.4538"/><line style="stroke:#181818;stroke-width:0.5;" x1="355.74" x2="612.74" y1="560.7506" y2="560.7506"/><text fill="#000000" font-family="sans-serif" font-size="14" lengthAdjust="spacing" textLength="70" x="449.24" y="556.4489">AddingBid</text></g><!--cluster SubmittingBid--><g id="cluster_SubmittingBid"><path d="M422.24,661.4538 L509.24,661.4538 A12.5,12.5 0 0 1 521.74,673.9538 L521.74,682.7506 L409.74,682.7506 L409.74,673.9538 A12.5,12.5 0 0 1 422.24,661.4538 " fill="#F1F1F1" style="stroke:#F1F1F1;stroke-width:1.0;"/><rect fill="none" height="87" rx="12.5" ry="12.5" style="stroke:#181818;stroke-width:0.5;" width="112" x="409.74" y="661.4538"/><line style="stroke:#181818;stroke-width:0.5;" x1="409.74" x2="521.74" y1="682.7506" y2="682.7506"/><text fill="#000000" font-family="sans-serif" font-size="14" lengthAdjust="spacing" textLength="96" x="417.74" y="678.4489">SubmittingBid</text></g><ellipse cx="417.74" cy="592.4538" fill="#222222" rx="10" ry="10" style="stroke:#222222;stroke-width:1.0;"/><ellipse cx="487.74" cy="714.4538" fill="#222222" rx="10" ry="10" style="stroke:#222222;stroke-width:1.0;"/><ellipse cx="178.74" cy="592.4538" fill="#222222" rx="10" ry="10" style="stroke:#222222;stroke-width:1.0;"/><g id="LandingPage.ViewingListings.ViewingAvailableListings"><rect fill="#F1F1F1" height="50" rx="12.5" ry="12.5" style="stroke:#181818;stroke-width:0.5;" width="184" x="86.74" y="689.4538"/><line style="stroke:#181818;stroke-width:0.5;" x1="86.74" x2="270.74" y1="715.7506" y2="715.7506"/><text fill="#000000" font-family="sans-serif" font-size="14" lengthAdjust="spacing" textLength="164" x="96.74" y="707.4489">ViewingAvailableListings</text></g><ellipse cx="117.74" cy="834.4538" fill="none" rx="11" ry="11" style="stroke:#222222;stroke-width:1.0;"/><ellipse cx="117.74" cy="834.4538" fill="#222222" rx="6" ry="6" style="stroke:#222222;stroke-width:1.0;"/><!--link *start*ViewingListings to ViewingAvailableListings--><g id="link_*start*ViewingListings_ViewingAvailableListings"><path d="M178.74,602.4738 C178.74,620.6738 178.74,656.3638 178.74,683.1438 " fill="none" id="*start*ViewingListings-to-ViewingAvailableListings" style="stroke:#181818;stroke-width:1.0;"/><polygon fill="#181818" points="178.74,689.1438,182.74,680.1438,178.74,684.1438,174.74,680.1438,178.74,689.1438" style="stroke:#181818;stroke-width:1.0;"/><text fill="#000000" font-family="sans-serif" font-size="13" lengthAdjust="spacing" textLength="79" x="179.74" y="633.5206">page loaded</text></g><!--link ViewingAvailableListings to AddingBid--><g id="link_ViewingAvailableListings_AddingBid"><path d="M202.21,739.6538 C222.99,759.8438 255.04,788.0138 287.74,805.4538 C306.37,815.3888 329.0075,822.2688 347.3987,826.7225 C349.6977,827.2792 351.9302,827.798 354.0803,828.2802 C354.6178,828.4007 349.2904,827.2294 349.8174,827.3454 " fill="none" id="ViewingAvailableListings-to-AddingBid" style="stroke:#181818;stroke-width:1.0;"/><polygon fill="#181818" points="355.6772,828.6349,347.7472,822.7941,350.794,827.5603,346.0278,830.6071,355.6772,828.6349" style="stroke:#181818;stroke-width:1.0;"/><text fill="#000000" font-family="sans-serif" font-size="13" lengthAdjust="spacing" textLength="86" x="288.74" y="801.5206">user adds bid</text></g><!--link ViewingAvailableListings to *end*ViewingListings--><g id="link_ViewingAvailableListings_*end*ViewingListings"><path d="M151.73,739.7438 C139.2,752.8038 125.58,769.9938 118.74,788.4538 C114.5,799.8838 114.3723,808.1333 115.4523,817.4933 " fill="none" id="ViewingAvailableListings-to-*end*ViewingListings" style="stroke:#181818;stroke-width:1.0;"/><polygon fill="#181818" points="116.14,823.4538,119.082,814.0546,115.5669,818.4867,111.1347,814.9716,116.14,823.4538" style="stroke:#181818;stroke-width:1.0;"/><text fill="#000000" font-family="sans-serif" font-size="13" lengthAdjust="spacing" textLength="128" x="119.74" y="801.5206">user navigates back</text></g><!--link *start*AddingBid to SubmittingBid--><g id="link_*start*AddingBid_SubmittingBid"><path d="M417.74,602.4738 C417.74,609.3413 417.74,619.55 417.74,631.0395 C417.74,636.7843 417.74,642.8493 417.74,648.9769 C417.74,652.0407 417.74,655.1201 417.74,658.183 C417.74,658.9488 417.74,659.7135 417.74,660.4766 C417.74,660.6674 417.74,654.8581 417.74,655.0487 " fill="none" id="*start*AddingBid-to-SubmittingBid" style="stroke:#181818;stroke-width:1.0;"/><polygon fill="#181818" points="417.74,661.0487,421.74,652.0487,417.74,656.0487,413.74,652.0487,417.74,661.0487" style="stroke:#181818;stroke-width:1.0;"/><text fill="#000000" font-family="sans-serif" font-size="13" lengthAdjust="spacing" textLength="106" x="418.74" y="633.5206">user submits bid</text></g><!--link SubmittingBid to AddingBid--><g id="link_SubmittingBid_AddingBid"><path d="M409.6085,728.0975 C409.508,728.2632 409.4068,728.4303 409.305,728.5986 C408.898,729.2721 408.4815,729.9667 408.0569,730.6813 C406.3584,733.5397 404.5291,736.7181 402.6488,740.1438 C395.1275,753.8463 386.79,771.5038 382.74,788.4538 C378.23,807.3038 380.6989,825.9202 380.9089,827.4402 " fill="none" id="SubmittingBid-to-AddingBid" style="stroke:#181818;stroke-width:1.0;"/><polygon fill="#181818" points="381.73,833.3838,384.4606,823.921,381.0457,828.4308,376.5359,825.0159,381.73,833.3838" style="stroke:#181818;stroke-width:1.0;"/><text fill="#000000" font-family="sans-serif" font-size="13" lengthAdjust="spacing" textLength="96" x="383.74" y="801.5206">validation error</text></g><!--link *start*SubmittingBid to AddingBid--><g id="link_*start*SubmittingBid_AddingBid"><path d="M490.04,724.3238 C494.03,741.9638 500.11,781.8138 480.74,805.4538 C452.21,840.2738 389.8911,834.2624 387.7611,834.0524 " fill="none" id="*start*SubmittingBid-to-AddingBid" style="stroke:#181818;stroke-width:1.0;"/><polygon fill="#181818" points="381.79,833.4638,390.3541,838.3275,386.7659,833.9543,391.139,830.3661,381.79,833.4638" style="stroke:#181818;stroke-width:1.0;"/><text fill="#000000" font-family="sans-serif" font-size="13" lengthAdjust="spacing" textLength="100" x="490.74" y="801.5206">retry adding bid</text></g><path d="M652.24,520.1569 L1051.8518,520.1569 A12.5,12.5 0 0 1 1064.3518,532.6569 L1064.3518,546.4538 L639.74,546.4538 L639.74,532.6569 A12.5,12.5 0 0 1 652.24,520.1569 " fill="#F1F1F1" style="stroke:#F1F1F1;stroke-width:1.0;"/><rect fill="none" height="316.2969" rx="12.5" ry="12.5" style="stroke:#181818;stroke-width:0.5;" width="424.6118" x="639.74" y="520.1569"/><line style="stroke:#181818;stroke-width:0.5;" x1="639.74" x2="1064.3518" y1="546.4538" y2="546.4538"/><text fill="#000000" font-family="sans-serif" font-size="14" lengthAdjust="spacing" textLength="102" x="801.0459" y="538.152">CreatingListing</text><!--cluster ErrorCreatingListing--><g id="cluster_ErrorCreatingListing"><path d="M829.8518,739.4538 L955.8518,739.4538 A12.5,12.5 0 0 1 968.3518,751.9538 L968.3518,760.7506 L817.3518,760.7506 L817.3518,751.9538 A12.5,12.5 0 0 1 829.8518,739.4538 " fill="#F1F1F1" style="stroke:#F1F1F1;stroke-width:1.0;"/><rect fill="none" height="87" rx="12.5" ry="12.5" style="stroke:#181818;stroke-width:0.5;" width="151" x="817.3518" y="739.4538"/><line style="stroke:#181818;stroke-width:0.5;" x1="817.3518" x2="968.3518" y1="760.7506" y2="760.7506"/><text fill="#000000" font-family="sans-serif" font-size="14" lengthAdjust="spacing" textLength="135" x="825.3518" y="756.4489">ErrorCreatingListing</text></g><ellipse cx="934.3518" cy="792.4538" fill="#222222" rx="10" ry="10" style="stroke:#222222;stroke-width:1.0;"/><ellipse cx="819.3518" cy="567.4538" fill="#222222" rx="10" ry="10" style="stroke:#222222;stroke-width:1.0;"/><g id="LandingPage.CreatingListing.CreatingListingForm"><rect fill="#F1F1F1" height="50" rx="12.5" ry="12.5" style="stroke:#181818;stroke-width:0.5;" width="157" x="740.8518" y="630.4538"/><line style="stroke:#181818;stroke-width:0.5;" x1="740.8518" x2="897.8518" y1="656.7506" y2="656.7506"/><text fill="#000000" font-family="sans-serif" font-size="14" lengthAdjust="spacing" textLength="137" x="750.8518" y="648.4489">CreatingListingForm</text></g><ellipse cx="666.3518" cy="792.4538" fill="none" rx="11" ry="11" style="stroke:#222222;stroke-width:1.0;"/><ellipse cx="666.3518" cy="792.4538" fill="#222222" rx="6" ry="6" style="stroke:#222222;stroke-width:1.0;"/><!--link *start*CreatingListing to CreatingListingForm--><g id="link_*start*CreatingListing_CreatingListingForm"><path d="M819.3518,577.6538 C819.3518,590.1338 819.3518,606.8738 819.3518,624.3838 " fill="none" id="*start*CreatingListing-to-CreatingListingForm" style="stroke:#181818;stroke-width:1.0;"/><polygon fill="#181818" points="819.3518,630.3838,823.3518,621.3838,819.3518,625.3838,815.3518,621.3838,819.3518,630.3838" style="stroke:#181818;stroke-width:1.0;"/><text fill="#000000" font-family="sans-serif" font-size="13" lengthAdjust="spacing" textLength="79" x="820.3518" y="608.5206">page loaded</text></g><!--link CreatingListingForm to *end*CreatingListing--><g id="link_CreatingListingForm_*end*CreatingListing"><path d="M740.5418,666.4038 C720.0518,672.5838 699.7318,682.5238 685.3518,698.4538 C664.1518,721.9438 663.6544,756.5276 664.9344,775.3376 " fill="none" id="CreatingListingForm-to-*end*CreatingListing" style="stroke:#181818;stroke-width:1.0;"/><polygon fill="#181818" points="665.3418,781.3238,668.7215,772.0729,665.0023,776.3353,660.74,772.6161,665.3418,781.3238" style="stroke:#181818;stroke-width:1.0;"/><text fill="#000000" font-family="sans-serif" font-size="13" lengthAdjust="spacing" textLength="128" x="686.3518" y="711.5206">user navigates back</text></g><!--link CreatingListingForm to ErrorCreatingListing--><g id="link_CreatingListingForm_ErrorCreatingListing"><path d="M819.4918,680.5738 C819.6318,691.2638 819.8818,703.9938 820.3518,715.4538 C820.5205,719.5488 820.7218,723.7664 820.9452,728.017 C821.0569,730.1423 821.1741,732.2758 821.2956,734.4063 C821.3564,735.4715 821.4182,736.5361 821.4809,737.5984 C821.5122,738.1296 821.1846,732.671 821.2164,733.2009 " fill="none" id="CreatingListingForm-to-ErrorCreatingListing" style="stroke:#181818;stroke-width:1.0;"/><polygon fill="#181818" points="821.5756,739.1902,825.0296,729.9669,821.2763,734.1991,817.044,730.4458,821.5756,739.1902" style="stroke:#181818;stroke-width:1.0;"/><text fill="#000000" font-family="sans-serif" font-size="13" lengthAdjust="spacing" textLength="96" x="821.3518" y="711.5206">validation error</text></g><!--link *start*ErrorCreatingListing to CreatingListingForm--><g id="link_*start*ErrorCreatingListing_CreatingListingForm"><path d="M935.4418,782.3938 C937.0918,764.3438 938.1918,723.4938 918.3518,698.4538 C912.7918,691.4338 910.8823,688.8029 903.2423,683.9029 " fill="none" id="*start*ErrorCreatingListing-to-CreatingListingForm" style="stroke:#181818;stroke-width:1.0;"/><polygon fill="#181818" points="898.1918,680.6638,903.6081,688.8896,902.4006,683.3631,907.927,682.1555,898.1918,680.6638" style="stroke:#181818;stroke-width:1.0;"/><text fill="#000000" font-family="sans-serif" font-size="13" lengthAdjust="spacing" textLength="127" x="927.3518" y="711.5206">retry creating listing</text></g><path d="M1095.74,555.6569 L1328.74,555.6569 A12.5,12.5 0 0 1 1341.24,568.1569 L1341.24,581.9538 L1083.24,581.9538 L1083.24,568.1569 A12.5,12.5 0 0 1 1095.74,555.6569 " fill="#F1F1F1" style="stroke:#F1F1F1;stroke-width:1.0;"/><rect fill="none" height="245.2969" rx="12.5" ry="12.5" style="stroke:#181818;stroke-width:0.5;" width="258" x="1083.24" y="555.6569"/><line style="stroke:#181818;stroke-width:0.5;" x1="1083.24" x2="1341.24" y1="581.9538" y2="581.9538"/><text fill="#000000" font-family="sans-serif" font-size="14" lengthAdjust="spacing" textLength="118" x="1153.24" y="573.652">ManagingSystem</text><ellipse cx="1202.24" cy="602.9538" fill="#222222" rx="10" ry="10" style="stroke:#222222;stroke-width:1.0;"/><g id="LandingPage.ManagingSystem.ManagingSystemDashboard"><rect fill="#F1F1F1" height="50" rx="12.5" ry="12.5" style="stroke:#181818;stroke-width:0.5;" width="214" x="1095.24" y="665.9538"/><line style="stroke:#181818;stroke-width:0.5;" x1="1095.24" x2="1309.24" y1="692.2506" y2="692.2506"/><text fill="#000000" font-family="sans-serif" font-size="14" lengthAdjust="spacing" textLength="194" x="1105.24" y="683.9489">ManagingSystemDashboard</text></g><ellipse cx="1202.24" cy="779.9538" fill="none" rx="11" ry="11" style="stroke:#222222;stroke-width:1.0;"/><ellipse cx="1202.24" cy="779.9538" fill="#222222" rx="6" ry="6" style="stroke:#222222;stroke-width:1.0;"/><!--link *start*ManagingSystem to ManagingSystemDashboard--><g id="link_*start*ManagingSystem_ManagingSystemDashboard"><path d="M1202.24,613.1538 C1202.24,625.6338 1202.24,642.3738 1202.24,659.8838 " fill="none" id="*start*ManagingSystem-to-ManagingSystemDashboard" style="stroke:#181818;stroke-width:1.0;"/><polygon fill="#181818" points="1202.24,665.8838,1206.24,656.8838,1202.24,660.8838,1198.24,656.8838,1202.24,665.8838" style="stroke:#181818;stroke-width:1.0;"/><text fill="#000000" font-family="sans-serif" font-size="13" lengthAdjust="spacing" textLength="79" x="1203.24" y="644.0206">page loaded</text></g><!--link ManagingSystemDashboard to *end*ManagingSystem--><g id="link_ManagingSystemDashboard_*end*ManagingSystem"><path d="M1202.24,716.1838 C1202.24,733.4838 1202.24,749.8738 1202.24,762.7038 " fill="none" id="ManagingSystemDashboard-to-*end*ManagingSystem" style="stroke:#181818;stroke-width:1.0;"/><polygon fill="#181818" points="1202.24,768.7038,1206.24,759.7038,1202.24,763.7038,1198.24,759.7038,1202.24,768.7038" style="stroke:#181818;stroke-width:1.0;"/><text fill="#000000" font-family="sans-serif" font-size="13" lengthAdjust="spacing" textLength="128" x="1203.24" y="747.0206">user navigates back</text></g><path d="M1372.24,555.6569 L1572.74,555.6569 A12.5,12.5 0 0 1 1585.24,568.1569 L1585.24,581.9538 L1359.74,581.9538 L1359.74,568.1569 A12.5,12.5 0 0 1 1372.24,555.6569 " fill="#F1F1F1" style="stroke:#F1F1F1;stroke-width:1.0;"/><rect fill="none" height="245.2969" rx="12.5" ry="12.5" style="stroke:#181818;stroke-width:0.5;" width="225.5" x="1359.74" y="555.6569"/><line style="stroke:#181818;stroke-width:0.5;" x1="1359.74" x2="1585.24" y1="581.9538" y2="581.9538"/><text fill="#000000" font-family="sans-serif" font-size="14" lengthAdjust="spacing" textLength="94" x="1425.49" y="573.652">ViewingAbout</text><ellipse cx="1446.24" cy="602.9538" fill="#222222" rx="10" ry="10" style="stroke:#222222;stroke-width:1.0;"/><g id="LandingPage.ViewingAbout.ViewingAboutPage"><rect fill="#F1F1F1" height="50" rx="12.5" ry="12.5" style="stroke:#181818;stroke-width:0.5;" width="149" x="1371.74" y="665.9538"/><line style="stroke:#181818;stroke-width:0.5;" x1="1371.74" x2="1520.74" y1="692.2506" y2="692.2506"/><text fill="#000000" font-family="sans-serif" font-size="14" lengthAdjust="spacing" textLength="129" x="1381.74" y="683.9489">ViewingAboutPage</text></g><ellipse cx="1446.24" cy="779.9538" fill="none" rx="11" ry="11" style="stroke:#222222;stroke-width:1.0;"/><ellipse cx="1446.24" cy="779.9538" fill="#222222" rx="6" ry="6" style="stroke:#222222;stroke-width:1.0;"/><!--link *start*ViewingAbout to ViewingAboutPage--><g id="link_*start*ViewingAbout_ViewingAboutPage"><path d="M1446.24,613.1538 C1446.24,625.6338 1446.24,642.3738 1446.24,659.8838 " fill="none" id="*start*ViewingAbout-to-ViewingAboutPage" style="stroke:#181818;stroke-width:1.0;"/><polygon fill="#181818" points="1446.24,665.8838,1450.24,656.8838,1446.24,660.8838,1442.24,656.8838,1446.24,665.8838" style="stroke:#181818;stroke-width:1.0;"/><text fill="#000000" font-family="sans-serif" font-size="13" lengthAdjust="spacing" textLength="79" x="1447.24" y="644.0206">page loaded</text></g><!--link ViewingAboutPage to *end*ViewingAbout--><g id="link_ViewingAboutPage_*end*ViewingAbout"><path d="M1446.24,716.1838 C1446.24,733.4838 1446.24,749.8738 1446.24,762.7038 " fill="none" id="ViewingAboutPage-to-*end*ViewingAbout" style="stroke:#181818;stroke-width:1.0;"/><polygon fill="#181818" points="1446.24,768.7038,1450.24,759.7038,1446.24,763.7038,1442.24,759.7038,1446.24,768.7038" style="stroke:#181818;stroke-width:1.0;"/><text fill="#000000" font-family="sans-serif" font-size="13" lengthAdjust="spacing" textLength="128" x="1447.24" y="747.0206">user navigates back</text></g><ellipse cx="45.24" cy="678.1569" fill="none" rx="11" ry="11" style="stroke:#222222;stroke-width:1.0;"/><ellipse cx="45.24" cy="678.1569" fill="#222222" rx="6" ry="6" style="stroke:#222222;stroke-width:1.0;"/><!--link *start*LandingPage to LoggingIn--><g id="link_*start*LandingPage_LoggingIn"><path d="M1158.5,326.2569 C1155.61,344.0669 1151.95,384.1969 1172.24,407.2969 C1186.435,423.4669 1209.67,429.8969 1229.6075,432.2581 C1239.5763,433.4388 1248.7206,433.6022 1255.4984,433.4573 C1256.3457,433.4392 1257.1559,433.4163 1257.9262,433.39 C1258.3113,433.3768 1252.6913,433.6047 1253.0561,433.59 " fill="none" id="*start*LandingPage-to-LoggingIn" style="stroke:#181818;stroke-width:1.0;"/><polygon fill="#181818" points="1259.0512,433.348,1249.8972,429.7142,1254.0553,433.5496,1250.2198,437.7077,1259.0512,433.348" style="stroke:#181818;stroke-width:1.0;"/><text fill="#000000" font-family="sans-serif" font-size="13" lengthAdjust="spacing" textLength="100" x="1173.24" y="403.3638">user clicks login</text></g><!--link LoggingIn to ViewingProfile--><g id="link_LoggingIn_ViewingProfile"><path d="M1345.9256,442.2778 C1346.2009,442.3224 1346.4765,442.3672 1346.7524,442.4123 C1347.3042,442.5025 1347.8573,442.5937 1348.4115,442.686 C1349.52,442.8707 1350.6332,443.0596 1351.7506,443.2529 C1360.6902,444.7996 1369.9019,446.628 1379.1519,448.7891 C1397.6519,453.1113 1416.305,458.7644 1433.24,466.1569 C1444.89,471.2469 1444.45,478.4069 1456.24,483.1569 C1513.6,506.2769 1541.23,469.2769 1594.24,501.1569 C1616.88,514.7769 1632.8171,529.5236 1649.4071,550.5836 " fill="none" id="LoggingIn-to-ViewingProfile" style="stroke:#181818;stroke-width:1.0;"/><polygon fill="#181818" points="1653.12,555.2969,1650.6929,545.7518,1650.026,551.3692,1644.4086,550.7022,1653.12,555.2969" style="stroke:#181818;stroke-width:1.0;"/><text fill="#000000" font-family="sans-serif" font-size="13" lengthAdjust="spacing" textLength="109" x="1457.24" y="479.2238">user clicks profile</text></g><!--link LoggingIn to ViewingListings--><g id="link_LoggingIn_ViewingListings"><path d="M1258.56,435.1356 C1257.9959,435.1586 1257.4056,435.1827 1256.7896,435.208 C1255.5576,435.2586 1254.2225,435.3139 1252.7877,435.374 C1249.9182,435.4941 1246.6496,435.6332 1243.0081,435.7915 C1228.442,436.4249 1207.908,437.3666 1183.0692,438.6364 C1133.3916,441.1759 1066.4944,445.0275 995.6812,450.3481 C854.055,460.9894 696.765,477.5069 630.24,501.1569 C627.52,502.1269 630.4112,500.9921 627.6912,502.0221 " fill="none" id="LoggingIn-to-ViewingListings" style="stroke:#181818;stroke-width:1.0;"/><polygon fill="#181818" points="622.08,504.1469,631.9133,504.7004,626.756,502.3762,629.0802,497.2189,622.08,504.1469" style="stroke:#181818;stroke-width:1.0;"/><text fill="#000000" font-family="sans-serif" font-size="13" lengthAdjust="spacing" textLength="107" x="812.24" y="479.2238">user clicks listing</text></g><!--link LoggingIn to CreatingListing--><g id="link_LoggingIn_CreatingListing"><path d="M1258.8589,435.2472 C1258.5445,435.2649 1258.222,435.2832 1257.8917,435.3021 C1252.6068,435.6035 1245.3013,436.0451 1236.5508,436.6383 C1219.0497,437.8247 1195.7681,439.6175 1171.3088,442.1081 C1122.39,447.0894 1068.76,454.8619 1047.24,466.1569 C1020.73,480.0569 1000.3278,494.9446 977.9078,515.8546 " fill="none" id="LoggingIn-to-CreatingListing" style="stroke:#181818;stroke-width:1.0;"/><polygon fill="#181818" points="973.52,519.9469,982.8299,516.7336,977.1765,516.5366,977.3735,510.8832,973.52,519.9469" style="stroke:#181818;stroke-width:1.0;"/><text fill="#000000" font-family="sans-serif" font-size="13" lengthAdjust="spacing" textLength="152" x="1048.24" y="479.2238">user clicks create listing</text></g><!--link LoggingIn to ManagingSystem--><g id="link_LoggingIn_ManagingSystem"><path d="M1259.2051,436.7442 C1259.0741,436.781 1258.942,436.8184 1258.8086,436.8564 C1258.5418,436.9323 1258.2703,437.0105 1257.9941,437.0911 C1257.4419,437.2521 1256.8713,437.4226 1256.2843,437.6026 C1255.1103,437.9625 1253.8705,438.3608 1252.5796,438.7996 C1249.9977,439.677 1247.2116,440.7159 1244.3388,441.9331 C1232.8475,446.8019 1219.97,454.5219 1213.24,466.1569 C1197.82,492.7869 1192.4684,518.6572 1192.1684,549.4672 " fill="none" id="LoggingIn-to-ManagingSystem" style="stroke:#181818;stroke-width:1.0;"/><polygon fill="#181818" points="1192.11,555.4669,1196.1974,546.5062,1192.1587,550.4671,1188.1978,546.4284,1192.11,555.4669" style="stroke:#181818;stroke-width:1.0;"/><text fill="#000000" font-family="sans-serif" font-size="13" lengthAdjust="spacing" textLength="86" x="1214.24" y="479.2238">user is admin</text></g><!--link LoggingIn to ViewingAbout--><g id="link_LoggingIn_ViewingAbout"><path d="M1275.4489,442.2092 C1275.691,442.4253 1275.9375,442.6453 1276.1884,442.8689 C1277.1919,443.7634 1278.265,444.717 1279.3999,445.7215 C1281.6696,447.7306 1284.1866,449.9438 1286.8888,452.2969 C1297.6975,461.7094 1311.47,473.3619 1324.24,483.1569 C1335.39,491.7169 1340.29,491.2169 1350.24,501.1569 C1366.54,517.4469 1378.5057,531.3726 1392.7357,550.3926 " fill="none" id="LoggingIn-to-ViewingAbout" style="stroke:#181818;stroke-width:1.0;"/><polygon fill="#181818" points="1396.33,555.1969,1394.1413,545.5943,1393.3347,551.1933,1387.7357,550.3867,1396.33,555.1969" style="stroke:#181818;stroke-width:1.0;"/><text fill="#000000" font-family="sans-serif" font-size="13" lengthAdjust="spacing" textLength="107" x="1325.24" y="479.2238">user clicks about</text></g><!--link LoggingIn to *end*LandingPage--><g id="link_LoggingIn_*end*LandingPage"><path d="M1258.6658,434.9526 C1256.9389,434.9847 1254.9604,435.0219 1252.7386,435.064 C1243.8514,435.2325 1231.0725,435.481 1214.9468,435.8108 C1182.6955,436.4703 1137.0572,437.455 1082.3919,438.7756 C973.0613,441.4169 827.6225,445.4019 680.955,450.8169 C387.62,461.6469 89.37,478.1969 65.24,501.1569 C18,546.0969 33.855,631.4786 41.195,661.4986 " fill="none" id="LoggingIn-to-*end*LandingPage" style="stroke:#181818;stroke-width:1.0;"/><polygon fill="#181818" points="42.62,667.3269,44.368,657.6344,41.4325,662.4699,36.5969,659.5344,42.62,667.3269" style="stroke:#181818;stroke-width:1.0;"/><text fill="#000000" font-family="sans-serif" font-size="13" lengthAdjust="spacing" textLength="83" x="348.24" y="479.2238">user logs out</text></g><!--link *start*LoggingIn to VerifyingCredentials--><g id="link_*start*LoggingIn_VerifyingCredentials"><path d="M1327.24,204.3169 C1327.24,211.1844 1327.24,221.3931 1327.24,232.8827 C1327.24,238.6274 1327.24,244.6924 1327.24,250.82 C1327.24,253.8838 1327.24,256.9632 1327.24,260.0262 C1327.24,260.7919 1327.24,261.5566 1327.24,262.3197 C1327.24,262.5105 1327.24,256.7012 1327.24,256.8918 " fill="none" id="*start*LoggingIn-to-VerifyingCredentials" style="stroke:#181818;stroke-width:1.0;"/><polygon fill="#181818" points="1327.24,262.8918,1331.24,253.8918,1327.24,257.8918,1323.24,253.8918,1327.24,262.8918" style="stroke:#181818;stroke-width:1.0;"/><text fill="#000000" font-family="sans-serif" font-size="13" lengthAdjust="spacing" textLength="117" x="1328.24" y="235.3638">user submits login</text></g><!--link VerifyingCredentials to LoggingIn--><g id="link_VerifyingCredentials_LoggingIn"><path d="M1307.7507,350.4906 C1307.6837,350.6084 1307.6166,350.7263 1307.5495,350.8444 C1307.0124,351.789 1306.4708,352.7443 1305.9256,353.7091 C1303.7445,357.5681 1301.5048,361.5781 1299.263,365.6569 C1294.7794,373.8144 1290.2875,382.2469 1286.24,390.2969 C1277.23,408.2069 1270.0951,425.7368 1269.5151,427.1668 " fill="none" id="VerifyingCredentials-to-LoggingIn" style="stroke:#181818;stroke-width:1.0;"/><polygon fill="#181818" points="1267.26,432.7269,1274.3494,425.8902,1269.1393,428.0935,1266.936,422.8833,1267.26,432.7269" style="stroke:#181818;stroke-width:1.0;"/><text fill="#000000" font-family="sans-serif" font-size="13" lengthAdjust="spacing" textLength="96" x="1287.24" y="403.3638">validation error</text></g><!--link VerifyingCredentials to ViewingProfile--><g id="link_VerifyingCredentials_ViewingProfile"><path d="M1350.5985,350.6143 C1350.7869,350.8346 1350.9763,351.055 1351.1665,351.2755 C1351.5471,351.7165 1351.9315,352.1578 1352.3196,352.5991 C1353.0959,353.4818 1353.8872,354.3646 1354.693,355.2454 C1357.9163,358.7685 1361.3727,362.259 1365.0341,365.577 C1372.3569,372.2131 1380.5,378.1594 1389.24,382.2969 C1431.94,402.5169 1452.56,370.0269 1495.24,390.2969 C1533.33,408.3969 1589.2088,480.6841 1637.2188,550.4541 " fill="none" id="VerifyingCredentials-to-ViewingProfile" style="stroke:#181818;stroke-width:1.0;"/><polygon fill="#181818" points="1640.62,555.3969,1638.8133,545.7151,1637.7856,551.2779,1632.2229,550.2501,1640.62,555.3969" style="stroke:#181818;stroke-width:1.0;"/><text fill="#000000" font-family="sans-serif" font-size="13" lengthAdjust="spacing" textLength="100" x="1566.24" y="438.3638">successful login</text></g><!--link *start*VerifyingCredentials to LoggingIn--><g id="link_*start*VerifyingCredentials_LoggingIn"><path d="M1411.66,326.3269 C1411.99,344.9969 1409.76,387.7769 1384.24,407.2969 C1342.62,439.1269 1275.5368,433.5235 1273.2668,433.3235 " fill="none" id="*start*VerifyingCredentials-to-LoggingIn" style="stroke:#181818;stroke-width:1.0;"/><polygon fill="#181818" points="1267.29,432.7969,1275.9042,437.5713,1272.2707,433.2357,1276.6063,429.6022,1267.29,432.7969" style="stroke:#181818;stroke-width:1.0;"/><text fill="#000000" font-family="sans-serif" font-size="13" lengthAdjust="spacing" textLength="75" x="1399.24" y="403.3638">cancel login</text></g><!--link *start*VerifyingCredentials to ViewingProfile--><g id="link_*start*VerifyingCredentials_ViewingProfile"><path d="M1421.38,317.7669 C1462.43,320.2869 1617.33,335.6069 1687.24,425.2969 C1715.62,461.7169 1725.794,504.5063 1728.314,549.4363 " fill="none" id="*start*VerifyingCredentials-to-ViewingProfile" style="stroke:#181818;stroke-width:1.0;"/><polygon fill="#181818" points="1728.65,555.4269,1732.1397,546.217,1728.37,550.4347,1724.1523,546.665,1728.65,555.4269" style="stroke:#181818;stroke-width:1.0;"/><text fill="#000000" font-family="sans-serif" font-size="13" lengthAdjust="spacing" textLength="100" x="1707.24" y="438.3638">successful login</text></g><g id="Navigating"><rect fill="#F1F1F1" height="50" rx="12.5" ry="12.5" style="stroke:#181818;stroke-width:0.5;" width="91" x="1879" y="459"/><line style="stroke:#181818;stroke-width:0.5;" x1="1879" x2="1970" y1="485.2969" y2="485.2969"/><text fill="#000000" font-family="sans-serif" font-size="14" lengthAdjust="spacing" textLength="71" x="1889" y="476.9951">Navigating</text></g><!--link *start* to LandingPage--><g id="link_*start*_LandingPage"><path d="M1417.45,23.59 C1404.15,36.01 1377.4253,60.965 1336.9453,98.765 " fill="none" id="*start*-to-LandingPage" style="stroke:#181818;stroke-width:1.0;"/><polygon fill="#181818" points="1332.56,102.86,1341.868,99.6411,1336.2144,99.4475,1336.408,93.794,1332.56,102.86" style="stroke:#181818;stroke-width:1.0;"/></g><!--link *start* to Navigating--><g id="link_*start*_Navigating"><path d="M1434.41,17.47 C1493.54,20.46 1799.3,38.91 1861.5,103 C1958.6,203.06 1940.2516,386.2728 1929.7616,453.0128 " fill="none" id="*start*-to-Navigating" style="stroke:#181818;stroke-width:1.0;"/><polygon fill="#181818" points="1928.83,458.94,1934.1789,450.6702,1929.6064,454.0006,1926.2759,449.4281,1928.83,458.94" style="stroke:#181818;stroke-width:1.0;"/><text fill="#000000" font-family="sans-serif" font-size="13" lengthAdjust="spacing" textLength="94" x="1800.5" y="69.0669">user navigates</text></g><!--SRC=[bLJBJiCm4BpdAtn6wWzmG2eK9AI2a2fngJXix6smSEpATeegnBzZ9qtYs4vRJb5sPtRM-zhUV935uewiGJ8kgpUei2YC1OkXYVmKX6nxgAegPt-Mv9Oq1ZMXWjClGuHoPeSR_Hxzpl7RHz5gnmL6b7rddIEjkR7kOsAXpfom7ZI27MaHYtelpf9VG8B_tHoDnRhdSaE0rVFFMfQgiP4GU5kHC7pvJa1NAKCywBUlTLIbiDnJrmejSE4hilTz4GeOCeVEeo9T2GTUEJb3Ig1VYVfGxepyyk02GYamw4asWnJeeooP7wLxplfKW36N1Rz8l2BxkErXzf7lIUawIJo7EIyzptdKMkbq3WyWE7Cs9Gbwn9XyD7PXxbFN2indgK2p9FyvtF-QtqrohlFUqHw1kOuFW2iLiqMwt3MDLX-xDVQ4Vf67iEEwJLw1ck-Epkw2CfIMWnZkYMdAcjlnScMnySbBUdc6bnm_qr2AnkmQSH8Tsv2BCNTsAKYAOiWxVohEoeqB6MfiseBOwQhsLUgsTGg9Ttj-qAUyK3JaTps6rj8AEdwFU-t6ARZimu0LVm00]--></g></svg>