<?xml version="1.0" encoding="us-ascii" standalone="no"?><svg xmlns="http://www.w3.org/2000/svg" xmlns:xlink="http://www.w3.org/1999/xlink" contentStyleType="text/css" height="571px" preserveAspectRatio="none" style="width:600px;height:571px;background:#FFFFFF;" version="1.1" viewBox="0 0 600 571" width="600px" zoomAndPan="magnify"><defs/><g><ellipse cx="107.5" cy="413" fill="#222222" rx="10" ry="10" style="stroke:#222222;stroke-width:1.0;"/><g id="unfilter"><rect fill="#F1F1F1" height="50" rx="12.5" ry="12.5" style="stroke:#181818;stroke-width:0.5;" width="201" x="7" y="515"/><line style="stroke:#181818;stroke-width:0.5;" x1="7" x2="208" y1="541.2969" y2="541.2969"/><text fill="#000000" font-family="sans-serif" font-size="14" lengthAdjust="spacing" textLength="181" x="17" y="532.9951">Fetching unfiltered listings</text></g><g id="display"><rect fill="#F1F1F1" height="50" rx="12.5" ry="12.5" style="stroke:#181818;stroke-width:0.5;" width="142" x="179.5" y="7"/><line style="stroke:#181818;stroke-width:0.5;" x1="179.5" x2="321.5" y1="33.2969" y2="33.2969"/><text fill="#000000" font-family="sans-serif" font-size="14" lengthAdjust="spacing" textLength="122" x="189.5" y="24.9951">Displaying listings</text></g><g id="Close"><rect fill="#F1F1F1" height="50" rx="12.5" ry="12.5" style="stroke:#181818;stroke-width:0.5;" width="59" x="98" y="134"/><line style="stroke:#181818;stroke-width:0.5;" x1="98" x2="157" y1="160.2969" y2="160.2969"/><text fill="#000000" font-family="sans-serif" font-size="14" lengthAdjust="spacing" textLength="39" x="108" y="151.9951">Close</text></g><g id="individual"><rect fill="#F1F1F1" height="50" rx="12.5" ry="12.5" style="stroke:#181818;stroke-width:0.5;" width="190" x="350.5" y="134"/><line style="stroke:#181818;stroke-width:0.5;" x1="350.5" x2="540.5" y1="160.2969" y2="160.2969"/><text fill="#000000" font-family="sans-serif" font-size="14" lengthAdjust="spacing" textLength="170" x="360.5" y="151.9951">Opening individual listing</text></g><g id="shownInd"><rect fill="#F1F1F1" height="50" rx="12.5" ry="12.5" style="stroke:#181818;stroke-width:0.5;" width="152" x="360.5" y="261"/><line style="stroke:#181818;stroke-width:0.5;" x1="360.5" x2="512.5" y1="287.2969" y2="287.2969"/><text fill="#000000" font-family="sans-serif" font-size="14" lengthAdjust="spacing" textLength="132" x="370.5" y="278.9951">Adding to Watchlist</text></g><g id="Watchlist"><rect fill="#F1F1F1" height="50" rx="12.5" ry="12.5" style="stroke:#181818;stroke-width:0.5;" width="147" x="243" y="388"/><line style="stroke:#181818;stroke-width:0.5;" x1="243" x2="390" y1="414.2969" y2="414.2969"/><text fill="#000000" font-family="sans-serif" font-size="14" lengthAdjust="spacing" textLength="127" x="253" y="405.9951">Opening watch list</text></g><g id="delete"><rect fill="#F1F1F1" height="50" rx="12.5" ry="12.5" style="stroke:#181818;stroke-width:0.5;" width="226" x="284.5" y="515"/><line style="stroke:#181818;stroke-width:0.5;" x1="284.5" x2="510.5" y1="541.2969" y2="541.2969"/><text fill="#000000" font-family="sans-serif" font-size="14" lengthAdjust="spacing" textLength="206" x="294.5" y="532.9951">Removing item from watch list</text></g><ellipse cx="227.5" cy="159" fill="none" rx="11" ry="11" style="stroke:#222222;stroke-width:1.0;"/><ellipse cx="227.5" cy="159" fill="#222222" rx="6" ry="6" style="stroke:#222222;stroke-width:1.0;"/><!--link *start* to unfilter--><g id="link_*start*_unfilter"><path d="M107.5,423.4 C107.5,442.59 107.5,480.82 107.5,508.67 " fill="none" id="*start*-to-unfilter" style="stroke:#181818;stroke-width:1.0;"/><polygon fill="#181818" points="107.5,514.67,111.5,505.67,107.5,509.67,103.5,505.67,107.5,514.67" style="stroke:#181818;stroke-width:1.0;"/></g><!--link unfilter to display--><g id="link_unfilter_display"><path d="M86.87,514.95 C68.5,491.01 44.5,452.4 44.5,414 C44.5,158 44.5,158 44.5,158 C44.5,93.26 113.959,62.614 173.509,47.304 " fill="none" id="unfilter-to-display" style="stroke:#181818;stroke-width:1.0;"/><polygon fill="#181818" points="179.32,45.81,169.6075,44.177,174.4775,47.055,171.5995,51.925,179.32,45.81" style="stroke:#181818;stroke-width:1.0;"/><text fill="#000000" font-family="sans-serif" font-size="13" lengthAdjust="spacing" textLength="109" x="45.5" y="290.5669">Listings retrieved</text></g><!--link display to Close--><g id="link_display_Close"><path d="M226.78,57.1 C205,79.24 177.1087,107.5836 155.3487,129.6936 " fill="none" id="display-to-Close" style="stroke:#181818;stroke-width:1.0;"/><polygon fill="#181818" points="151.14,133.97,160.3039,130.3612,154.6472,130.4064,154.6021,124.7497,151.14,133.97" style="stroke:#181818;stroke-width:1.0;"/></g><!--link display to individual--><g id="link_display_individual"><path d="M288.1,57.1 C322.63,79.24 368.4684,108.6226 402.9684,130.7326 " fill="none" id="display-to-individual" style="stroke:#181818;stroke-width:1.0;"/><polygon fill="#181818" points="408.02,133.97,402.6008,125.7461,403.8103,131.2721,398.2843,132.4816,408.02,133.97" style="stroke:#181818;stroke-width:1.0;"/><text fill="#000000" font-family="sans-serif" font-size="13" lengthAdjust="spacing" textLength="112" x="361.5" y="100.0669">Listings displayed</text></g><!--link individual to shownInd--><g id="link_individual_shownInd"><path d="M443.76,184.1 C442.17,206.24 440.2504,232.8755 438.6604,254.9855 " fill="none" id="individual-to-shownInd" style="stroke:#181818;stroke-width:1.0;"/><polygon fill="#181818" points="438.23,260.97,442.8652,252.2801,438.5886,255.9829,434.8859,251.7063,438.23,260.97" style="stroke:#181818;stroke-width:1.0;"/><text fill="#000000" font-family="sans-serif" font-size="13" lengthAdjust="spacing" textLength="149" x="443.5" y="227.0669">Item added to watchlist</text></g><!--link shownInd to Watchlist--><g id="link_shownInd_Watchlist"><path d="M413.36,311.1 C392.11,333.24 364.9446,361.5311 343.7246,383.6411 " fill="none" id="shownInd-to-Watchlist" style="stroke:#181818;stroke-width:1.0;"/><polygon fill="#181818" points="339.57,387.97,348.6878,384.2464,343.0322,384.3626,342.916,378.7069,339.57,387.97" style="stroke:#181818;stroke-width:1.0;"/><text fill="#000000" font-family="sans-serif" font-size="13" lengthAdjust="spacing" textLength="118" x="385.5" y="354.0669">Watchlist retrieved</text></g><!--link Watchlist to delete--><g id="link_Watchlist_delete"><path d="M309.51,438.11 C306.72,452.56 305.76,470.81 313.5,485 C320.15,497.17 325.861,503.662 337.431,511.442 " fill="none" id="Watchlist-to-delete" style="stroke:#181818;stroke-width:1.0;"/><polygon fill="#181818" points="342.41,514.79,337.1735,506.4486,338.2608,512,332.7094,513.0873,342.41,514.79" style="stroke:#181818;stroke-width:1.0;"/><text fill="#000000" font-family="sans-serif" font-size="13" lengthAdjust="spacing" textLength="81" x="314.5" y="481.0669">Item deleted</text></g><!--link delete to Watchlist--><g id="link_delete_Watchlist"><path d="M404.49,514.89 C407.28,500.44 408.24,482.19 400.5,468 C393.85,455.83 388.139,449.338 376.569,441.558 " fill="none" id="delete-to-Watchlist" style="stroke:#181818;stroke-width:1.0;"/><polygon fill="#181818" points="371.59,438.21,376.8265,446.5514,375.7392,441,381.2906,439.9127,371.59,438.21" style="stroke:#181818;stroke-width:1.0;"/><text fill="#000000" font-family="sans-serif" font-size="13" lengthAdjust="spacing" textLength="179" x="407.5" y="481.0669">Updated watch list retrieved</text></g><!--link Watchlist to unfilter--><g id="link_Watchlist_unfilter"><path d="M248.96,438.13 C229.16,446.41 207.9,456.52 189.5,468 C168.25,481.26 151.2904,495.7575 135.7204,510.6175 " fill="none" id="Watchlist-to-unfilter" style="stroke:#181818;stroke-width:1.0;"/><polygon fill="#181818" points="131.38,514.76,140.6524,511.4398,134.997,511.3079,135.129,505.6526,131.38,514.76" style="stroke:#181818;stroke-width:1.0;"/><text fill="#000000" font-family="sans-serif" font-size="13" lengthAdjust="spacing" textLength="109" x="190.5" y="481.0669">Listings retrieved</text></g><!--link display to Watchlist--><g id="link_display_Watchlist"><path d="M254.73,57.28 C266.65,125.74 299.4005,313.799 311.2805,382.009 " fill="none" id="display-to-Watchlist" style="stroke:#181818;stroke-width:1.0;"/><polygon fill="#181818" points="312.31,387.92,314.7064,378.3671,311.4521,382.9942,306.8251,379.7398,312.31,387.92" style="stroke:#181818;stroke-width:1.0;"/><text fill="#000000" font-family="sans-serif" font-size="13" lengthAdjust="spacing" textLength="118" x="285.5" y="227.0669">Watchlist retrieved</text></g><!--link Close to *end*--><g id="link_Close_*end*"><path d="M157.23,159 C177.04,159 195.95,159 210.17,159 " fill="none" id="Close-to-*end*" style="stroke:#181818;stroke-width:1.0;"/><polygon fill="#181818" points="216.17,159,207.17,155,211.17,159,207.17,163,216.17,159" style="stroke:#181818;stroke-width:1.0;"/><text fill="#000000" font-family="sans-serif" font-size="13" lengthAdjust="spacing" textLength="23" x="175.25" y="152.0669">Exit</text></g><!--SRC=[XPBFQiCm3CRlVWhHuw0lqCDWx0yK1eF1sA7iO2Pr5JXsYDLqU_l9RkmuxM2t-FEdtoTBsTrym7fz2qU_PoSq61F52i7gYUJpmFwhtX22uoWgnHNOU5tnmB5tzYVLB8nuraqfo7cJ21judhmma0nC8w4fbybuxqAacl7Iaqy1x957ngDr9Ij7pVA2qRYRlCcXUOL-XvZW4k3TwkiJEMFZ8PpyrgDfG8bRTALkXJgmY3ebBJ-Lygl6ymrKSiqnbPN0LLRo_3qFg51VgGjZdaUAtm-Xkmn0SYHaPaWUVXPBr-UJGYVvie6t7ZKC6tBRoP9ST_pdNXTB-VUDUVEWpft-enju_6Rv1G00]--></g></svg>